<svg width="715" height="525" viewBox="0 0 715 525" fill="none" xmlns="http://www.w3.org/2000/svg">
<g clip-path="url(#clip0_2448_1143)">
<path d="M310.259 112.596C286.14 24.8924 177.474 -3.35719 115.209 62.1769C114.314 63.1206 113.419 64.0798 112.524 65.0545C23.2401 162.366 65.4133 402.147 251.744 462.916C438.074 523.685 631.889 412.713 642.768 313.499C653.662 214.285 567.696 183.112 434.278 210.851C358.928 226.538 325.273 167.192 310.259 112.596Z" fill="#BBE2F2"/>
<path d="M465.264 127.587C440.327 131.656 433.43 153.795 452.672 169.513C459.03 174.711 468.119 179.012 481.065 181.178C530.368 189.378 556.539 167.502 536.772 139.144C524.581 121.647 489.969 123.565 465.264 127.587Z" fill="#BBE2F2"/>
<path d="M67.7588 304.805C52.266 284.817 29.5669 289.334 25.0147 313.793C23.5179 321.884 24.0888 331.94 28.3941 344.363C44.8128 391.688 76.4929 404.251 91.8777 373.278C101.368 354.156 83.1128 324.623 67.7588 304.805Z" fill="#BBE2F2"/>
<path d="M660.343 325.025C658.044 337.077 667.982 345.617 679.216 340.975C682.935 339.444 686.684 336.473 690.017 331.275C702.733 311.457 696.283 294.455 678.598 296.187C667.689 297.27 662.627 313.082 660.343 325.025Z" fill="#BBE2F2"/>
<path d="M597.323 197.84C609.297 200.346 617.985 190.538 613.541 179.182C612.075 175.423 609.189 171.617 604.051 168.182C584.499 155.11 567.433 161.267 568.868 179.043C569.763 190.012 585.456 195.349 597.323 197.84Z" fill="#BBE2F2"/>
<path d="M306.093 68.8448C315.583 76.5956 327.789 71.8925 329.055 59.7635C329.471 55.7565 328.653 51.038 325.675 45.6232C314.318 24.9852 296.341 22.5872 289.458 39.0326C285.23 49.1815 296.696 61.1713 306.093 68.8448Z" fill="#BBE2F2"/>
<path d="M690.049 385.33C709.075 366.162 723.565 344.487 709.152 341.115C694.724 337.727 670.498 375.491 666.269 409.867L662.041 421.207C665.56 396.206 657.011 365.76 644.512 364.506C632.09 363.253 639.605 383.009 649.48 399.903C656.995 412.76 658.971 422.908 659.464 428.138L639.512 481.728C644.959 442.139 631.426 394.086 611.643 392.106C591.922 390.126 603.866 421.47 619.529 448.265C631.364 468.516 634.543 484.529 635.361 492.898L631.38 503.588C633.123 504.563 634.867 505.538 636.611 506.497L660.359 442.727C664.942 439.292 671.902 435.161 681.793 431.804C700.295 425.539 718.874 415.56 708.674 408.335C699.817 402.069 679 414.137 664.665 431.154L672.874 409.109C676.577 402.735 681.839 393.607 690.049 385.33Z" fill="#9856F2"/>
<path d="M90.3485 135.168C92.8175 112.008 90.8886 89.6221 79.3924 95.1451C67.8808 100.668 71.9238 139.128 87.5709 164.485L90.8423 174.386C79.7628 155.698 57.65 139.871 48.5765 145.796C39.5648 151.675 55.2273 160.88 70.9362 166.883C82.8953 171.462 89.685 177.202 92.8329 180.451L108.249 227.234C90.6263 197.701 55.7057 172.746 41.3393 182.106C27.0347 191.435 51.8942 206.024 76.8309 215.554C95.6722 222.763 106.412 231.798 111.458 236.966L114.529 246.294C116.226 246.016 117.924 245.722 119.606 245.428L101.258 189.78C102.493 184.999 104.931 178.455 109.776 170.859C118.819 156.657 125.948 139.902 115.208 140.567C105.888 141.14 98.4035 160.494 97.9252 179.677L91.583 160.432C90.6571 154.135 89.2838 145.162 90.3485 135.168Z" fill="#9856F2"/>
<path d="M561.631 449.023C561.878 450.338 562.155 451.761 562.48 453.293C565.905 469.259 574.315 495.404 593.234 500.541C593.234 500.541 582.941 446.702 619.652 432.67C656.362 418.654 652.304 405.287 650.205 381.524C648.107 357.761 639.99 353.228 665.467 330.966C690.943 308.703 686.067 275.534 686.067 275.534C686.067 275.534 661.964 313.391 636.209 314.273C610.455 315.155 605.949 337.185 607.045 353.569C608.14 369.952 586.274 371.809 574.439 381.308C562.603 390.807 560.381 440.731 560.381 440.731C560.381 440.731 560.72 444.011 561.631 449.023Z" fill="#009CF8"/>
<path d="M561.631 449.023C561.878 450.338 562.156 451.761 562.48 453.293C565.118 445.279 568.837 438.549 572.309 433.382C580.549 421.145 592.138 411.104 602.57 407.159C619.173 400.878 627.29 384.556 628.864 354.203C629.775 336.582 648.153 326.185 648.338 326.077C648.878 325.783 649.079 325.102 648.77 324.561C648.477 324.019 647.798 323.818 647.258 324.128C646.456 324.576 627.599 335.22 626.627 354.095C625.114 383.427 617.445 399.161 601.783 405.071C590.78 409.232 579.068 419.35 570.457 432.129C567.418 436.647 564.192 442.34 561.631 449.023Z" fill="#006BDE"/>
<path d="M155.283 500.247H181.084C167.15 497.942 132.584 483.059 129.513 453.231C125.609 415.452 112.2 415.931 89.5775 411.971C66.971 408.026 60.7368 414.477 46.3859 385.144C32.035 355.827 0 352.13 0 352.13C0 352.13 29.1956 384.061 23.6096 408.335C18.0235 432.609 37.3741 442.293 52.8824 445.341C68.3906 448.389 64.6717 469.274 70.551 482.687C73.236 488.814 84.2384 495.157 95.4105 500.247H155.283Z" fill="#9856F2"/>
<path d="M99.4067 463.07C100.533 474.38 107.03 487.839 116.767 499.055C117.106 499.458 117.461 499.844 117.831 500.247H120.763C119.93 499.365 119.128 498.483 118.387 497.632C109.067 486.895 102.616 473.575 101.536 462.838C99.8387 445.759 86.676 434.125 58.8692 425.121C42.7282 419.892 37.6205 400.135 37.5743 399.934C37.4354 399.362 36.849 399.006 36.278 399.145C35.7071 399.285 35.3522 399.872 35.4911 400.445C35.7071 401.311 40.9074 421.562 58.2056 427.163C85.102 435.888 97.8018 446.965 99.4067 463.07Z" fill="#1C31B5"/>
<path d="M169.202 430.133C168.661 431.974 168.029 433.97 167.334 436.09C160.005 458.337 144.959 495.822 117.168 500.247C117.168 500.247 139.157 423.527 88.9444 397.877C38.7316 372.211 46.5706 353.785 53.206 320.214C59.8414 286.627 72.1091 281.413 39.1946 245.722C6.26462 210.031 18.3009 163.479 18.3009 163.479C18.3009 163.479 46.8793 221.201 83.4818 226.43C120.084 231.644 123.124 263.776 119.051 286.998C114.977 310.204 145.885 316.222 161.301 331.6C176.717 346.978 172.242 418.53 172.242 418.53C172.242 418.53 171.269 423.141 169.202 430.133Z" fill="#009CF8"/>
<path d="M169.201 430.133C168.661 431.974 168.029 433.97 167.334 436.09C164.804 424.254 160.529 414.075 156.363 406.185C146.487 387.465 131.488 371.345 117.214 364.104C94.484 352.594 85.4259 328.042 87.8332 284.507C89.2374 259.243 64.6094 241.56 64.3471 241.39C63.6218 240.88 63.452 239.874 63.9613 239.162C64.4705 238.435 65.4735 238.265 66.1834 238.776C67.2635 239.534 92.5242 257.634 91.012 284.693C88.6819 326.773 97.1999 350.397 118.634 361.258C133.694 368.885 148.848 385.113 159.171 404.684C162.844 411.599 166.563 420.217 169.201 430.133Z" fill="#006BDE"/>
<path d="M189.124 482.208C189.216 488.04 189.309 494.105 189.448 500.247H245.555C245.663 493.532 245.741 487.081 245.802 481.048C245.972 464.68 245.987 451.204 245.972 442.819C245.972 436.879 245.941 433.506 245.941 433.506L188.723 432.903C188.723 432.903 188.723 437.853 188.769 445.96C188.815 454.979 188.908 467.882 189.124 482.208Z" fill="#18315B"/>
<path d="M188.77 445.975C188.8 454.979 188.908 467.882 189.124 482.208C206.747 483.554 226.066 483.569 245.803 481.048C245.973 464.679 245.988 451.204 245.973 442.819L188.77 445.975Z" fill="#000B29"/>
<path d="M118.418 469.274C118.48 478.449 118.588 488.953 118.773 500.247H174.881C175.019 493.625 175.127 487.097 175.22 480.847C175.421 467.449 175.513 455.366 175.56 446.703C175.606 438.163 175.606 432.918 175.606 432.918L118.372 433.521C118.372 433.521 118.326 439.601 118.341 449.843C118.341 455.258 118.356 461.817 118.418 469.274Z" fill="#18315B"/>
<path d="M118.342 449.843C118.342 455.258 118.373 461.817 118.419 469.274C129.807 472.647 150.207 477.876 175.221 480.846C175.421 467.449 175.514 455.366 175.56 446.703L118.342 449.843Z" fill="#000B29"/>
<path d="M212.395 131.115C212.395 131.115 221.407 122.405 221.376 113.818C221.345 105.217 215.513 107.754 212.395 99.7555C209.263 91.7416 199.973 86.8528 194.881 87.843C189.789 88.8176 179.018 68.8913 164.42 72.4032C149.822 75.915 151.088 94.681 144.807 97.4194C138.527 100.158 140.27 111.297 143.588 113.834C146.906 116.371 148.31 126.582 150.162 126.35C152.029 126.102 212.395 131.115 212.395 131.115Z" fill="#18315B"/>
<path d="M151.72 130.914C151.72 130.914 146.057 123.333 141.844 129.599C137.631 135.864 143.588 154.367 153.911 149.85L151.72 130.914Z" fill="#F97853"/>
<path d="M151.643 144.141C151.257 144.141 150.918 143.894 150.81 143.507C149.205 137.798 143.31 135.477 143.249 135.447C142.801 135.276 142.57 134.766 142.739 134.317C142.909 133.869 143.418 133.636 143.866 133.807C144.144 133.915 150.656 136.437 152.492 143.027C152.615 143.491 152.353 143.971 151.89 144.11C151.797 144.126 151.72 144.141 151.643 144.141Z" fill="#EA5143"/>
<path d="M145.686 141.264C145.531 141.264 145.362 141.217 145.207 141.124C144.806 140.861 144.683 140.32 144.945 139.918C144.991 139.856 146.041 138.247 148.216 137.272C148.648 137.071 149.173 137.272 149.374 137.721C149.574 138.154 149.374 138.68 148.942 138.881C147.244 139.639 146.426 140.861 146.426 140.877C146.241 141.124 145.963 141.264 145.686 141.264Z" fill="#EA5143"/>
<path d="M210.127 130.914C210.127 130.914 215.79 123.333 220.003 129.599C224.215 135.864 218.259 154.367 207.936 149.85L210.127 130.914Z" fill="#F97853"/>
<path d="M210.203 144.141C210.589 144.141 210.929 143.894 211.037 143.507C212.641 137.798 218.536 135.477 218.598 135.447C219.045 135.276 219.277 134.766 219.107 134.317C218.937 133.869 218.428 133.636 217.981 133.807C217.703 133.915 211.191 136.437 209.355 143.027C209.231 143.491 209.494 143.971 209.956 144.11C210.049 144.126 210.126 144.141 210.203 144.141Z" fill="#EA5143"/>
<path d="M216.16 141.264C216.315 141.264 216.484 141.217 216.639 141.124C217.04 140.861 217.163 140.32 216.901 139.918C216.855 139.856 215.805 138.247 213.63 137.272C213.198 137.071 212.673 137.272 212.472 137.721C212.272 138.154 212.472 138.68 212.92 138.881C214.602 139.639 215.435 140.861 215.435 140.877C215.605 141.124 215.883 141.264 216.16 141.264Z" fill="#EA5143"/>
<path d="M194.881 165.553V183.963C194.881 183.963 189.403 193.338 181.996 193.972C174.605 194.622 168.031 185.897 168.031 185.897V166.852L194.881 165.553Z" fill="#FFA681"/>
<path d="M194.881 165.553V173.721C189.913 179.244 181.086 180.621 168.031 178.703V166.852L194.881 165.553Z" fill="#F97853"/>
<path d="M214.231 118.289C213.891 125.437 213.212 134.379 211.854 141.542C211.515 143.321 211.129 145.007 210.697 146.508C206.839 160.076 197.164 183.328 170.113 173.644C158.169 169.374 152.63 156.023 150.161 142.455C148.479 133.234 148.232 123.921 148.355 117.268C148.479 110.477 152.182 104.273 158.077 100.916C174.048 91.8344 190.899 95.2225 201.994 99.4924C209.694 102.463 214.616 110.043 214.231 118.289Z" fill="#FFA681"/>
<path d="M150.178 142.439C150.178 142.439 152.801 158.127 155.285 163.835C157.77 169.544 164.544 170.627 167.09 175.454C170.717 182.338 176.241 187.8 185.345 184.473C192.906 181.704 192.567 177.821 196.811 174.82C204.079 169.683 207.674 164.021 207.967 159.333C208.26 154.646 211.871 141.527 211.871 141.527L207.967 141.248C207.967 141.248 205.745 145.858 202.474 150.948C199.187 143.723 183.385 148.983 183.385 148.983L180.361 149.958L177.259 148.983C177.259 148.983 161.273 143.955 158.109 151.521C156.18 148.55 154.606 145.224 153.881 141.681L150.178 142.439ZM180.361 152.402C198.493 149.277 195.252 159.921 195.129 160.308C193.894 161.484 192.644 162.458 191.41 163.139C184.388 166.945 183.632 166.373 180.855 166.496C178.031 166.636 174.142 165.8 170.207 163.588C168.973 162.892 167.137 161.561 165.13 159.72C165.115 159.72 162.276 149.958 180.361 152.402Z" fill="#18315B"/>
<path d="M169.465 133.312C169.465 135.276 168.462 136.87 167.212 136.87C165.962 136.87 164.959 135.276 164.959 133.312C164.959 131.347 165.962 129.753 167.212 129.753C168.462 129.753 169.465 131.347 169.465 133.312Z" fill="#18315B"/>
<path d="M196.285 133.312C196.285 135.276 195.282 136.87 194.032 136.87C192.782 136.87 191.779 135.276 191.779 133.312C191.779 131.347 192.782 129.753 194.032 129.753C195.282 129.753 196.285 131.347 196.285 133.312Z" fill="#18315B"/>
<path d="M202.904 121.6C202.904 121.6 193.584 117.903 186.408 121.012L187.133 125.019C187.133 125.019 197.673 124.122 202.981 126.288C203.444 124.741 203.521 123.178 202.904 121.6Z" fill="#18315B"/>
<path d="M158.586 121.616C158.586 121.616 167.984 117.903 175.206 121.028L174.48 125.066C174.48 125.066 163.864 124.168 158.525 126.334C158.046 124.787 157.985 123.209 158.586 121.616Z" fill="#18315B"/>
<path d="M181.223 148.225C182.689 148.225 184.155 147.653 184.387 147.56C184.834 147.374 185.05 146.864 184.865 146.415C184.68 145.967 184.171 145.75 183.723 145.936C182.936 146.261 181.038 146.756 180.22 146.261C180.066 146.168 179.85 145.982 179.788 145.441C179.48 142.393 180.313 132.151 180.313 132.043C180.359 131.563 179.989 131.146 179.511 131.099C179.032 131.053 178.616 131.424 178.569 131.904C178.538 132.337 177.721 142.408 178.045 145.611C178.168 146.818 178.801 147.436 179.31 147.746C179.881 148.102 180.56 148.225 181.223 148.225Z" fill="#F97853"/>
<path d="M170.113 154.151C170.777 157.492 172.968 163.634 180.39 163.634C187.828 163.634 189.911 158.018 190.621 154.151H170.113Z" fill="white"/>
<path d="M214.232 118.289C213.893 125.437 213.214 134.379 211.856 141.542L207.952 141.263C207.952 141.263 208.893 135.23 209.325 131.285C209.757 127.355 210.498 119.991 207.15 119.078C203.816 118.166 205.776 109.78 201.116 106.145C196.471 102.494 186.148 99.2913 179.281 103.515C172.43 107.738 164.637 105.402 161.473 106.145C158.31 106.872 154.02 111.235 155.178 115.319C156.35 119.388 152.863 121.879 152.014 126.102C151.166 130.326 153.866 141.697 153.866 141.697L150.147 142.455C148.465 133.234 148.218 123.921 148.342 117.268C148.465 110.477 152.169 104.273 158.063 100.916C174.034 91.8344 190.885 95.2225 201.98 99.4924C209.696 102.463 214.618 110.043 214.232 118.289Z" fill="#18315B"/>
<path d="M257.793 461.183C240.155 465.67 222.502 468.563 204.849 469.893C204.046 469.955 203.259 470.017 202.457 470.063C200.034 470.234 197.596 470.357 195.173 470.466C183.168 470.992 171.147 470.775 159.142 469.847C156.719 469.661 154.296 469.445 151.874 469.197C151.102 469.12 150.331 469.042 149.544 468.95C135.193 467.387 120.857 464.788 106.506 461.168C106.367 447.909 106.522 405.999 107.339 360.546C107.432 355.085 107.54 349.577 107.664 344.054C108.929 284.151 111.382 223.336 115.811 217.256C120.039 211.423 132.801 204.013 144.991 197.33C145.717 196.927 146.442 196.541 147.167 196.138C149.914 194.638 152.583 193.199 155.114 191.822C160.515 188.867 165.175 186.252 168.061 184.226V185.897C168.061 185.897 174.619 194.607 182.026 193.957C188.769 193.369 193.908 185.572 194.772 184.164C197.951 186.407 203.66 189.501 210.296 193.013C212.132 193.988 214.046 194.993 215.99 196.03C216.7 196.401 217.425 196.788 218.15 197.175C231.637 204.338 246.173 212.429 250.54 218.432C250.864 218.88 251.173 219.623 251.466 220.644C254.043 229.416 255.648 258.501 256.62 293.728C256.62 293.852 256.62 293.975 256.635 294.115C256.682 295.538 256.713 296.977 256.743 298.415C256.759 298.601 256.759 298.787 256.759 298.988C257.083 311.349 257.314 324.36 257.5 337.417C257.515 338.454 257.53 339.49 257.546 340.527C257.546 341.053 257.561 341.563 257.561 342.089C257.608 344.658 257.638 347.241 257.654 349.794C257.685 351.681 257.7 353.569 257.716 355.456C258.194 402.719 257.993 447.291 257.793 461.183Z" fill="#9856F2"/>
<path d="M256.712 298.431C252.469 291.485 247.901 284.383 243.611 278.102C243.596 278.087 243.581 278.071 243.581 278.056C241.775 275.426 240.016 272.935 238.349 270.661C238.319 270.615 238.288 270.584 238.257 270.537C237.732 269.826 237.223 269.129 236.714 268.449C236.636 268.325 236.575 268.217 236.528 268.077C236.39 267.629 236.544 267.118 236.945 266.809C237.47 266.422 238.195 266.515 238.581 267.041C243.735 273.894 250.339 283.734 256.573 293.743C256.573 293.867 256.573 293.991 256.589 294.13C256.651 295.553 256.682 296.992 256.712 298.431Z" fill="#264CBE"/>
<path d="M250.678 217.488C250.678 217.488 277.281 266.36 293.515 291.144C293.515 291.144 302.743 282.651 314.733 271.28C327.741 258.95 345.533 238.358 345.533 238.358L355.378 250.069C355.378 250.069 315.412 322.194 297.481 331.244C279.55 340.31 246.512 276.153 246.512 276.153L250.678 217.488Z" fill="#9856F2"/>
<path d="M138.017 410.13C138.002 410.13 137.986 410.13 137.971 410.13C137.307 410.099 136.783 409.542 136.814 408.877C138.202 369.411 117.787 356.616 117.586 356.493C117.015 356.152 116.83 355.41 117.17 354.837C117.509 354.265 118.25 354.079 118.821 354.42C119.052 354.559 124.438 357.839 129.669 366.27C134.437 373.959 139.977 387.604 139.221 408.969C139.19 409.619 138.65 410.13 138.017 410.13Z" fill="#264CBE"/>
<path d="M225.11 372.938C224.493 372.938 223.968 372.459 223.906 371.824C223.258 363.516 225.989 357.452 229.446 349.778C230.464 347.535 231.498 345.215 232.579 342.6C239.291 326.278 235.912 307.621 235.881 307.435C235.757 306.785 236.189 306.151 236.837 306.027C237.486 305.903 238.118 306.337 238.242 306.986C238.396 307.775 241.775 326.541 234.801 343.513C233.72 346.158 232.656 348.494 231.637 350.753C228.196 358.396 225.696 363.934 226.298 371.623C226.344 372.288 225.851 372.861 225.187 372.923C225.172 372.938 225.141 372.938 225.11 372.938Z" fill="#264CBE"/>
<path d="M155.1 191.822C155.609 195.705 156.365 200.749 157.198 206.473C157.445 208.175 157.707 209.938 157.954 211.748C158.788 217.658 159.652 224.094 160.392 230.607C160.593 232.355 160.778 234.104 160.948 235.852C161.596 242.288 162.09 248.692 162.26 254.649C162.321 256.443 162.337 258.207 162.337 259.909C162.321 264.457 162.074 268.619 161.519 272.193C161.164 274.451 160.855 276.648 160.578 278.814C160.346 280.609 160.146 282.357 159.96 284.09C159.266 290.804 158.911 297.054 158.803 302.948C158.772 304.743 158.772 306.491 158.788 308.208C158.834 314.892 159.22 321.127 159.775 327.067C159.945 328.846 160.115 330.595 160.3 332.312C161.025 338.794 161.889 344.967 162.723 351.062C162.969 352.811 163.201 354.543 163.417 356.292C163.772 359.076 164.111 361.877 164.405 364.677C164.713 367.647 164.914 371.143 165.006 374.996C165.053 376.682 165.084 378.446 165.084 380.271C165.114 386.042 164.96 392.447 164.698 399.13C164.621 400.878 164.559 402.642 164.466 404.437C164.173 410.656 163.772 417.045 163.34 423.342C163.216 425.121 163.077 426.885 162.954 428.648C162.476 435.208 161.936 441.613 161.38 447.554C161.21 449.364 161.056 451.127 160.886 452.829C160.254 459.373 159.652 465.19 159.127 469.847C171.148 470.775 183.153 470.976 195.174 470.45C195.452 465.515 196.223 457.532 196.98 448.157C197.118 446.44 197.257 444.676 197.396 442.866C197.844 436.894 198.26 430.52 198.523 424.084C198.6 422.321 198.662 420.557 198.708 418.778C198.893 412.358 198.893 405.968 198.615 399.981C198.538 398.171 198.43 396.392 198.291 394.659C198.152 392.895 197.983 391.163 197.782 389.507C197.196 384.804 196.98 380.287 197.01 375.831C197.01 374.067 197.057 372.304 197.149 370.54C197.427 364.414 198.091 358.287 198.862 351.774C199.063 350.041 199.279 348.293 199.495 346.499C200.189 340.713 200.915 334.571 201.486 327.841C201.64 326.124 201.779 324.36 201.902 322.55C202.303 316.779 202.566 310.591 202.612 303.83C202.627 302.082 202.612 300.318 202.597 298.493C202.535 292.645 202.288 286.395 201.81 279.665C201.763 279.062 201.732 278.458 201.686 277.855C201.594 276.679 201.516 275.488 201.47 274.297C201.161 268.155 201.239 261.827 201.594 255.531C201.686 253.767 201.81 251.988 201.933 250.224C202.411 243.912 203.121 237.662 203.939 231.675C204.186 229.896 204.433 228.132 204.695 226.399C205.683 219.84 206.732 213.651 207.704 208.128C208.028 206.318 208.337 204.57 208.63 202.899C209.294 199.171 209.865 195.844 210.281 193.029C203.661 189.517 197.952 186.423 194.758 184.179C193.893 185.587 188.755 193.385 182.011 193.972C174.62 194.622 168.046 185.912 168.046 185.912V184.241C165.161 186.268 160.5 188.883 155.1 191.822Z" fill="white"/>
<path d="M157.184 206.488C157.43 208.19 157.693 209.954 157.94 211.764C164.575 211.918 172.368 210.913 181.765 208.747C191.826 206.426 200.684 206.829 207.69 208.128C208.014 206.318 208.322 204.57 208.615 202.899C201.039 201.491 191.471 201.089 180.593 203.611C171.318 205.746 163.603 206.736 157.184 206.488Z" fill="#E3E3E3"/>
<path d="M160.377 230.623C160.578 232.371 160.763 234.119 160.932 235.867C166.889 235.712 173.74 234.707 181.749 232.85C190.066 230.932 197.581 230.886 203.908 231.675C204.155 229.895 204.402 228.132 204.664 226.399C197.813 225.548 189.65 225.626 180.576 227.714C172.814 229.509 166.117 230.499 160.377 230.623Z" fill="#E3E3E3"/>
<path d="M162.26 254.649C162.321 256.443 162.337 258.207 162.337 259.909C167.969 259.646 174.373 258.656 181.765 256.954C189.079 255.267 195.761 255.02 201.563 255.53C201.655 253.767 201.779 251.988 201.902 250.224C195.653 249.713 188.462 250.007 180.576 251.818C173.648 253.426 167.568 254.386 162.26 254.649Z" fill="#E3E3E3"/>
<path d="M159.977 284.105C166.164 284.028 173.324 283.022 181.781 281.073C189.188 279.355 195.946 279.139 201.81 279.665C201.764 279.062 201.733 278.458 201.687 277.855C201.594 276.679 201.517 275.488 201.471 274.297C195.329 273.832 188.293 274.157 180.608 275.936C172.923 277.716 166.303 278.69 160.609 278.829C160.362 280.609 160.146 282.372 159.977 284.105Z" fill="#E3E3E3"/>
<path d="M158.803 308.208C165.253 308.255 172.784 307.265 181.765 305.176C189.526 303.382 196.563 303.211 202.597 303.83C202.612 302.082 202.597 300.318 202.581 298.493C196.177 297.905 188.755 298.152 180.592 300.04C172.089 302.005 164.898 302.995 158.819 302.948C158.788 304.743 158.788 306.491 158.803 308.208Z" fill="#E3E3E3"/>
<path d="M159.775 327.067C159.945 328.846 160.115 330.595 160.3 332.312C166.411 332.219 173.463 331.213 181.749 329.295C189.033 327.609 195.684 327.361 201.455 327.841C201.609 326.124 201.748 324.36 201.871 322.55C195.622 322.039 188.446 322.333 180.561 324.143C172.537 326 165.655 326.99 159.775 327.067Z" fill="#E3E3E3"/>
<path d="M162.738 351.062C162.985 352.811 163.217 354.543 163.433 356.292C168.787 355.951 174.836 354.992 181.765 353.398C187.968 351.96 193.708 351.573 198.847 351.774C199.048 350.041 199.264 348.293 199.48 346.499C193.817 346.236 187.459 346.669 180.577 348.262C173.849 349.809 167.923 350.753 162.738 351.062Z" fill="#E3E3E3"/>
<path d="M165.023 375.011C165.07 376.697 165.101 378.461 165.101 380.287C170.039 379.869 175.547 378.956 181.766 377.502C187.229 376.249 192.352 375.785 196.997 375.831C196.997 374.067 197.043 372.304 197.136 370.54C192.09 370.494 186.534 370.989 180.593 372.366C174.822 373.696 169.653 374.578 165.023 375.011Z" fill="#E3E3E3"/>
<path d="M164.482 404.437C169.575 404.05 175.3 403.106 181.765 401.605C187.861 400.198 193.524 399.795 198.616 399.996C198.539 398.186 198.431 396.407 198.292 394.675C192.937 394.52 186.996 394.984 180.592 396.469C174.698 397.831 169.42 398.728 164.714 399.13C164.637 400.878 164.56 402.657 164.482 404.437Z" fill="#E3E3E3"/>
<path d="M162.955 428.648C168.433 428.339 174.636 427.364 181.766 425.724C187.83 424.316 193.462 423.914 198.508 424.1C198.585 422.336 198.647 420.572 198.693 418.793C193.231 418.608 187.151 419.056 180.577 420.588C174.112 422.089 168.387 423.017 163.341 423.357C163.217 425.136 163.094 426.9 162.955 428.648Z" fill="#E3E3E3"/>
<path d="M160.902 452.845C166.874 452.69 173.741 451.684 181.765 449.828C187.228 448.575 192.335 448.11 196.98 448.157C197.119 446.44 197.258 444.676 197.397 442.866C192.274 442.789 186.641 443.284 180.592 444.676C173.263 446.378 166.905 447.337 161.396 447.554C161.226 449.364 161.057 451.127 160.902 452.845Z" fill="#E3E3E3"/>
<path d="M202.457 470.063C203.259 470.017 204.046 469.955 204.849 469.893C209.586 441.984 206.855 401.002 205.836 388.455C204.787 375.413 206.809 358.659 211.392 342.476C214.941 329.914 212.765 300.767 211.021 277.36C210.528 270.785 210.065 264.581 209.787 259.476C208.892 242.999 214.848 212.491 218.12 197.206C217.394 196.819 216.669 196.432 215.959 196.061C212.672 211.191 206.5 242.396 207.441 259.615C207.719 264.736 208.197 270.955 208.676 277.545C210.419 300.782 212.58 329.682 209.139 341.842C204.479 358.287 202.426 375.351 203.506 388.656C204.525 401.203 207.272 442.433 202.457 470.063Z" fill="#264CBE"/>
<path d="M153.942 356.477C156.72 373.634 155.856 384.789 154.837 397.691C154.513 401.868 154.174 406.169 153.927 410.934C153.186 425.863 150.671 455.954 149.544 468.949C150.316 469.042 151.087 469.12 151.874 469.197C152.985 456.186 155.516 426.034 156.272 411.042C156.504 406.324 156.843 402.023 157.167 397.877C158.186 384.819 159.081 373.541 156.257 356.106C155.655 352.362 155.007 348.556 154.374 344.781C151.226 326.077 147.955 306.739 149.498 297.472C149.868 295.213 150.347 292.645 150.871 289.922C152.97 278.737 155.578 264.828 154.76 252.746C153.942 240.771 149.051 208.36 147.168 196.154C146.443 196.54 145.717 196.943 144.992 197.345C146.952 210.124 151.628 241.282 152.43 252.916C153.232 264.689 150.655 278.443 148.588 289.504C148.078 292.243 147.585 294.811 147.214 297.1C145.609 306.754 148.757 325.427 152.09 345.199C152.692 348.943 153.34 352.749 153.942 356.477Z" fill="#264CBE"/>
<path d="M107.926 237.167C107.926 237.167 84.1003 316.81 78.2056 345.183C72.3109 373.557 71.848 432.562 71.848 432.562C71.848 432.562 61.432 454.237 61.1851 463.875C60.9227 474.163 66.3082 482.332 65.6909 489.061C65.0737 495.791 73.2522 492.14 70.9375 478.51C68.6229 464.881 75.1811 452.535 78.005 452.937C80.8289 453.339 75.6594 467.82 78.1747 473.034C80.69 478.247 83.9305 468.114 87.171 461.957C90.5196 455.567 90.3344 441.628 88.8067 431.68C87.2791 421.733 105.272 361.289 105.364 343.776L128.141 266.592C128.125 266.608 120.61 234.397 107.926 237.167Z" fill="#FFA681"/>
<path d="M131.056 264.674C130.254 269.794 127.43 278.582 123.773 289.628C123.464 290.556 123.14 291.515 122.832 292.475C122.816 292.521 122.801 292.567 122.785 292.614C121.875 295.368 120.918 298.245 119.93 301.216C119.93 301.231 119.915 301.246 119.915 301.262C115.872 313.561 111.397 327.624 107.647 342.089C106.351 347.04 105.147 352.037 104.083 357.019C102.709 363.377 101.552 369.72 100.703 375.924C97.6634 398.279 91.8305 426.606 91.8305 426.606C83.2816 430.118 69.9337 425.477 69.9337 425.477C69.9337 425.477 69.5942 384.68 71.4923 368.838C73.8532 349.237 76.8469 335.298 80.5657 319.27C90.7966 275.194 108.805 232.077 113.743 220.628C114.128 219.716 114.437 219.004 114.653 218.509H118.897C127.291 223.877 133.232 250.889 131.056 264.674Z" fill="#9856F2"/>
<path d="M69.2559 417.339L69.9194 426.73C69.9194 426.73 82.6192 430.86 92.1402 427.952L94.6554 419.582C85.4894 420.062 77.0177 419.83 69.2559 417.339Z" fill="#009CF8"/>
<path d="M123.774 289.628C123.774 289.767 123.743 289.906 123.697 290.046C123.404 290.835 123.111 291.655 122.833 292.49C122.817 292.536 122.802 292.583 122.786 292.629C121.845 295.29 120.904 298.183 119.932 301.231C119.932 301.247 119.916 301.262 119.916 301.277C114.947 317.135 109.886 337.077 107.556 349.809C107.587 347.241 107.602 344.673 107.649 342.105C106.352 347.055 105.149 352.052 104.084 357.034C104.562 352.362 105.889 345.369 107.71 337.433C111.383 321.389 117.015 301.51 121.49 289.241C121.706 288.638 122.385 288.328 122.987 288.545C123.481 288.715 123.774 289.164 123.774 289.628Z" fill="#264CBE"/>
<path d="M549.888 500.247H606.149C605.964 496.333 605.779 492.589 605.594 489.046C604.606 469.723 603.773 456.573 603.773 456.573L558.004 458.615L554.208 458.785L547.48 459.095C547.48 459.095 548.129 470.852 549.147 488.087C549.378 491.893 549.625 495.977 549.888 500.247Z" fill="#18315B"/>
<path d="M554.224 458.785L547.496 459.095C547.496 459.095 548.144 470.852 549.163 488.087C566.739 489.557 585.935 490.16 605.61 489.046C604.622 469.723 603.789 456.573 603.789 456.573L558.02 458.615L554.224 458.785Z" fill="#000B29"/>
<path d="M560.351 500.247C559.317 482.363 558.484 467.093 558.021 458.615L554.225 458.785C554.688 467.232 555.521 482.424 556.555 500.247H560.351Z" fill="#000B29"/>
<path d="M533.375 500.247C533.668 495.404 533.931 490.81 534.178 486.571C535.15 470.156 535.751 459.079 535.751 459.079L528.453 458.754L524.672 458.584L479.474 456.573C479.474 456.573 478.98 464.417 478.301 476.87C477.947 483.507 477.53 491.475 477.113 500.247H533.375Z" fill="#18315B"/>
<path d="M478.285 476.87C490.553 479.764 510.336 483.817 534.177 486.571C535.149 470.156 535.751 459.079 535.751 459.079L528.452 458.754L524.671 458.584L479.473 456.573C479.473 456.573 478.964 464.417 478.285 476.87Z" fill="#000B29"/>
<path d="M526.122 500.247C527.156 482.409 527.99 467.201 528.452 458.754L524.672 458.584C524.209 467.062 523.36 482.347 522.342 500.247H526.122Z" fill="#000B29"/>
<path d="M611.952 465.376C600.486 468.532 589.021 470.93 577.571 472.523C573.59 473.08 569.609 473.56 565.612 473.916C560.242 474.411 554.872 474.751 549.502 474.921C540.629 475.2 531.741 474.999 522.868 474.333C505.693 473.08 488.534 470.063 471.359 465.36C471.205 449.302 471.436 391.735 472.64 336.21C472.701 333.72 472.748 331.229 472.809 328.754C472.825 328.228 472.84 327.702 472.84 327.176C472.856 326.603 472.871 326.031 472.887 325.458C472.933 323.695 472.979 321.946 473.01 320.198C473.103 316.624 473.195 313.097 473.288 309.585C473.349 307.497 473.411 305.408 473.473 303.351C473.488 302.917 473.504 302.5 473.519 302.067C473.565 300.705 473.612 299.359 473.643 298.013C473.658 297.595 473.674 297.178 473.689 296.76C473.735 295.522 473.766 294.285 473.812 293.063C473.859 292.026 473.89 290.989 473.92 289.968C475.247 252.514 477.192 222.965 479.985 218.803C484.707 211.748 500.786 202.373 513.717 194.73C518.331 192.023 523.825 189.192 526.973 187.103C531.571 190.816 534.904 194.158 541.709 193.926C549.332 193.663 551.199 189.068 554.116 185.139C555.89 186.299 560.396 189.996 562.742 191.373C564.748 192.565 566.908 193.818 569.177 195.117C572.679 197.128 576.398 199.263 580.086 201.429C585.549 204.647 590.934 207.973 595.409 211.16C599.869 214.332 603.418 217.38 605.162 220.01C607.693 223.815 609.328 248.46 610.378 280.887C610.424 282.016 610.455 283.177 610.501 284.337C610.501 284.476 610.501 284.615 610.501 284.755C610.547 285.931 610.578 287.137 610.609 288.344C610.717 291.995 610.81 295.724 610.918 299.514C610.933 300.318 610.964 301.123 610.964 301.927C610.979 302.531 610.995 303.134 611.01 303.737C611.041 305.3 611.087 306.862 611.118 308.44C611.134 308.75 611.134 309.075 611.134 309.384C611.226 313.546 611.304 317.769 611.381 322.024C611.412 323.261 611.427 324.515 611.442 325.768C612.399 384.139 612.183 448.126 611.952 465.376Z" fill="#9856F2"/>
<path d="M611.443 325.768L593.296 344.224L576.383 327.036L559.471 344.224L542.497 326.959L525.522 344.224L508.44 326.851L491.358 344.224L472.902 325.458C472.949 323.695 472.995 321.946 473.026 320.198C473.118 316.624 473.211 313.097 473.304 309.585L491.343 291.237L508.425 308.611L525.507 291.237L542.481 308.502L559.455 291.237L576.368 308.425L593.28 291.237L611.134 309.369C611.227 313.53 611.304 317.754 611.381 322.008C611.397 323.277 611.427 324.515 611.443 325.768Z" fill="#3D9BFF"/>
<path d="M580.101 420.897C555.797 420.789 535.043 409.697 521.926 400.414C507.729 390.374 499.134 380.209 499.042 380.101C498.625 379.606 498.687 378.863 499.181 378.446C499.674 378.028 500.415 378.09 500.832 378.585C500.909 378.678 509.365 388.656 523.315 398.527C536.154 407.593 556.43 418.438 580.101 418.53C580.749 418.53 581.274 419.056 581.259 419.706C581.274 420.387 580.749 420.897 580.101 420.897Z" fill="#3D9BFF"/>
<path d="M564.948 406.494C544.255 402.41 525.939 386.521 525.105 385.794C524.627 385.361 524.565 384.634 524.997 384.139C525.429 383.644 526.155 383.597 526.649 384.03C526.865 384.216 548.422 402.905 570.38 404.916C571.028 404.962 571.491 405.55 571.445 406.185C571.383 406.834 570.812 407.298 570.18 407.252C568.42 407.097 566.677 406.834 564.948 406.494Z" fill="#3D9BFF"/>
<path d="M523.501 226.182C522.946 226.182 522.468 225.796 522.36 225.223C522.236 224.589 522.653 223.97 523.285 223.846C552.913 218.215 561.848 199.093 561.94 198.908C562.203 198.32 562.897 198.057 563.483 198.32C564.07 198.583 564.332 199.279 564.07 199.867C563.699 200.702 554.533 220.288 523.733 226.152C523.656 226.182 523.579 226.182 523.501 226.182Z" fill="#3D9BFF"/>
<path d="M487.346 277.623C487.315 277.762 487.253 277.886 487.192 278.01C486.744 278.721 486.281 279.464 485.818 280.206C485.787 280.253 485.772 280.284 485.741 280.33C484.26 282.728 482.717 285.358 481.127 288.127C481.127 288.143 481.112 288.158 481.096 288.174C478.612 292.537 476.035 297.271 473.52 302.067C473.566 300.705 473.612 299.359 473.643 298.013C473.658 297.596 473.674 297.178 473.689 296.76C477.748 289.195 481.806 282.125 485.201 276.756C485.556 276.199 486.266 276.045 486.821 276.401C487.253 276.664 487.454 277.159 487.346 277.623Z" fill="#3D9BFF"/>
<path d="M636.656 234.181C636.656 234.181 674.539 221.974 685.757 197.051C688.998 189.826 662.287 116.526 662.287 116.526L649.386 117.145C649.386 117.145 653.059 142.579 655.296 156.982C657.133 168.817 660.096 182.973 661.083 187.629C661.299 188.635 661.423 189.207 661.423 189.207C660.79 189.316 660.157 189.439 659.509 189.563C641.81 193.168 619.203 204.725 619.203 204.725L636.656 234.181Z" fill="#FFA681"/>
<path d="M670.944 196.216C671.484 196.602 672.256 196.494 672.642 195.953C673.043 195.396 672.92 194.638 672.38 194.251C669.617 192.24 665.466 189.888 661.099 187.614C661.315 188.619 661.439 189.192 661.439 189.192C660.806 189.3 660.173 189.424 659.525 189.548C663.97 191.837 668.213 194.235 670.944 196.216Z" fill="#F97853"/>
<path d="M578.681 200.64C578.681 200.64 567.216 227.606 596.396 242.612C616.595 253.009 662.595 225.873 662.595 225.873L646.192 190.971C646.192 190.971 604.111 208.376 578.681 200.64Z" fill="#9856F2"/>
<path d="M655.683 75.3117C654.541 76.1161 654.773 81.0668 655.282 85.7389C655.128 85.7699 654.958 85.7854 654.788 85.8163C653.43 79.5971 650.73 68.9996 648.415 71.0263C646.903 72.3567 648.924 81.4845 650.313 86.9457C650.035 87.0385 649.742 87.1313 649.464 87.2241C647.721 80.7419 643.971 68.257 641.487 70.6859C639.82 72.3103 643.014 83.2946 644.789 88.9105C644.542 89.0033 644.295 89.0961 644.064 89.2044C642.366 83.7587 638.74 73.4706 636.255 75.8841C634.002 78.0809 640.453 93.629 640.453 93.629L642.15 99.74C642.15 99.74 640.144 100.606 637.011 97.0481C633.879 93.4898 630.129 92.871 632.737 98.0073C635.684 103.824 640.036 107.986 641.949 112.101C643.863 116.216 649.896 117.578 649.896 117.578L662.01 116.99C662.01 116.99 664.355 96.4756 659.834 86.6827C659.047 80.8502 657.674 73.9038 655.683 75.3117Z" fill="#FFA681"/>
<path d="M505.863 122.621C505.863 143.306 518.563 157.554 539.179 157.554C559.81 157.554 574.177 142.238 574.177 121.554C574.177 115.845 573.251 110.523 571.461 105.82C571.353 105.541 571.245 105.263 571.137 104.985C570.921 104.443 570.689 103.917 570.442 103.391C570.088 102.587 569.686 101.813 569.254 101.055C563.884 91.3702 554.255 85.2129 541.324 85.2129C516.619 85.2129 505.863 101.952 505.863 122.621Z" fill="#18315B"/>
<path d="M510.508 131.532C510.508 131.532 504.783 123.874 500.524 130.202C496.265 136.529 502.283 155.249 512.714 150.67L510.508 131.532Z" fill="#F97853"/>
<path d="M510.431 144.899C510.045 144.899 509.69 144.636 509.582 144.249C507.962 138.479 501.99 136.127 501.944 136.112C501.496 135.941 501.265 135.431 501.435 134.967C501.604 134.518 502.114 134.286 502.577 134.456C502.854 134.565 509.428 137.117 511.295 143.77C511.434 144.234 511.156 144.729 510.678 144.853C510.585 144.884 510.508 144.899 510.431 144.899Z" fill="#EA5143"/>
<path d="M504.397 141.991C504.227 141.991 504.073 141.944 503.918 141.851C503.502 141.588 503.394 141.047 503.656 140.629C503.702 140.567 504.751 138.943 506.958 137.953C507.406 137.752 507.93 137.953 508.115 138.401C508.316 138.85 508.115 139.376 507.668 139.562C505.955 140.335 505.137 141.573 505.122 141.573C504.968 141.851 504.69 141.991 504.397 141.991Z" fill="#EA5143"/>
<path d="M569.546 131.532C569.546 131.532 575.271 123.874 579.53 130.202C583.789 136.529 577.771 155.249 567.34 150.67L569.546 131.532Z" fill="#F97853"/>
<path d="M569.623 144.899C570.009 144.899 570.364 144.636 570.472 144.249C572.092 138.479 578.064 136.127 578.11 136.112C578.558 135.941 578.789 135.431 578.619 134.967C578.45 134.518 577.94 134.286 577.477 134.456C577.2 134.565 570.626 137.117 568.759 143.77C568.635 144.234 568.898 144.729 569.376 144.853C569.469 144.884 569.546 144.899 569.623 144.899Z" fill="#EA5143"/>
<path d="M575.642 141.991C575.812 141.991 575.966 141.944 576.121 141.851C576.537 141.588 576.645 141.047 576.383 140.629C576.337 140.567 575.288 138.943 573.081 137.953C572.633 137.752 572.109 137.953 571.924 138.401C571.723 138.85 571.924 139.376 572.371 139.562C574.084 140.335 574.902 141.573 574.917 141.573C575.071 141.851 575.365 141.991 575.642 141.991Z" fill="#EA5143"/>
<path d="M554.132 166.543V185.138C554.132 185.138 548.592 194.607 541.108 195.256C533.639 195.906 526.988 187.103 526.988 187.103V167.858L554.132 166.543Z" fill="#FFA681"/>
<path d="M554.132 166.543V174.804C549.116 180.389 540.197 181.781 526.988 179.832V167.858L554.132 166.543Z" fill="#F97853"/>
<path d="M573.698 118.769C573.359 125.994 572.665 135.044 571.291 142.269C570.952 144.079 570.566 145.765 570.134 147.282C566.23 160.989 556.462 184.504 529.118 174.711C517.035 170.395 511.449 156.904 508.95 143.182C507.252 133.868 507.005 124.462 507.129 117.732C507.268 110.863 511.002 104.598 516.958 101.21C533.099 92.0355 550.135 95.4546 561.338 99.7709C569.115 102.772 574.084 110.43 573.698 118.769Z" fill="#FFA681"/>
<path d="M528.3 133.961C528.3 135.942 527.282 137.55 526.016 137.55C524.751 137.55 523.732 135.942 523.732 133.961C523.732 131.981 524.751 130.372 526.016 130.372C527.282 130.357 528.3 131.966 528.3 133.961Z" fill="#18315B"/>
<path d="M555.181 133.884C555.181 135.864 554.162 137.473 552.897 137.473C551.632 137.473 550.613 135.864 550.613 133.884C550.613 131.904 551.632 130.295 552.897 130.295C554.162 130.295 555.181 131.904 555.181 133.884Z" fill="#18315B"/>
<path d="M560.334 121.523C560.334 121.523 553.143 118.676 547.604 121.074L548.159 124.168C548.159 124.168 556.291 123.472 560.38 125.143C560.735 123.952 560.797 122.745 560.334 121.523Z" fill="#18315B"/>
<path d="M518.408 121.523C518.408 121.523 525.599 118.676 531.139 121.074L530.583 124.168C530.583 124.168 522.451 123.472 518.362 125.143C517.991 123.952 517.945 122.745 518.408 121.523Z" fill="#18315B"/>
<path d="M540.336 149.03C541.818 149.03 543.299 148.442 543.53 148.349C543.978 148.163 544.194 147.653 544.009 147.204C543.824 146.756 543.314 146.539 542.867 146.725C542.064 147.049 540.166 147.56 539.333 147.065C539.179 146.972 538.963 146.771 538.901 146.245C538.577 143.166 539.426 132.816 539.441 132.708C539.487 132.229 539.117 131.795 538.639 131.749C538.145 131.703 537.728 132.074 537.682 132.553C537.651 132.987 536.818 143.166 537.157 146.415C537.281 147.637 537.929 148.256 538.438 148.566C538.978 148.906 539.657 149.03 540.336 149.03Z" fill="#F97853"/>
<path d="M528.5 153.516C529.966 158.622 534.132 163.696 539.873 163.773C545.598 163.696 549.764 158.622 551.23 153.516H528.5Z" fill="white"/>
<path d="M539.378 169.312C541.662 169.312 543.591 168.152 543.668 168.105C544.085 167.858 544.224 167.316 543.961 166.898C543.715 166.481 543.175 166.341 542.758 166.604C542.742 166.62 541.153 167.564 539.378 167.564C537.743 167.564 536.184 166.62 536.169 166.62C535.752 166.357 535.212 166.496 534.95 166.914C534.687 167.332 534.826 167.873 535.243 168.136C535.32 168.152 537.218 169.312 539.378 169.312Z" fill="#F97853"/>
<path d="M572.756 131.687H568.759C569.207 127.665 569.84 120.579 566.537 119.573C556.121 116.371 569.623 108.991 564.917 105.309C560.226 101.627 548.529 103.205 540.397 102.942C532.219 102.679 519.056 102.788 515.877 103.53C512.683 104.257 514.426 109.595 515.599 113.71C516.787 117.825 511.68 122.389 510.816 126.659C510.569 127.881 510.615 129.707 510.816 131.672H507.482C507.081 126.473 507.035 121.647 507.097 117.717C507.236 110.848 510.97 104.582 516.926 101.194C533.067 92.02 550.103 95.4391 561.306 99.7554C569.083 102.757 574.068 110.415 573.666 118.753C573.512 122.729 573.219 127.231 572.756 131.687Z" fill="#18315B"/>
<path d="M525.615 144.373C520.106 144.373 515.631 139.887 515.631 134.363C515.631 128.84 520.106 124.354 525.615 124.354C531.124 124.354 535.599 128.84 535.599 134.363C535.599 139.887 531.124 144.373 525.615 144.373ZM525.615 125.916C520.97 125.916 517.189 129.707 517.189 134.363C517.189 139.02 520.97 142.81 525.615 142.81C530.26 142.81 534.04 139.02 534.04 134.363C534.04 129.707 530.26 125.916 525.615 125.916Z" fill="white"/>
<path d="M552.898 144.373C547.389 144.373 542.914 139.887 542.914 134.363C542.914 128.84 547.389 124.354 552.898 124.354C558.407 124.354 562.882 128.84 562.882 134.363C562.882 139.887 558.407 144.373 552.898 144.373ZM552.898 125.916C548.253 125.916 544.473 129.707 544.473 134.363C544.473 139.02 548.253 142.81 552.898 142.81C557.543 142.81 561.323 139.02 561.323 134.363C561.323 129.707 557.543 125.916 552.898 125.916Z" fill="white"/>
<path d="M517.329 131.146C517.128 131.146 516.927 131.068 516.789 130.913C516.742 130.867 512.206 126.458 506.265 127.85C505.848 127.943 505.431 127.68 505.323 127.262C505.231 126.845 505.493 126.427 505.91 126.319C512.715 124.725 517.684 129.583 517.884 129.8C518.193 130.109 518.193 130.604 517.884 130.898C517.73 131.068 517.529 131.146 517.329 131.146Z" fill="white"/>
<path d="M561.368 131.146C561.121 131.146 560.859 131.022 560.72 130.79C560.488 130.434 560.581 129.939 560.951 129.707C561.245 129.506 568.312 124.942 574.315 125.932C574.731 126.009 575.025 126.396 574.963 126.829C574.886 127.247 574.5 127.541 574.068 127.479C568.667 126.582 561.877 130.975 561.8 131.022C561.661 131.099 561.522 131.146 561.368 131.146Z" fill="white"/>
<path d="M543.468 132.12C543.453 132.089 541.601 129.583 539.178 129.583C536.771 129.583 535.105 132.089 535.089 132.105L533.793 131.254C533.886 131.115 535.938 128.021 539.194 128.021C542.434 128.021 544.656 131.068 544.749 131.192L543.468 132.12Z" fill="white"/>
<path d="M484.073 276.153C484.073 276.153 473.565 296.559 461.174 312.726C457.517 317.491 453.705 321.9 449.955 325.288C443.875 330.796 437.934 333.673 433.105 331.229C415.174 322.163 375.207 250.054 375.207 250.054L385.052 238.342C385.052 238.342 402.844 258.934 415.853 271.264C427.858 282.635 437.07 291.129 437.07 291.129C438.737 288.591 440.496 285.822 442.348 282.883C444.308 279.758 446.329 276.462 448.397 273.059C463.38 248.398 480 218.803 480 218.803L484.073 276.153Z" fill="#FFA681"/>
<path d="M461.173 312.726C457.516 317.491 453.705 321.9 449.955 325.288L442.332 282.883C444.292 279.758 446.313 276.462 448.381 273.059L461.173 312.726Z" fill="#F97853"/>
<path d="M479.984 218.803L444.061 275.457L456.112 325.288L485.848 276.756C485.848 276.756 489.459 243.556 479.984 218.803Z" fill="#9856F2"/>
<path d="M434.818 500.247C432.256 485.983 429.726 469.909 427.426 454.299C426.917 450.849 426.423 447.414 425.945 444.041C424.093 431.108 422.458 418.886 421.13 408.737C420.621 404.885 420.174 401.327 419.757 398.155C418.476 388.022 417.72 381.741 417.72 381.741L360.98 383.891L304.07 381.741C304.07 381.741 302.604 394.195 300.259 412.234C299.827 415.513 299.379 418.979 298.885 422.599C297.62 432.067 296.185 442.525 294.626 453.231C294.611 453.386 294.58 453.541 294.549 453.695C294.055 457.037 293.577 460.394 293.052 463.751C293.052 463.798 293.037 463.844 293.037 463.89C291.818 472.013 290.537 480.119 289.241 487.917C288.701 491.134 288.161 494.306 287.621 497.385C287.451 498.344 287.281 499.287 287.111 500.231H434.818V500.247Z" fill="#006BDE"/>
<path d="M317.141 398.821C317.141 401.775 314.749 404.189 311.786 404.189C308.839 404.189 306.432 401.791 306.432 398.821C306.432 395.866 308.823 393.452 311.786 393.452C314.749 393.468 317.141 395.866 317.141 398.821Z" fill="#3D9BFF"/>
<path d="M330.412 419.598C330.412 422.553 328.02 424.966 325.058 424.966C322.11 424.966 319.703 422.568 319.703 419.598C319.703 416.643 322.095 414.229 325.058 414.229C328.02 414.229 330.412 416.643 330.412 419.598Z" fill="#3D9BFF"/>
<path d="M356.522 408.877C356.522 411.831 354.13 414.245 351.167 414.245C348.22 414.245 345.812 411.847 345.812 408.877C345.812 405.922 348.204 403.508 351.167 403.508C354.13 403.508 356.522 405.906 356.522 408.877Z" fill="#3D9BFF"/>
<path d="M315.321 441.659C315.321 444.614 312.929 447.027 309.966 447.027C307.019 447.027 304.611 444.629 304.611 441.659C304.611 438.689 307.003 436.291 309.966 436.291C312.929 436.291 315.321 438.689 315.321 441.659Z" fill="#3D9BFF"/>
<path d="M347.942 439.369C347.942 442.324 345.55 444.738 342.587 444.738C339.64 444.738 337.232 442.34 337.232 439.369C337.232 436.399 339.624 434.001 342.587 434.001C345.55 434.001 347.942 436.399 347.942 439.369Z" fill="#3D9BFF"/>
<path d="M303.732 417.262C303.732 420.046 301.603 422.352 298.887 422.599C299.365 418.979 299.828 415.513 300.26 412.234C302.282 412.992 303.732 414.956 303.732 417.262Z" fill="#3D9BFF"/>
<path d="M401.102 470.868C401.102 473.823 398.71 476.236 395.747 476.236C392.8 476.236 390.393 473.838 390.393 470.868C390.393 467.913 392.784 465.5 395.747 465.5C398.71 465.5 401.102 467.897 401.102 470.868Z" fill="#3D9BFF"/>
<path d="M398.586 441.659C398.586 444.614 396.194 447.027 393.232 447.027C390.269 447.027 387.877 444.629 387.877 441.659C387.877 438.689 390.269 436.291 393.232 436.291C396.194 436.291 398.586 438.689 398.586 441.659Z" fill="#3D9BFF"/>
<path d="M427.412 454.299C426.764 454.577 426.054 454.716 425.314 454.716C422.366 454.716 419.975 452.318 419.975 449.363C419.975 446.409 422.366 444.011 425.314 444.011C425.53 444.011 425.73 444.026 425.931 444.057C426.425 447.414 426.919 450.849 427.412 454.299Z" fill="#3D9BFF"/>
<path d="M403.926 492.264C403.926 495.219 401.534 497.632 398.571 497.632C395.624 497.632 393.217 495.234 393.217 492.264C393.217 489.309 395.609 486.896 398.571 486.896C401.534 486.896 403.926 489.309 403.926 492.264Z" fill="#3D9BFF"/>
<path d="M426.795 483.709C426.795 486.663 424.403 489.077 421.44 489.077C418.493 489.077 416.086 486.679 416.086 483.709C416.086 480.754 418.478 478.34 421.44 478.34C424.403 478.34 426.795 480.738 426.795 483.709Z" fill="#3D9BFF"/>
<path d="M379.205 500.247C378.249 498.839 376.629 497.911 374.792 497.911C372.956 497.911 371.351 498.839 370.379 500.247H379.205Z" fill="#3D9BFF"/>
<path d="M311.801 475.524C311.801 478.479 309.409 480.893 306.446 480.893C303.499 480.893 301.092 478.495 301.092 475.524C301.092 472.57 303.484 470.156 306.446 470.156C309.409 470.156 311.801 472.57 311.801 475.524Z" fill="#3D9BFF"/>
<path d="M297.682 458.584C297.682 461.307 295.66 463.55 293.037 463.891C293.053 463.844 293.053 463.798 293.053 463.751C293.562 460.394 294.056 457.037 294.549 453.695C296.401 454.562 297.682 456.418 297.682 458.584Z" fill="#3D9BFF"/>
<path d="M291.433 492.264C291.433 494.693 289.828 496.735 287.621 497.4C288.161 494.321 288.701 491.15 289.241 487.932C290.568 488.907 291.433 490.485 291.433 492.264Z" fill="#3D9BFF"/>
<path d="M325.072 494.523C325.072 497.477 322.681 499.891 319.718 499.891C316.771 499.891 314.363 497.493 314.363 494.523C314.363 491.552 316.755 489.154 319.718 489.154C322.681 489.17 325.072 491.568 325.072 494.523Z" fill="#3D9BFF"/>
<path d="M353.295 490.33C353.295 493.285 350.903 495.698 347.941 495.698C344.993 495.698 342.586 493.3 342.586 490.33C342.586 487.375 344.978 484.962 347.941 484.962C350.888 484.962 353.295 487.375 353.295 490.33Z" fill="#3D9BFF"/>
<path d="M333.158 463.968C333.158 466.923 330.767 469.336 327.804 469.336C324.856 469.336 322.449 466.938 322.449 463.968C322.449 461.013 324.841 458.599 327.804 458.599C330.767 458.615 333.158 461.013 333.158 463.968Z" fill="#3D9BFF"/>
<path d="M361.875 458.615C361.875 461.57 359.483 463.983 356.521 463.983C353.558 463.983 351.166 461.585 351.166 458.615C351.166 455.645 353.558 453.247 356.521 453.247C359.483 453.247 361.875 455.645 361.875 458.615Z" fill="#3D9BFF"/>
<path d="M374.791 430.319C374.791 433.274 372.399 435.687 369.437 435.687C366.489 435.687 364.082 433.289 364.082 430.319C364.082 427.364 366.474 424.951 369.437 424.951C372.399 424.951 374.791 427.364 374.791 430.319Z" fill="#3D9BFF"/>
<path d="M421.116 408.737C420.745 408.83 420.36 408.861 419.974 408.861C417.011 408.861 414.635 406.463 414.635 403.508C414.635 400.631 416.903 398.264 419.758 398.155C420.159 401.327 420.622 404.885 421.116 408.737Z" fill="#3D9BFF"/>
<path d="M393.231 408.877C393.231 411.831 390.839 414.245 387.876 414.245C384.929 414.245 382.521 411.847 382.521 408.877C382.521 405.922 384.913 403.508 387.876 403.508C390.839 403.508 393.231 405.906 393.231 408.877Z" fill="#3D9BFF"/>
<path d="M412.813 427.983C412.813 430.938 410.421 433.351 407.458 433.351C404.511 433.351 402.104 430.953 402.104 427.983C402.104 425.028 404.495 422.615 407.458 422.615C410.421 422.615 412.813 425.012 412.813 427.983Z" fill="#3D9BFF"/>
<path d="M380.147 475.524C380.147 478.479 377.755 480.893 374.792 480.893C371.845 480.893 369.438 478.495 369.438 475.524C369.438 472.57 371.829 470.156 374.792 470.156C377.755 470.156 380.147 472.57 380.147 475.524Z" fill="#3D9BFF"/>
<path d="M421.162 383.149C391.226 402.735 336.276 401.203 301.741 383.149C305.043 362.542 309.379 341.919 308.453 314.505C308.345 311.504 308.222 308.518 308.068 305.547C307.929 302.979 307.79 300.411 307.62 297.889C304.642 252.266 296.88 214.966 300.692 210.155C302.358 208.051 305.136 205.761 308.561 203.44C309.904 202.528 311.339 201.584 312.867 200.656C316.447 198.459 320.428 196.262 324.44 194.096C333.93 189.022 343.575 184.303 348.404 181.085C353.188 183.174 357.015 184.318 361.12 184.303C361.228 184.303 361.351 184.303 361.475 184.288C361.583 184.303 361.706 184.303 361.814 184.303C365.919 184.318 369.746 183.174 374.529 181.085C379.004 184.071 387.445 188.248 396.056 192.781C402.382 196.123 408.802 199.665 413.801 203.115C417.073 205.359 419.742 207.571 421.378 209.644C423.276 212.027 422.474 222.516 420.853 238.033C419.249 253.303 416.857 273.476 415.406 295.631C415.005 301.788 414.681 308.1 414.45 314.489C413.539 341.919 417.875 362.542 421.162 383.149Z" fill="#9856F2"/>
<path d="M402.86 360.36C378.756 360.252 358.171 349.252 345.163 340.047C331.09 330.084 322.556 319.997 322.479 319.904C322.063 319.409 322.124 318.682 322.618 318.264C323.112 317.847 323.837 317.908 324.254 318.403C324.331 318.496 332.71 328.398 346.552 338.191C359.282 347.195 379.389 357.931 402.86 358.04C403.508 358.04 404.017 358.566 404.017 359.2C404.017 359.85 403.508 360.36 402.86 360.36Z" fill="#3D9BFF"/>
<path d="M386.903 346.297C366.38 342.259 348.218 326.495 347.384 325.768C346.906 325.35 346.86 324.607 347.276 324.128C347.693 323.648 348.434 323.602 348.912 324.019C349.128 324.205 370.5 342.739 392.289 344.735C392.937 344.781 393.4 345.353 393.338 346.003C393.276 346.638 392.721 347.117 392.073 347.055C390.345 346.885 388.616 346.638 386.903 346.297Z" fill="#3D9BFF"/>
<path d="M356.521 239.843C355.981 239.843 355.487 239.456 355.379 238.899C355.256 238.265 355.672 237.662 356.305 237.538C385.686 231.953 394.543 213.001 394.636 212.8C394.898 212.212 395.593 211.949 396.164 212.212C396.75 212.475 397.012 213.171 396.75 213.744C396.379 214.564 387.306 233.995 356.737 239.812C356.66 239.843 356.598 239.843 356.521 239.843Z" fill="#3D9BFF"/>
<path d="M396.055 192.781C390.222 206.117 375.887 219.932 357.23 216.699C339.176 213.574 330.612 203.997 324.424 194.096C333.914 189.006 343.558 184.303 348.388 181.085C353.172 183.174 356.999 184.318 361.104 184.303C361.212 184.303 361.335 184.303 361.458 184.288C361.566 184.303 361.69 184.303 361.813 184.303C365.918 184.318 369.745 183.174 374.529 181.085C379.004 184.071 387.444 188.233 396.055 192.781Z" fill="#FFA681"/>
<path d="M380.469 182.06C379.96 182.06 379.543 182.462 379.543 182.972C379.543 183.715 379.235 201.352 363.449 202.713C348.804 203.982 342.74 189.934 340.873 184.102C340.765 183.761 340.441 183.529 340.086 183.529H339.916C339.361 183.529 338.959 184.086 339.129 184.612C341.12 190.63 347.508 205.158 362.43 204.616C362.816 204.601 363.217 204.585 363.603 204.539C381.071 203.023 381.38 183.158 381.38 182.957C381.38 182.477 380.978 182.06 380.469 182.06Z" fill="white"/>
<path d="M391.626 88.338C391.626 88.338 405.73 110.245 404.187 133.064C402.644 155.883 406.27 182.23 385.901 181.07C365.532 179.909 329.207 189.254 317.65 171.478C306.107 153.717 391.626 88.338 391.626 88.338Z" fill="#18315B"/>
<path d="M396.858 128.624C396.858 128.624 400.515 161.7 384.868 170.813C369.205 179.925 357.879 169.745 357.879 169.745C357.879 169.745 390.871 123.642 396.858 128.624Z" fill="#000B29"/>
<path d="M331.815 128.469C331.815 128.469 326.198 120.95 322.016 127.17C317.834 133.389 323.745 151.737 333.975 147.251L331.815 128.469Z" fill="#F97853"/>
<path d="M331.754 141.588C331.383 141.588 331.028 141.341 330.92 140.954C329.331 135.292 323.482 132.987 323.421 132.971C322.973 132.801 322.757 132.306 322.927 131.857C323.097 131.409 323.59 131.192 324.038 131.347C324.316 131.455 330.766 133.961 332.587 140.49C332.71 140.954 332.448 141.434 331.985 141.557C331.908 141.573 331.831 141.588 331.754 141.588Z" fill="#EA5143"/>
<path d="M325.828 138.742C325.674 138.742 325.504 138.695 325.366 138.602C324.964 138.339 324.841 137.813 325.103 137.411C325.149 137.349 326.183 135.756 328.344 134.781C328.776 134.58 329.285 134.781 329.486 135.214C329.686 135.648 329.486 136.158 329.054 136.359C327.372 137.117 326.569 138.324 326.554 138.339C326.399 138.587 326.122 138.742 325.828 138.742Z" fill="#EA5143"/>
<path d="M389.758 128.469C389.758 128.469 395.375 120.95 399.557 127.17C403.739 133.389 397.828 151.737 387.598 147.251L389.758 128.469Z" fill="#F97853"/>
<path d="M389.819 141.588C390.205 141.588 390.544 141.341 390.652 140.954C392.241 135.292 398.09 132.987 398.152 132.971C398.599 132.801 398.815 132.306 398.645 131.857C398.476 131.409 397.982 131.192 397.534 131.347C397.257 131.455 390.806 133.961 388.986 140.49C388.862 140.954 389.124 141.434 389.587 141.557C389.664 141.573 389.742 141.588 389.819 141.588Z" fill="#EA5143"/>
<path d="M395.729 138.742C395.884 138.742 396.053 138.695 396.192 138.602C396.594 138.339 396.717 137.813 396.455 137.411C396.408 137.349 395.375 135.756 393.214 134.781C392.782 134.58 392.273 134.781 392.072 135.214C391.872 135.648 392.072 136.158 392.504 136.359C394.186 137.117 394.989 138.324 395.004 138.339C395.174 138.587 395.452 138.742 395.729 138.742Z" fill="#EA5143"/>
<path d="M374.62 162.83V181.085C374.62 181.085 369.189 190.383 361.843 191.017C354.514 191.652 347.986 183.019 347.986 183.019V164.129L374.62 162.83Z" fill="#FFA681"/>
<path d="M374.621 162.83V170.936C369.698 176.413 360.949 178.362 348.002 176.444V164.114L374.621 162.83Z" fill="#F97853"/>
<path d="M393.818 115.953C393.478 123.039 392.799 131.919 391.457 139.005C391.117 140.768 390.732 142.439 390.315 143.924C386.488 157.368 376.905 180.435 350.071 170.828C338.219 166.589 332.726 153.362 330.288 139.902C328.621 130.759 328.374 121.523 328.498 114.932C328.621 108.202 332.294 102.045 338.142 98.7188C353.975 89.7149 370.687 93.072 381.689 97.311C389.327 100.25 394.204 107.769 393.818 115.953Z" fill="#FFA681"/>
<path d="M348.975 129.552C348.975 131.501 347.972 133.079 346.738 133.079C345.503 133.079 344.5 131.501 344.5 129.552C344.5 127.603 345.503 126.025 346.738 126.025C347.972 126.025 348.975 127.603 348.975 129.552Z" fill="#18315B"/>
<path d="M376.596 129.552C376.596 131.501 375.593 133.079 374.359 133.079C373.124 133.079 372.121 131.501 372.121 129.552C372.121 127.603 373.124 126.025 374.359 126.025C375.593 126.025 376.596 127.603 376.596 129.552Z" fill="#18315B"/>
<path d="M342.308 119.047C344.16 118.521 347.925 117.624 351.875 117.609C352.924 117.609 353.711 118.537 353.526 119.558V119.589C353.372 120.409 352.647 120.997 351.813 120.95C349.113 120.827 342.045 121.198 338.712 122.559C338.651 121.971 338.99 121.337 339.468 120.78C340.209 119.914 341.212 119.357 342.308 119.047Z" fill="#18315B"/>
<path d="M378.448 119.109C376.597 118.583 372.831 117.686 368.881 117.671C367.847 117.671 367.045 118.599 367.23 119.62V119.651C367.384 120.471 368.109 121.059 368.943 121.012C371.643 120.888 378.711 121.26 382.044 122.621C382.105 122.033 381.766 121.399 381.288 120.842C380.547 119.991 379.528 119.419 378.448 119.109Z" fill="#18315B"/>
<path d="M361.088 145.642C360.425 145.642 359.761 145.518 359.205 145.193C358.696 144.884 358.079 144.28 357.94 143.074C357.616 139.887 358.419 129.892 358.465 129.475C358.511 128.995 358.928 128.639 359.391 128.686C359.869 128.732 360.224 129.15 360.178 129.614C360.162 129.722 359.344 139.871 359.653 142.888C359.715 143.414 359.915 143.6 360.085 143.692C360.903 144.187 362.77 143.677 363.557 143.367C364.005 143.182 364.498 143.398 364.684 143.847C364.869 144.296 364.653 144.791 364.205 144.976C363.989 145.069 362.539 145.642 361.088 145.642Z" fill="#F97853"/>
<path d="M350.102 151.118C350.75 154.414 352.925 160.478 360.255 160.478C367.6 160.478 369.653 154.94 370.363 151.118H350.102Z" fill="white"/>
<path d="M360.147 165.537C358.033 165.537 356.166 164.392 356.088 164.346C355.687 164.098 355.564 163.557 355.811 163.155C356.058 162.752 356.598 162.629 356.999 162.876C357.014 162.892 358.542 163.804 360.147 163.804C361.891 163.804 363.449 162.876 363.465 162.876C363.881 162.629 364.406 162.768 364.653 163.17C364.9 163.572 364.776 164.114 364.36 164.361C364.282 164.408 362.384 165.537 360.147 165.537Z" fill="#F97853"/>
<path d="M397.304 114.545C397.027 115.334 396.255 115.845 395.221 116.139C395.298 118.057 395.098 120.347 394.913 122.559C393.848 135.091 390.684 137.287 389.975 134.193C389.512 132.136 389.527 120.332 389.759 116.479C387.29 116.309 385.175 115.907 385.175 115.907L382.274 103.747L381.256 115.768C376.904 117.284 366.766 114.855 366.766 114.855L363.356 102.865L361.257 114.406C354.73 117.593 346.582 115.474 346.582 115.474L344.715 103.02L340.394 115.474C340.394 115.474 326.476 120.486 326.321 115.474C326.229 112.565 328.358 104.366 330.148 98.0072C332.108 91.0763 336.645 85.2284 342.786 81.9176C360.054 72.6352 378.309 77.5703 384.558 81.3143C397.844 89.2508 397.304 114.545 397.304 114.545Z" fill="#18315B"/>
<path d="M333.975 89.2662C333.975 89.2662 322.525 102.927 318.745 127.324C314.98 151.722 309.764 169.745 324.424 177.805C340.302 186.531 338.929 168.647 338.697 163.773C338.466 158.916 324.964 145.626 333.975 108.218C336.892 96.1507 333.975 89.2662 333.975 89.2662Z" fill="#18315B"/>
<path d="M331.307 139.685C331.307 139.685 331.307 139.701 331.307 139.716C331.307 139.902 331.322 140.861 331.399 142.377C331.43 143.321 331.492 144.466 331.584 145.765C332.125 153.98 333.714 168.183 338.405 173.102C340.257 175.052 343.821 176.026 348.019 176.428V169.977C343.59 167.873 340.149 164.408 337.464 160.153C335.813 156.564 332.958 150.948 331.631 142.114L331.307 139.685Z" fill="#000B29"/>
<path d="M394.033 147.668C394.033 148.798 393.123 149.695 392.012 149.695C390.901 149.695 389.99 148.782 389.99 147.668C389.99 146.539 390.901 145.642 392.012 145.642C393.123 145.642 394.033 146.554 394.033 147.668Z" fill="white"/>
<path d="M435.326 300.705C429.585 317.181 403.877 315.975 374.604 306.971C374.558 306.955 374.527 306.94 374.481 306.924C374.388 306.893 374.296 306.862 374.203 306.847L370.176 305.563C369.62 305.377 369.065 305.192 368.509 305.006C365.361 303.954 362.182 302.809 358.988 301.587C348.526 297.611 337.986 292.877 328.049 287.849L328.111 287.679L331.104 279.881L332.123 277.236C332.123 277.236 386.394 283.161 413.691 277.452C414.154 277.36 414.602 277.251 415.049 277.159C414.941 276.555 414.91 275.936 414.741 275.348C400.282 225.997 416.099 216.529 421.392 209.644C421.376 209.644 446.158 269.609 435.326 300.705Z" fill="#9856F2"/>
<path d="M426.468 285.435C426.298 285.513 426.129 285.544 425.959 285.544C425.527 285.544 425.126 285.312 424.925 284.894C422.857 280.655 415.836 278.118 413.676 277.437C414.139 277.344 414.586 277.236 415.034 277.143C414.926 276.54 414.818 275.936 414.725 275.333C417.472 276.246 424.632 279.015 427.008 283.888C427.286 284.461 427.055 285.157 426.468 285.435Z" fill="#3D9BFF"/>
<path d="M350.456 283.362C339.377 283.362 330.38 282.728 329.609 282.666C328.976 282.62 328.498 282.063 328.544 281.428C328.59 280.794 329.146 280.315 329.779 280.361C330.195 280.392 370.902 283.285 386.951 276.756C387.537 276.509 388.216 276.803 388.463 277.391C388.71 277.978 388.417 278.659 387.83 278.907C378.927 282.511 363.295 283.362 350.456 283.362Z" fill="#3D9BFF"/>
<path d="M370.176 305.563C379.465 302.995 387.906 300.488 392.782 298.926C399.557 296.744 405.158 289.891 407.704 284.058C407.967 283.471 408.646 283.208 409.232 283.471C409.818 283.718 410.081 284.414 409.834 285.002C407.087 291.314 400.961 298.756 393.508 301.154C389.974 302.298 384.573 303.923 378.323 305.702C375.638 306.46 372.814 306.414 370.176 305.563Z" fill="#3D9BFF"/>
<path d="M395.205 297.595C311.321 325.922 285.52 307.388 285.52 307.388C279.873 256.196 300.689 210.155 300.689 210.155C306.831 220.319 313.79 238.048 313.79 238.048L315.627 277.298L315.488 278.381L315.426 278.891L315.071 281.568L315.056 281.614C315.241 281.645 315.411 281.691 315.596 281.722C340.964 287.091 387.366 281.088 387.366 281.088L395.205 297.595Z" fill="#9856F2"/>
<path d="M315.611 281.753C311.09 285.559 306.785 289.937 302.942 294.981C302.556 295.491 301.831 295.584 301.322 295.197C300.813 294.811 300.72 294.083 301.09 293.573C305.396 287.895 310.287 283.037 315.411 278.891L315.056 281.568L315.04 281.614C315.241 281.676 315.426 281.707 315.611 281.753Z" fill="#3D9BFF"/>
<path d="M387.381 281.119C387.381 281.119 396.67 259.97 410.79 261.858L415.049 277.143C407.318 280.438 406.191 293.712 395.22 297.595L387.381 281.119Z" fill="#FFA681"/>
<path d="M332.123 277.236C332.123 277.236 326.26 263.436 310.828 259.429C295.397 255.422 285.568 262.709 284.518 265.463C283.485 268.216 290.336 265.586 290.336 265.586C290.336 265.586 285.876 266.855 283.315 271.063C280.753 275.271 289.549 270.738 289.549 270.738C289.549 270.738 283.238 273.507 282.435 276.076C281.633 278.644 289.95 274.297 291.524 274.389C291.524 274.389 284.102 277.344 284.148 280.005C284.194 282.651 292.681 278.334 299.024 278.675C305.366 279.015 315.072 281.645 315.072 281.645C320.257 282.635 325.21 283.362 329.701 283.579L332.123 277.236Z" fill="#FFA681"/>
<path d="M481.157 62.6565C475.447 62.6565 470.803 57.9998 470.803 52.2757C470.803 46.5515 475.447 41.8948 481.157 41.8948C486.866 41.8948 491.511 46.5515 491.511 52.2757C491.511 57.9998 486.866 62.6565 481.157 62.6565ZM481.157 45.1436C477.237 45.1436 474.043 48.3461 474.043 52.2757C474.043 56.2052 477.237 59.4077 481.157 59.4077C485.076 59.4077 488.271 56.2052 488.271 52.2757C488.271 48.3461 485.076 45.1436 481.157 45.1436Z" fill="#9856F2"/>
<path d="M571.552 45.0199C565.842 45.0199 561.197 40.3632 561.197 34.6391C561.197 28.9149 565.842 24.2582 571.552 24.2582C577.261 24.2582 581.906 28.9149 581.906 34.6391C581.906 40.3632 577.261 45.0199 571.552 45.0199ZM571.552 27.507C567.632 27.507 564.438 30.7095 564.438 34.6391C564.438 38.5686 567.632 41.7711 571.552 41.7711C575.471 41.7711 578.665 38.5686 578.665 34.6391C578.65 30.694 575.471 27.507 571.552 27.507Z" fill="#9856F2"/>
<path d="M584.345 78.7616C583.45 78.7616 582.725 78.0345 582.725 77.1372V69.9588C582.725 69.0615 583.45 68.3344 584.345 68.3344C585.24 68.3344 585.965 69.0615 585.965 69.9588V77.1372C585.965 78.0345 585.24 78.7616 584.345 78.7616Z" fill="#9856F2"/>
<path d="M584.345 91.3394C583.45 91.3394 582.725 90.6123 582.725 89.715V82.5365C582.725 81.6392 583.45 80.9121 584.345 80.9121C585.24 80.9121 585.965 81.6392 585.965 82.5365V89.715C585.965 90.6123 585.24 91.3394 584.345 91.3394Z" fill="#9856F2"/>
<path d="M594.407 81.4691H587.972C587.077 81.4691 586.352 80.7419 586.352 79.8446C586.352 78.9473 587.077 78.2202 587.972 78.2202H594.407C595.302 78.2202 596.027 78.9473 596.027 79.8446C596.027 80.7419 595.302 81.4691 594.407 81.4691Z" fill="#9856F2"/>
<path d="M580.719 81.4691H574.284C573.389 81.4691 572.664 80.7419 572.664 79.8446C572.664 78.9473 573.389 78.2202 574.284 78.2202H580.719C581.614 78.2202 582.339 78.9473 582.339 79.8446C582.339 80.7419 581.63 81.4691 580.719 81.4691Z" fill="#9856F2"/>
<path d="M529.626 35.2425C528.731 35.2425 528.006 34.5153 528.006 33.618V26.4396C528.006 25.5423 528.731 24.8152 529.626 24.8152C530.521 24.8152 531.246 25.5423 531.246 26.4396V33.618C531.246 34.5153 530.521 35.2425 529.626 35.2425Z" fill="#9856F2"/>
<path d="M529.626 47.8202C528.731 47.8202 528.006 47.0931 528.006 46.1958V39.0174C528.006 38.1201 528.731 37.3929 529.626 37.3929C530.521 37.3929 531.246 38.1201 531.246 39.0174V46.1958C531.246 47.0931 530.521 47.8202 529.626 47.8202Z" fill="#9856F2"/>
<path d="M539.688 37.9344H533.253C532.358 37.9344 531.633 37.2073 531.633 36.31C531.633 35.4127 532.358 34.6855 533.253 34.6855H539.688C540.583 34.6855 541.308 35.4127 541.308 36.31C541.308 37.2073 540.583 37.9344 539.688 37.9344Z" fill="#9856F2"/>
<path d="M526 37.9344H519.566C518.671 37.9344 517.945 37.2073 517.945 36.31C517.945 35.4127 518.671 34.6855 519.566 34.6855H526C526.895 34.6855 527.621 35.4127 527.621 36.31C527.621 37.2073 526.895 37.9344 526 37.9344Z" fill="#9856F2"/>
<path d="M110.857 25.9135C110.857 20.1893 115.502 15.5326 121.212 15.5326C126.921 15.5326 131.566 20.1893 131.566 25.9135C131.566 31.6376 126.921 36.2943 121.212 36.2943C115.518 36.3098 110.857 31.6531 110.857 25.9135ZM114.113 25.9135C114.113 29.843 117.308 33.0455 121.227 33.0455C125.147 33.0455 128.341 29.843 128.341 25.9135C128.341 21.9839 125.147 18.7815 121.227 18.7815C117.308 18.7969 114.113 21.9839 114.113 25.9135Z" fill="#9856F2"/>
<path d="M69.2539 65.5032C69.2539 59.779 73.8987 55.1223 79.6082 55.1223C85.3177 55.1223 89.9624 59.779 89.9624 65.5032C89.9624 71.2274 85.3177 75.8841 79.6082 75.8841C73.8987 75.8995 69.2539 71.2428 69.2539 65.5032ZM72.5099 65.5032C72.5099 69.4328 75.7041 72.6352 79.6236 72.6352C83.5431 72.6352 86.7373 69.4328 86.7373 65.5032C86.7373 61.5736 83.5431 58.3712 79.6236 58.3712C75.7041 58.3712 72.5099 61.5736 72.5099 65.5032Z" fill="#9856F2"/>
<path d="M47.7121 80.0921C48.6071 80.0921 49.3323 79.365 49.3323 78.4677V71.2892C49.3323 70.3919 48.6071 69.6648 47.7121 69.6648C46.8171 69.6648 46.0918 70.3919 46.0918 71.2892V78.4677C46.0918 79.3495 46.8171 80.0921 47.7121 80.0921Z" fill="#9856F2"/>
<path d="M47.7121 92.6543C48.6071 92.6543 49.3323 91.9272 49.3323 91.0299V83.8515C49.3323 82.9542 48.6071 82.2271 47.7121 82.2271C46.8171 82.2271 46.0918 82.9542 46.0918 83.8515V91.0299C46.0918 91.9272 46.8171 92.6543 47.7121 92.6543Z" fill="#9856F2"/>
<path d="M37.6515 82.784H44.0863C44.9813 82.784 45.7065 82.0569 45.7065 81.1596C45.7065 80.2623 44.9813 79.5352 44.0863 79.5352H37.6515C36.7565 79.5352 36.0312 80.2623 36.0312 81.1596C36.0313 82.0569 36.7565 82.784 37.6515 82.784Z" fill="#9856F2"/>
<path d="M51.339 82.784H57.7738C58.6688 82.784 59.394 82.0569 59.394 81.1596C59.394 80.2623 58.6688 79.5352 57.7738 79.5352H51.339C50.444 79.5352 49.7188 80.2623 49.7188 81.1596C49.7187 82.0569 50.444 82.784 51.339 82.784Z" fill="#9856F2"/>
<path d="M85.1632 24.8615C86.0582 24.8615 86.7835 24.1344 86.7835 23.2371V16.0586C86.7835 15.1613 86.0582 14.4342 85.1632 14.4342C84.2682 14.4342 83.543 15.1613 83.543 16.0586V23.2371C83.543 24.1189 84.2682 24.8615 85.1632 24.8615Z" fill="#9856F2"/>
<path d="M85.1632 37.4237C86.0582 37.4237 86.7835 36.6966 86.7835 35.7993V28.6209C86.7835 27.7236 86.0582 26.9965 85.1632 26.9965C84.2682 26.9965 83.543 27.7236 83.543 28.6209V35.7993C83.543 36.6966 84.2682 37.4237 85.1632 37.4237Z" fill="#9856F2"/>
<path d="M75.1027 27.5534H81.5375C82.4325 27.5534 83.1577 26.8263 83.1577 25.929C83.1577 25.0317 82.4325 24.3046 81.5375 24.3046H75.1027C74.2077 24.3046 73.4824 25.0317 73.4824 25.929C73.4824 26.8263 74.2077 27.5534 75.1027 27.5534Z" fill="#9856F2"/>
<path d="M88.7904 27.5534H95.2252C96.1202 27.5534 96.8455 26.8263 96.8455 25.929C96.8455 25.0317 96.1202 24.3046 95.2252 24.3046H88.7904C87.8954 24.3046 87.1702 25.0317 87.1702 25.929C87.1547 26.8263 87.8954 27.5534 88.7904 27.5534Z" fill="#9856F2"/>
<path d="M394.988 26.6715C394.803 26.687 394.602 26.6715 394.417 26.5942C392.442 25.7587 391.285 25.372 391.285 25.372C390.683 25.1709 390.359 24.5211 390.559 23.9023C390.76 23.2989 391.408 22.974 392.025 23.1751C392.072 23.1906 393.26 23.5928 395.328 24.4592C395.914 24.7067 396.192 25.3875 395.945 25.9753C395.76 26.3621 395.389 26.6251 394.988 26.6715Z" fill="#BBE2F2"/>
<path d="M453.782 88.7094C454.569 90.8134 455.294 92.9793 455.973 95.1452C456.143 95.6867 456.652 96.0116 457.192 95.9497C457.269 95.9342 457.331 95.9342 457.408 95.9033C458.01 95.7176 458.365 95.0678 458.164 94.4645C457.485 92.2522 456.729 90.0398 455.942 87.9049C455.726 87.3015 455.063 87.0076 454.461 87.2242C453.875 87.4562 453.566 88.1215 453.782 88.7094Z" fill="#BBE2F2"/>
<path d="M457.779 101.705C458.304 103.871 458.782 106.114 459.199 108.357C459.307 108.96 459.862 109.363 460.449 109.301C460.48 109.301 460.51 109.301 460.541 109.285C461.174 109.162 461.575 108.558 461.467 107.939C461.05 105.665 460.557 103.376 460.017 101.163C459.862 100.544 459.245 100.158 458.628 100.312C457.995 100.452 457.625 101.086 457.779 101.705Z" fill="#BBE2F2"/>
<path d="M462.639 136.638C463.21 136.576 463.658 136.096 463.673 135.508C463.704 133.188 463.689 130.852 463.627 128.593C463.611 127.959 463.071 127.448 462.439 127.479C461.79 127.494 461.297 128.036 461.328 128.67C461.389 130.913 461.405 133.203 461.374 135.493C461.358 136.127 461.868 136.653 462.516 136.669C462.547 136.653 462.593 136.653 462.639 136.638Z" fill="#BBE2F2"/>
<path d="M461.234 113.787C460.601 113.865 460.154 114.453 460.247 115.087C460.385 116.139 460.509 117.191 460.617 118.227C460.74 119.419 460.848 120.641 460.956 121.863C461.003 122.497 461.558 122.977 462.191 122.931C462.206 122.931 462.206 122.931 462.222 122.931C462.839 122.869 463.302 122.312 463.256 121.693C463.163 120.455 463.04 119.218 462.916 117.995C462.808 116.943 462.685 115.86 462.546 114.793C462.469 114.174 461.898 113.725 461.28 113.787C461.265 113.772 461.25 113.772 461.234 113.787Z" fill="#BBE2F2"/>
<path d="M451.221 82.4281C451.437 82.8922 451.915 83.1552 452.394 83.1088C452.517 83.0933 452.625 83.0624 452.749 83.016C453.335 82.753 453.597 82.0723 453.335 81.4844C452.394 79.3804 451.375 77.2763 450.311 75.2497C450.017 74.6773 449.323 74.4607 448.752 74.7701C448.181 75.064 447.965 75.7602 448.274 76.3326C449.292 78.3129 450.295 80.3705 451.221 82.4281Z" fill="#BBE2F2"/>
<path d="M400.544 29.4563C402.519 30.4774 404.526 31.5758 406.485 32.7361C406.701 32.8753 406.948 32.9218 407.195 32.8908C407.55 32.8599 407.874 32.6588 408.075 32.3339C408.399 31.7769 408.214 31.0807 407.673 30.7559C405.667 29.5646 403.631 28.4352 401.609 27.3987C401.038 27.1048 400.344 27.3368 400.05 27.9092C399.757 28.4662 399.973 29.1624 400.544 29.4563Z" fill="#BBE2F2"/>
<path d="M417.735 40.3477C417.982 40.5334 418.275 40.6107 418.553 40.5798C418.861 40.5489 419.155 40.3942 419.355 40.1312C419.741 39.6206 419.648 38.8935 419.139 38.5067C417.318 37.1144 415.42 35.7529 413.522 34.4534C412.998 34.0976 412.272 34.2368 411.917 34.7628C411.562 35.2888 411.701 36.0159 412.226 36.3718C414.093 37.6404 415.945 38.9708 417.735 40.3477Z" fill="#BBE2F2"/>
<path d="M437.132 59.284C437.394 59.6089 437.78 59.7481 438.15 59.7172C438.366 59.7017 438.567 59.6089 438.752 59.4696C439.246 59.0674 439.323 58.3403 438.937 57.8452C437.502 56.0506 435.99 54.2715 434.447 52.5697C434.015 52.0901 433.289 52.0591 432.811 52.4923C432.333 52.9255 432.302 53.6526 432.734 54.1322C434.246 55.7876 435.727 57.5358 437.132 59.284Z" fill="#BBE2F2"/>
<path d="M428.012 49.2279C428.274 49.4754 428.614 49.5837 428.938 49.5528C429.2 49.5218 429.447 49.4135 429.648 49.2124C430.095 48.7483 430.08 48.0212 429.632 47.5725C427.997 45.979 426.268 44.401 424.525 42.8849C424.046 42.4672 423.306 42.5291 422.904 43.0087C422.488 43.4882 422.55 44.2154 423.028 44.6331C424.725 46.1183 426.407 47.6654 428.012 49.2279Z" fill="#BBE2F2"/>
<path d="M444.909 70.4073C445.156 70.7941 445.588 70.9952 446.02 70.9488C446.19 70.9333 446.344 70.8715 446.499 70.7786C447.039 70.4383 447.208 69.7266 446.884 69.1851C445.681 67.2204 444.415 65.271 443.088 63.3836C442.718 62.8576 442.008 62.7338 441.483 63.1051C440.959 63.4764 440.835 64.1881 441.206 64.7141C442.486 66.5706 443.736 68.489 444.909 70.4073Z" fill="#BBE2F2"/>
<path d="M394.958 18.7506L400.004 0L338.141 0.526006L394.958 18.7506Z" fill="#9856F2"/>
<path d="M338.141 0.526001L391.949 23.2835L392.103 23.3454L394.418 27.1821L394.958 18.7505L338.141 0.526001Z" fill="#3D9BFF"/>
<path d="M394.417 27.1821L389.402 26.3931L392.103 23.3453L394.417 27.1821Z" fill="#9856F2"/>
<path d="M385.329 20.4833L392.103 23.3454L378.153 39.0946L338.141 0.526001L385.329 20.4833Z" fill="#9856F2"/>
<path d="M679.478 512.051V513.18C679.478 519.694 674.2 524.985 667.704 524.985H56.7095C50.1976 524.985 44.9355 519.694 44.9355 513.18V512.051C44.9355 505.538 50.213 500.247 56.7095 500.247H667.704C674.2 500.247 679.478 505.538 679.478 512.051Z" fill="#9856F2"/>
<path d="M679.478 512.051V512.623H44.9355V512.051C44.9355 505.538 50.213 500.247 56.7095 500.247H667.704C674.2 500.247 679.478 505.538 679.478 512.051Z" fill="#3D9BFF"/>
<path d="M455.71 463.102H263.763C259.18 463.102 255.461 459.373 255.461 454.778V354.095C255.461 349.5 259.18 345.771 263.763 345.771H455.71C460.293 345.771 464.012 349.5 464.012 354.095V454.778C464.012 459.373 460.293 463.102 455.71 463.102Z" fill="#18315B"/>
<path d="M375.885 462.978H343.588V499.891H375.885V462.978Z" fill="#000B29"/>
<path d="M359.375 421.949C368.229 421.949 375.408 414.753 375.408 405.875C375.408 396.998 368.229 389.801 359.375 389.801C350.52 389.801 343.342 396.998 343.342 405.875C343.342 414.753 350.52 421.949 359.375 421.949Z" fill="#9856F2"/>
<path d="M400.883 499.891H317.57V497.075C317.57 491.398 322.169 486.787 327.832 486.787H390.637C396.3 486.787 400.898 491.398 400.898 497.075V499.891H400.883Z" fill="#18315B"/>
</g>
<defs>
<clipPath id="clip0_2448_1143">
<rect width="715" height="525" fill="white"/>
</clipPath>
</defs>
</svg>
