<svg width="852" height="748" viewBox="0 0 852 748" fill="none" xmlns="http://www.w3.org/2000/svg">
<g clip-path="url(#clip0_2449_1503)">
<path d="M852 0H0V751.542H852V0Z" fill="#FDF7FF"/>
<path d="M775.881 425.418H703.795V427.104H775.881V425.418Z" fill="black"/>
<path d="M683.518 425.418H611.432V427.104H683.518V425.418Z" fill="black"/>
<path d="M597.919 425.418H591.16V427.104H597.919V425.418Z" fill="black"/>
<path d="M629.215 401.597C629.215 514.64 537.426 606.22 424.174 606.22C310.943 606.22 219.119 514.64 219.119 401.597C219.119 288.688 310.943 197.08 424.174 197.08C537.426 197.08 629.215 288.688 629.215 401.597Z" fill="#9856F2" stroke="black" stroke-width="5" stroke-miterlimit="10"/>
<path d="M596.648 401.597C596.648 496.662 519.407 573.693 424.175 573.693C328.871 573.693 251.666 496.662 251.666 401.597C251.666 306.637 328.871 229.578 424.175 229.578C519.4 229.578 596.648 306.637 596.648 401.597Z" fill="white"/>
<path d="M559.003 401.597C559.003 475.922 498.646 536.116 424.174 536.116C349.752 536.116 289.395 475.922 289.395 401.597C289.395 327.385 349.752 267.19 424.174 267.19C498.646 267.19 559.003 327.385 559.003 401.597Z" fill="#9856F2" stroke="black" stroke-width="5" stroke-miterlimit="10"/>
<path d="M517.29 401.597C517.29 452.993 475.634 494.565 424.166 494.565C372.698 494.565 331 452.993 331 401.597C331 350.363 372.698 308.706 424.166 308.706C475.634 308.699 517.29 350.363 517.29 401.597Z" fill="white"/>
<path d="M470.651 401.597C470.651 427.224 449.827 447.993 424.175 447.993C398.508 447.993 377.727 427.224 377.727 401.597C377.727 376.054 398.508 355.307 424.175 355.307C449.827 355.307 470.651 376.054 470.651 401.597Z" fill="#9856F2"/>
<path d="M526.92 291.777L520.707 260.964L567.517 214.214L573.751 245.027L526.92 291.777Z" fill="#5663F2"/>
<path d="M533.281 298.052L564.188 304.314L610.962 257.592L580.113 251.373L533.281 298.052Z" fill="#5663F2"/>
<path d="M429.187 404.352C426.794 406.796 422.882 406.796 420.433 404.352C417.983 401.915 417.983 398.02 420.433 395.604L580.694 235.684C583.136 233.297 587.105 233.297 589.505 235.684C591.948 238.092 591.948 242.03 589.505 244.467L429.187 404.352Z" fill="black"/>
<g filter="url(#filter0_f_2449_1503)">
<path d="M626.623 368.872H601.837L585.613 393.366H425.16C421.781 393.366 418.976 396.157 419.04 399.557C419.04 402.985 421.781 405.755 425.16 405.726L585.613 405.755L601.893 430.277H626.623C626.623 430.277 629.214 415.48 629.214 400.378C629.214 385.241 626.623 368.872 626.623 368.872Z" fill="black" fill-opacity="0.2"/>
</g>
<path d="M326.379 592.308C326.379 625.848 299.13 653.027 265.525 653.027C231.9 653.027 204.664 625.848 204.664 592.308C204.664 558.804 231.907 531.618 265.525 531.618C299.122 531.618 326.379 558.804 326.379 592.308Z" fill="#9856F2" stroke="black" stroke-width="5" stroke-miterlimit="10"/>
<path d="M313.095 592.308C313.095 618.531 291.795 639.767 265.525 639.767C239.269 639.767 217.977 618.531 217.977 592.308C217.977 566.128 239.269 544.885 265.525 544.885C291.802 544.885 313.095 566.121 313.095 592.308Z" fill="white"/>
<path d="M298.384 592.308C298.384 610.442 283.687 625.111 265.525 625.111C247.371 625.111 232.652 610.442 232.652 592.308C232.652 574.232 247.364 559.534 265.525 559.534C283.68 559.534 298.384 574.232 298.384 592.308Z" fill="#9856F2"/>
<path d="M281.926 592.309C281.926 601.354 274.578 608.678 265.525 608.678C256.473 608.678 249.139 601.347 249.139 592.309C249.139 583.299 256.473 575.981 265.525 575.981C274.578 575.974 281.926 583.299 281.926 592.309Z" fill="white"/>
<path d="M297.19 560.738L294.996 549.865L311.511 533.368L313.712 544.241L297.19 560.738Z" fill="#F9A729" stroke="black" stroke-width="5" stroke-miterlimit="10" stroke-linejoin="round"/>
<path d="M297.701 560.355L308.6 562.565L325.107 546.075L314.216 543.88L297.701 560.355Z" fill="#F9A729" stroke="black" stroke-width="5" stroke-miterlimit="10" stroke-linejoin="round"/>
<path d="M267.293 593.279C266.448 594.143 265.071 594.143 264.204 593.279C263.338 592.422 263.338 591.048 264.204 590.198L320.749 533.779C321.608 532.929 323.007 532.929 323.859 533.779C324.718 534.629 324.718 536.017 323.859 536.874L267.293 593.279Z" fill="black"/>
<path d="M130.47 261.892C130.47 262.352 130.449 262.735 130.399 263.047C130.349 263.358 130.271 263.613 130.179 263.805C130.079 263.996 129.966 264.13 129.831 264.208C129.696 264.286 129.554 264.329 129.412 264.329H121.716V272.708C121.716 272.871 121.673 273.02 121.588 273.14C121.51 273.261 121.368 273.374 121.169 273.459C120.97 273.551 120.707 273.622 120.374 273.672C120.047 273.721 119.635 273.742 119.138 273.742C118.641 273.742 118.229 273.714 117.903 273.672C117.569 273.622 117.306 273.551 117.108 273.459C116.909 273.367 116.767 273.261 116.675 273.14C116.582 273.02 116.54 272.871 116.54 272.708V264.343H108.865C108.715 264.343 108.581 264.3 108.46 264.222C108.339 264.137 108.226 264.003 108.126 263.819C108.027 263.627 107.949 263.38 107.892 263.061C107.835 262.749 107.807 262.36 107.807 261.906C107.807 261.46 107.828 261.077 107.878 260.752C107.927 260.433 107.998 260.178 108.091 259.987C108.183 259.795 108.282 259.661 108.403 259.576C108.517 259.491 108.652 259.448 108.801 259.448H116.547V251.104C116.547 250.934 116.589 250.785 116.682 250.644C116.774 250.509 116.916 250.389 117.115 250.297C117.314 250.205 117.576 250.134 117.91 250.084C118.237 250.035 118.648 250.013 119.145 250.013C119.642 250.013 120.054 250.042 120.381 250.084C120.707 250.134 120.977 250.205 121.176 250.297C121.375 250.389 121.517 250.502 121.595 250.644C121.68 250.785 121.723 250.934 121.723 251.104V259.448H129.49C129.618 259.448 129.753 259.491 129.873 259.576C129.994 259.661 130.101 259.795 130.193 259.987C130.285 260.178 130.356 260.433 130.406 260.752C130.449 261.063 130.47 261.446 130.47 261.892Z" fill="#231F20"/>
<path d="M114.041 522.197C114.041 522.658 114.012 523.04 113.97 523.359C113.92 523.671 113.842 523.926 113.75 524.11C113.65 524.301 113.537 524.436 113.402 524.521C113.267 524.599 113.132 524.641 112.983 524.641H105.287V533.014C105.287 533.177 105.244 533.325 105.166 533.446C105.081 533.573 104.946 533.679 104.747 533.764C104.548 533.857 104.285 533.927 103.952 533.977C103.625 534.027 103.213 534.048 102.716 534.048C102.219 534.048 101.808 534.019 101.481 533.977C101.147 533.927 100.885 533.857 100.686 533.764C100.487 533.672 100.345 533.566 100.253 533.446C100.167 533.325 100.118 533.177 100.118 533.014V524.641H92.4427C92.2936 524.641 92.1587 524.599 92.038 524.521C91.9173 524.436 91.8037 524.301 91.7043 524.11C91.6049 523.919 91.5268 523.671 91.47 523.359C91.4132 523.047 91.3848 522.658 91.3848 522.197C91.3848 521.751 91.4061 521.369 91.4558 521.043C91.5055 520.724 91.5765 520.469 91.6688 520.278C91.7611 520.087 91.8605 519.952 91.9812 519.867C92.0948 519.782 92.2297 519.739 92.3788 519.739H100.125V511.395C100.125 511.232 100.167 511.077 100.26 510.935C100.352 510.8 100.494 510.68 100.693 510.588C100.892 510.496 101.154 510.425 101.488 510.375C101.815 510.326 102.226 510.304 102.723 510.304C103.22 510.304 103.632 510.333 103.959 510.375C104.293 510.425 104.555 510.496 104.754 510.588C104.953 510.68 105.095 510.793 105.173 510.935C105.258 511.077 105.294 511.225 105.294 511.395V519.739H113.068C113.196 519.739 113.324 519.782 113.452 519.867C113.572 519.945 113.686 520.087 113.771 520.278C113.863 520.469 113.934 520.724 113.984 521.043C114.012 521.369 114.041 521.751 114.041 522.197Z" fill="black"/>
<path d="M756.462 606.015H670.857V608.82H756.462V606.015Z" fill="black"/>
<path d="M727.175 597.026H670.857V599.831H727.175V597.026Z" fill="black"/>
<path d="M177.706 579.225H92.1016V582.037H177.706V579.225Z" fill="black"/>
<path d="M177.706 588.214H121.389V591.019H177.706V588.214Z" fill="black"/>
<path d="M582.938 585.99H554.857V588.795H582.938V585.99Z" fill="black"/>
<path d="M582.937 594.979H564.463V597.791H582.937V594.979Z" fill="black"/>
<path d="M660.037 231.157H655.309V269.889H660.037V231.157Z" fill="black"/>
<path d="M672.86 272.241H642.48C641.173 272.241 640.115 271.185 640.115 269.882C640.115 268.579 641.173 267.523 642.48 267.523H672.811C674.117 267.523 675.203 268.579 675.203 269.882C675.196 271.185 674.167 272.241 672.86 272.241Z" fill="black"/>
<path d="M692.683 272.078H622.648V291.855H692.683V272.078Z" fill="#9856F2"/>
<path d="M687.159 221.205L684.695 217.182C688.359 214.951 698.235 207.52 701.125 204.425C707.969 197.129 712.925 187.637 715.24 177.459H701.231V172.748H720.941L720.444 175.518C718.285 187.623 712.648 199.035 704.575 207.641C701.352 211.105 691.213 218.74 687.159 221.205Z" fill="black"/>
<path d="M628.18 221.205C624.133 218.733 613.994 211.105 610.756 207.641C602.676 199.035 597.039 187.623 594.888 175.518L594.391 172.748H614.1V177.459H600.092C602.407 187.637 607.355 197.122 614.207 204.418C617.104 207.513 626.98 214.944 630.643 217.175L628.18 221.205Z" fill="black"/>
<path d="M662.038 232.156H653.298C639.971 232.156 623.762 220.71 617.159 206.635L616.996 206.167C615.519 199.8 610.748 178.72 611.365 174.746L611.678 172.748H703.644L703.956 174.746C704.574 178.72 699.803 199.8 698.326 206.167L698.163 206.635C691.574 220.71 675.365 232.156 662.038 232.156ZM621.547 204.857C627.411 217.125 641.903 227.439 653.298 227.439H662.038C673.441 227.439 687.925 217.118 693.789 204.857C696.267 194.161 698.667 182.325 699.207 177.466H616.129C616.669 182.325 619.069 194.161 621.547 204.857Z" fill="black"/>
<path d="M103.369 322.717C105.563 319.048 108.467 315.761 112.053 313.098L112.003 313.126L110.079 304.562L118.215 300.666L123.711 307.516L123.654 307.544C127.964 306.425 132.359 306.198 136.597 306.801L141.312 299.42L149.81 302.395L148.852 311.079C152.537 313.246 155.853 316.165 158.522 319.699L167.056 317.787L170.968 325.911L164.131 331.366C165.253 335.665 165.459 340.043 164.855 344.286L172.239 348.946L169.257 357.446L160.553 356.49C158.38 360.166 155.469 363.474 151.905 366.138L153.808 374.638L145.678 378.533L140.225 371.733C135.916 372.838 131.507 373.044 127.268 372.435L122.561 379.823L114.055 376.841L115.027 368.135C111.343 365.968 108.048 363.042 105.379 359.515L96.8231 361.434L92.9181 353.31L99.7696 347.848C98.6691 343.563 98.4703 339.178 99.0738 334.957L91.6543 330.268L94.6363 321.768L103.369 322.717ZM143.058 334.291C140.112 328.171 132.756 325.607 126.622 328.539C120.487 331.486 117.903 338.803 120.85 344.923C123.796 351.043 131.152 353.628 137.279 350.696C143.42 347.763 146.012 340.411 143.058 334.291Z" fill="#9856F2" stroke="black" stroke-width="5" stroke-miterlimit="10" stroke-linejoin="round"/>
<path d="M103.37 322.717C103.377 322.738 103.355 322.746 103.355 322.746Z" fill="#9856F2"/>
<path d="M103.37 322.717C103.377 322.738 103.355 322.746 103.355 322.746" stroke="black" stroke-width="5" stroke-miterlimit="10" stroke-linecap="round" stroke-linejoin="round"/>
<path d="M103.37 322.717L94.6441 321.753L91.6621 330.253L99.0816 334.943C98.4781 339.164 98.6769 343.549 99.7774 347.834L92.9259 353.296L96.8309 361.42L105.386 359.501C108.056 363.028 111.35 365.953 115.035 368.121L114.063 376.826L122.568 379.808L127.276 372.421C131.514 373.03 135.923 372.824 140.233 371.719L145.686 378.519L153.816 374.623L151.913 366.123C155.477 363.46 158.388 360.152 160.561 356.476L169.265 357.432L172.247 348.932L164.863 344.271C165.467 340.028 165.261 335.651 164.139 331.351L170.976 325.897L167.064 317.773L158.53 319.685C155.86 316.151 152.545 313.239 148.86 311.065L149.811 302.388L141.312 299.413L136.598 306.793C132.359 306.191 127.964 306.411 123.655 307.537L123.712 307.509L118.216 300.659L110.079 304.555L112.004 313.119L112.053 313.091C108.468 315.754 105.564 319.048 103.37 322.717Z" fill="#9856F2" stroke="black" stroke-width="5" stroke-miterlimit="10" stroke-linecap="round" stroke-linejoin="round"/>
<path d="M120.856 344.93C117.91 338.81 120.494 331.486 126.629 328.546C132.763 325.614 140.112 328.171 143.065 334.298C146.012 340.418 143.427 347.771 137.293 350.71C131.158 353.636 123.803 351.05 120.856 344.93Z" fill="#9856F2" stroke="black" stroke-width="5" stroke-miterlimit="10"/>
<path d="M110.733 349.782C107.914 343.931 107.737 337.507 109.746 331.84C111.734 326.159 115.894 321.258 121.759 318.446" fill="#9856F2"/>
<path d="M110.733 349.782C107.914 343.931 107.737 337.507 109.746 331.84C111.734 326.159 115.894 321.258 121.759 318.446" stroke="black" stroke-width="5" stroke-miterlimit="10" stroke-linecap="round" stroke-linejoin="round"/>
<path d="M97.9023 432.515V438.175" stroke="black" stroke-width="5" stroke-miterlimit="10" stroke-linecap="round" stroke-linejoin="round"/>
<path d="M86.1875 435.653L89.0204 440.555" stroke="black" stroke-width="5" stroke-miterlimit="10" stroke-linecap="round" stroke-linejoin="round"/>
<path d="M77.6113 444.21L82.5174 447.036" stroke="black" stroke-width="5" stroke-miterlimit="10" stroke-linecap="round" stroke-linejoin="round"/>
<path d="M74.4727 455.905H80.1385" stroke="black" stroke-width="5" stroke-miterlimit="10" stroke-linecap="round" stroke-linejoin="round"/>
<path d="M77.6113 467.592L82.5174 464.759" stroke="black" stroke-width="5" stroke-miterlimit="10" stroke-linecap="round" stroke-linejoin="round"/>
<path d="M86.1875 476.149L89.0204 471.247" stroke="black" stroke-width="5" stroke-miterlimit="10" stroke-linecap="round" stroke-linejoin="round"/>
<path d="M97.9023 479.279V473.627" stroke="black" stroke-width="5" stroke-miterlimit="10" stroke-linecap="round" stroke-linejoin="round"/>
<path d="M109.624 476.149L106.791 471.247" stroke="black" stroke-width="5" stroke-miterlimit="10" stroke-linecap="round" stroke-linejoin="round"/>
<path d="M118.202 467.592L113.289 464.759" stroke="black" stroke-width="5" stroke-miterlimit="10" stroke-linecap="round" stroke-linejoin="round"/>
<path d="M121.339 455.905H115.666" stroke="black" stroke-width="5" stroke-miterlimit="10" stroke-linecap="round" stroke-linejoin="round"/>
<path d="M118.202 444.21L113.289 447.036" stroke="black" stroke-width="5" stroke-miterlimit="10" stroke-linecap="round" stroke-linejoin="round"/>
<path d="M109.624 435.653L106.791 440.555" stroke="black" stroke-width="5" stroke-miterlimit="10" stroke-linecap="round" stroke-linejoin="round"/>
<path d="M97.9025 442.715V455.904L90.0996 461.373" stroke="black" stroke-width="5" stroke-miterlimit="10" stroke-linecap="round" stroke-linejoin="round"/>
<path d="M99.5291 455.905C99.5291 456.797 98.7978 457.52 97.9032 457.52C97.0086 457.52 96.2773 456.797 96.2773 455.905C96.2773 455.005 97.0086 454.282 97.9032 454.282C98.8049 454.282 99.5291 455.005 99.5291 455.905Z" fill="black" stroke="black" stroke-width="5" stroke-miterlimit="10"/>
<path d="M138.115 156.768V258.598H143.043V161.691H228.853V267.219H153.274V272.142H233.781V156.768H138.115Z" fill="black"/>
<path d="M138.314 258.953L152.99 272.057L153.196 258.86L138.314 258.953Z" fill="#26BDCF"/>
<path d="M214.532 150.613H196.2C195.383 154.686 191.777 157.753 187.453 157.753C183.129 157.753 179.529 154.679 178.705 150.613H160.38C157.981 150.613 156.035 152.554 156.035 154.962V162.201H218.877V154.962C218.884 152.554 216.932 150.613 214.532 150.613Z" fill="#9856F2"/>
<path d="M187.453 139.953C182.532 139.953 178.535 143.94 178.535 148.856C178.535 149.458 178.599 150.046 178.713 150.613C179.536 154.686 183.136 157.753 187.46 157.753C191.784 157.753 195.383 154.679 196.207 150.613C196.321 150.046 196.385 149.458 196.385 148.856C196.377 143.94 192.38 139.953 187.453 139.953ZM187.453 152.667C185.983 152.667 184.719 151.824 184.087 150.613C183.81 150.082 183.64 149.487 183.64 148.856C183.64 146.745 185.344 145.038 187.453 145.038C189.569 145.038 191.273 146.745 191.273 148.856C191.273 149.494 191.095 150.089 190.825 150.613C190.193 151.831 188.93 152.667 187.453 152.667Z" fill="black"/>
<path d="M224.821 181.893H162.902V185.144H224.821V181.893Z" fill="black"/>
<path d="M224.821 209.015H162.902V212.259H224.821V209.015Z" fill="black"/>
<path d="M224.821 236.137H162.902V239.381H224.821V236.137Z" fill="black"/>
<path d="M153.011 190.676C152.6 190.676 152.216 190.506 151.932 190.216L149.49 187.659C148.922 187.064 148.95 186.129 149.539 185.562C150.136 184.995 151.08 185.017 151.641 185.612L152.919 186.95L157.236 181.702C157.754 181.064 158.691 180.972 159.33 181.496C159.969 182.013 160.055 182.948 159.536 183.586L154.154 190.138C153.885 190.471 153.487 190.662 153.061 190.676C153.047 190.676 153.026 190.676 153.011 190.676Z" fill="black"/>
<path d="M153.012 215.397C152.601 215.397 152.21 215.234 151.933 214.937L149.491 212.38C148.923 211.785 148.951 210.85 149.548 210.283C150.144 209.716 151.081 209.738 151.649 210.333L152.927 211.671L157.244 206.415C157.769 205.785 158.707 205.693 159.339 206.21C159.978 206.727 160.063 207.662 159.544 208.3L154.163 214.852C153.886 215.185 153.488 215.383 153.069 215.39C153.048 215.397 153.027 215.397 153.012 215.397Z" fill="black"/>
<path d="M153.011 240.125C152.6 240.125 152.216 239.962 151.932 239.665L149.49 237.115C148.922 236.527 148.95 235.585 149.539 235.018C150.136 234.451 151.08 234.48 151.641 235.068L152.919 236.413L157.236 231.158C157.754 230.52 158.691 230.428 159.33 230.952C159.969 231.469 160.055 232.411 159.536 233.035L154.154 239.587C153.885 239.92 153.487 240.111 153.061 240.132C153.047 240.125 153.026 240.125 153.011 240.125Z" fill="black"/>
<path d="M730.149 257.621C728.878 257.621 727.685 257.097 726.804 256.19L719.236 248.278C717.482 246.443 717.56 243.532 719.399 241.782C721.252 240.033 724.156 240.097 725.91 241.931L729.872 246.089L743.255 229.826C744.867 227.864 747.771 227.566 749.737 229.181C751.711 230.789 751.988 233.686 750.376 235.648L733.699 255.935C732.861 256.955 731.625 257.564 730.319 257.6C730.262 257.621 730.198 257.621 730.149 257.621Z" fill="#9856F2"/>
<path d="M149.625 388.521H77.5391V390.207H149.625V388.521Z" fill="black"/>
<path d="M241.989 388.521H169.902V390.207H241.989V388.521Z" fill="black"/>
<path d="M262.267 388.521H255.508V390.207H262.267V388.521Z" fill="black"/>
<path d="M266.371 413.121H194.285V414.807H266.371V413.121Z" fill="black"/>
<path d="M174.014 413.121H101.928V414.807H174.014V413.121Z" fill="black"/>
<path d="M88.4096 413.121H81.6504V414.807H88.4096V413.121Z" fill="black"/>
<path d="M645.774 314.734H611.701V316.419H645.774V314.734Z" fill="black"/>
<path d="M689.432 314.734H655.359V316.419H689.432V314.734Z" fill="black"/>
<path d="M699.025 314.734H695.83V316.419H699.025V314.734Z" fill="black"/>
<path d="M312.783 364.012H308.203V368.872H312.783V364.012Z" fill="black"/>
<path d="M301.941 364.012H297.361V368.872H301.941V364.012Z" fill="black"/>
<path d="M291.106 364.012H286.52V368.872H291.106V364.012Z" fill="black"/>
<path d="M280.257 364.012H275.678V368.872H280.257V364.012Z" fill="black"/>
<path d="M269.41 364.012H264.83V368.872H269.41V364.012Z" fill="black"/>
<path d="M258.581 364.012H253.994V368.872H258.581V364.012Z" fill="black"/>
<path d="M247.724 364.012H243.145V368.872H247.724V364.012Z" fill="black"/>
<path d="M236.89 364.012H232.311V368.872H236.89V364.012Z" fill="black"/>
<path d="M226.042 364.012H221.463V368.872H226.042V364.012Z" fill="black"/>
<path d="M215.201 364.012H210.621V368.872H215.201V364.012Z" fill="black"/>
<path d="M204.359 364.012H199.779V368.872H204.359V364.012Z" fill="black"/>
<path d="M193.517 364.012H188.938V368.872H193.517V364.012Z" fill="black"/>
<path d="M182.675 364.012H178.096V368.872H182.675V364.012Z" fill="black"/>
<path d="M522.907 627.123H518.32V631.975H522.907V627.123Z" fill="black"/>
<path d="M512.06 627.123H507.48V631.975H512.06V627.123Z" fill="black"/>
<path d="M501.223 627.123H496.637V631.975H501.223V627.123Z" fill="black"/>
<path d="M490.374 627.123H485.795V631.975H490.374V627.123Z" fill="black"/>
<path d="M479.535 627.123H474.955V631.975H479.535V627.123Z" fill="black"/>
<path d="M468.7 627.123H464.113V631.975H468.7V627.123Z" fill="black"/>
<path d="M457.849 627.123H453.27V631.975H457.849V627.123Z" fill="black"/>
<path d="M447.009 627.123H442.43V631.975H447.009V627.123Z" fill="black"/>
<path d="M436.167 627.123H431.588V631.975H436.167V627.123Z" fill="black"/>
<path d="M425.326 627.123H420.746V631.975H425.326V627.123Z" fill="black"/>
<path d="M414.484 627.123H409.904V631.975H414.484V627.123Z" fill="black"/>
<path d="M403.642 627.123H399.062V631.975H403.642V627.123Z" fill="black"/>
<path d="M392.8 627.123H388.221V631.975H392.8V627.123Z" fill="black"/>
<path d="M777.536 292.272H774.951V297.132H777.536V292.272Z" fill="black"/>
<path d="M771.423 292.272H768.846V297.132H771.423V292.272Z" fill="black"/>
<path d="M765.317 292.272H762.732V297.132H765.317V292.272Z" fill="black"/>
<path d="M759.204 292.272H756.619V297.132H759.204V292.272Z" fill="black"/>
<path d="M753.098 292.272H750.514V297.132H753.098V292.272Z" fill="black"/>
<path d="M746.993 292.272H744.408V297.132H746.993V292.272Z" fill="black"/>
<path d="M740.879 292.272H738.295V297.132H740.879V292.272Z" fill="black"/>
<path d="M734.765 292.272H732.188V297.132H734.765V292.272Z" fill="black"/>
<path d="M728.659 292.272H726.074V297.132H728.659V292.272Z" fill="black"/>
<path d="M722.547 292.272H719.963V297.132H722.547V292.272Z" fill="black"/>
<path d="M716.435 292.272H713.857V297.132H716.435V292.272Z" fill="black"/>
<path d="M710.319 292.272H707.742V297.132H710.319V292.272Z" fill="black"/>
<path d="M704.221 292.272H701.637V297.132H704.221V292.272Z" fill="black"/>
<path d="M661.223 473.025H658.639V477.877H661.223V473.025Z" fill="black"/>
<path d="M655.111 473.025H652.533V477.877H655.111V473.025Z" fill="black"/>
<path d="M649.004 473.025H646.42V477.877H649.004V473.025Z" fill="black"/>
<path d="M642.897 473.025H640.312V477.877H642.897V473.025Z" fill="black"/>
<path d="M636.786 473.025H634.201V477.877H636.786V473.025Z" fill="black"/>
<path d="M630.678 473.025H628.094V477.877H630.678V473.025Z" fill="black"/>
<path d="M624.567 473.025H621.982V477.877H624.567V473.025Z" fill="black"/>
<path d="M618.452 473.025H615.875V477.877H618.452V473.025Z" fill="black"/>
<path d="M612.346 473.025H609.762V477.877H612.346V473.025Z" fill="black"/>
<path d="M606.241 473.025H603.656V477.877H606.241V473.025Z" fill="black"/>
<path d="M600.128 473.025H597.551V477.877H600.128V473.025Z" fill="black"/>
<path d="M594.015 473.025H591.438V477.877H594.015V473.025Z" fill="black"/>
<path d="M587.909 473.025H585.324V477.877H587.909V473.025Z" fill="black"/>
<path d="M567.319 161.096H564.734V165.955H567.319V161.096Z" fill="black"/>
<path d="M561.206 161.096H558.629V165.955H561.206V161.096Z" fill="black"/>
<path d="M555.108 161.096H552.523V165.955H555.108V161.096Z" fill="black"/>
<path d="M548.993 161.096H546.408V165.955H548.993V161.096Z" fill="black"/>
<path d="M542.881 161.096H540.297V165.955H542.881V161.096Z" fill="black"/>
<path d="M536.776 161.096H534.191V165.955H536.776V161.096Z" fill="black"/>
<path d="M530.662 161.096H528.078V165.955H530.662V161.096Z" fill="black"/>
<path d="M524.548 161.096H521.971V165.955H524.548V161.096Z" fill="black"/>
<path d="M518.442 161.096H515.857V165.955H518.442V161.096Z" fill="black"/>
<path d="M512.336 161.096H509.752V165.955H512.336V161.096Z" fill="black"/>
<path d="M506.224 161.096H503.646V165.955H506.224V161.096Z" fill="black"/>
<path d="M500.111 161.096H497.533V165.955H500.111V161.096Z" fill="black"/>
<path d="M494.004 161.096H491.42V165.955H494.004V161.096Z" fill="black"/>
<path d="M388.158 180.299H383.969V185.158H388.158V180.299Z" fill="black"/>
<path d="M378.246 180.299H374.057V185.158H378.246V180.299Z" fill="black"/>
<path d="M368.326 180.299H364.137V185.158H368.326V180.299Z" fill="black"/>
<path d="M358.416 180.299H354.227V185.158H358.416V180.299Z" fill="black"/>
<path d="M348.503 180.299H344.314V185.158H348.503V180.299Z" fill="black"/>
<path d="M338.593 180.299H334.404V185.158H338.593V180.299Z" fill="black"/>
<path d="M328.68 180.299H324.484V185.158H328.68V180.299Z" fill="black"/>
<path d="M318.763 180.299H314.574V185.158H318.763V180.299Z" fill="black"/>
<path d="M308.849 180.299H304.66V185.158H308.849V180.299Z" fill="black"/>
<path d="M298.933 180.299H294.744V185.158H298.933V180.299Z" fill="black"/>
<path d="M289.027 180.299H284.838V185.158H289.027V180.299Z" fill="black"/>
<path d="M279.102 180.299H274.92V185.158H279.102V180.299Z" fill="black"/>
<path d="M269.197 180.299H265.008V185.158H269.197V180.299Z" fill="black"/>
<path d="M332.984 207.591H247.379V210.403H332.984V207.591Z" fill="black"/>
<path d="M303.696 198.603H247.379V201.408H303.696V198.603Z" fill="black"/>
<path d="M565.032 631.621C565.032 632.081 565.011 632.471 564.961 632.782C564.912 633.094 564.834 633.349 564.734 633.54C564.635 633.732 564.521 633.866 564.386 633.944C564.251 634.022 564.109 634.072 563.967 634.072H556.271V642.437C556.271 642.6 556.228 642.749 556.143 642.869C556.058 642.989 555.916 643.103 555.724 643.188C555.525 643.28 555.263 643.351 554.929 643.4C554.602 643.45 554.191 643.471 553.694 643.471C553.197 643.471 552.785 643.443 552.458 643.4C552.132 643.351 551.862 643.28 551.67 643.188C551.471 643.096 551.322 642.989 551.23 642.869C551.145 642.749 551.102 642.6 551.102 642.437V634.072H543.427C543.278 634.072 543.143 634.029 543.022 633.944C542.902 633.859 542.788 633.724 542.689 633.54C542.589 633.349 542.511 633.101 542.454 632.782C542.39 632.471 542.369 632.081 542.369 631.621C542.369 631.174 542.39 630.792 542.44 630.473C542.49 630.154 542.561 629.899 542.646 629.708C542.738 629.517 542.845 629.382 542.958 629.297C543.072 629.212 543.207 629.17 543.349 629.17H551.102V620.826C551.102 620.656 551.145 620.507 551.23 620.365C551.322 620.231 551.464 620.11 551.67 620.018C551.869 619.926 552.132 619.855 552.458 619.806C552.785 619.756 553.197 619.735 553.694 619.735C554.191 619.735 554.602 619.763 554.929 619.806C555.263 619.855 555.525 619.926 555.724 620.018C555.923 620.11 556.058 620.224 556.143 620.365C556.221 620.507 556.271 620.656 556.271 620.826V629.17H564.038C564.173 629.17 564.301 629.212 564.422 629.297C564.542 629.382 564.656 629.517 564.741 629.708C564.834 629.899 564.905 630.154 564.954 630.473C565.004 630.792 565.032 631.174 565.032 631.621Z" fill="black"/>
<path d="M554.759 195.047C554.759 195.507 554.738 195.897 554.688 196.208C554.638 196.52 554.56 196.775 554.461 196.966C554.361 197.158 554.248 197.292 554.113 197.37C553.978 197.448 553.843 197.49 553.694 197.49H545.998V205.856C545.998 206.019 545.955 206.168 545.877 206.288C545.792 206.415 545.65 206.522 545.458 206.607C545.259 206.699 544.996 206.77 544.663 206.819C544.336 206.869 543.924 206.89 543.427 206.89C542.93 206.89 542.519 206.862 542.192 206.819C541.865 206.77 541.595 206.699 541.404 206.607C541.205 206.515 541.056 206.408 540.964 206.288C540.871 206.168 540.829 206.019 540.829 205.856V197.49H533.154C533.012 197.49 532.87 197.448 532.749 197.37C532.621 197.285 532.515 197.15 532.415 196.966C532.316 196.775 532.238 196.527 532.181 196.208C532.124 195.897 532.096 195.507 532.096 195.047C532.096 194.6 532.124 194.218 532.167 193.892C532.216 193.573 532.287 193.318 532.373 193.127C532.465 192.936 532.571 192.801 532.685 192.716C532.799 192.631 532.926 192.589 533.076 192.589H540.822V184.245C540.822 184.075 540.864 183.926 540.956 183.784C541.049 183.65 541.191 183.529 541.397 183.437C541.596 183.345 541.858 183.274 542.185 183.225C542.511 183.175 542.923 183.154 543.42 183.154C543.917 183.154 544.329 183.182 544.656 183.225C544.989 183.274 545.252 183.345 545.451 183.437C545.65 183.529 545.792 183.643 545.87 183.784C545.948 183.926 545.99 184.075 545.99 184.245V192.589H553.758C553.893 192.589 554.02 192.631 554.141 192.716C554.262 192.801 554.376 192.936 554.461 193.127C554.553 193.318 554.624 193.573 554.674 193.892C554.73 194.218 554.759 194.6 554.759 195.047Z" fill="black"/>
<path d="M599.339 137.658C599.339 138.118 599.318 138.5 599.268 138.819C599.218 139.131 599.14 139.386 599.041 139.57C598.941 139.761 598.828 139.896 598.693 139.974C598.558 140.052 598.423 140.101 598.274 140.101H590.578V148.467C590.578 148.63 590.535 148.778 590.457 148.899C590.372 149.019 590.23 149.125 590.038 149.218C589.839 149.31 589.576 149.38 589.243 149.43C588.916 149.48 588.504 149.501 588.007 149.501C587.517 149.501 587.099 149.473 586.772 149.43C586.445 149.38 586.183 149.31 585.984 149.218C585.785 149.125 585.636 149.019 585.544 148.899C585.459 148.778 585.409 148.63 585.409 148.467V140.101H577.734C577.592 140.101 577.45 140.059 577.329 139.974C577.201 139.889 577.095 139.754 576.995 139.57C576.896 139.379 576.818 139.131 576.761 138.819C576.697 138.508 576.676 138.118 576.676 137.658C576.676 137.211 576.697 136.829 576.747 136.51C576.797 136.191 576.867 135.936 576.953 135.745C577.045 135.554 577.151 135.419 577.265 135.334C577.379 135.249 577.506 135.207 577.656 135.207H585.402V126.863C585.402 126.7 585.444 126.544 585.537 126.402C585.629 126.26 585.771 126.147 585.977 126.055C586.176 125.963 586.438 125.892 586.765 125.843C587.091 125.793 587.51 125.765 588 125.765C588.497 125.765 588.909 125.793 589.236 125.843C589.569 125.892 589.832 125.963 590.031 126.055C590.23 126.147 590.365 126.26 590.45 126.402C590.528 126.544 590.57 126.693 590.57 126.863V135.207H598.338C598.473 135.207 598.601 135.249 598.721 135.334C598.842 135.419 598.956 135.554 599.041 135.745C599.133 135.936 599.204 136.184 599.254 136.51C599.318 136.829 599.339 137.211 599.339 137.658Z" fill="black"/>
<path d="M456.743 121.755H394.064V181.241H409.372L405.907 201.5L421.307 181.241H456.743V121.755Z" fill="#9856F2"/>
<path d="M422.314 160.374C421.455 160.374 420.639 160.02 420.042 159.403L414.902 154.034C413.709 152.787 413.766 150.811 415.009 149.621C416.265 148.438 418.239 148.474 419.425 149.72L422.116 152.54L431.197 141.497C432.29 140.165 434.264 139.967 435.599 141.057C436.94 142.148 437.125 144.117 436.032 145.449L424.714 159.219C424.146 159.913 423.301 160.324 422.421 160.352C422.393 160.374 422.35 160.374 422.314 160.374Z" fill="white"/>
<path d="M138.045 487.376C137.846 488.799 137.498 490.181 137.009 491.491L136.938 528.615L161.184 541.776L161.262 499.977L138.045 487.376Z" fill="#9856F2" stroke="black" stroke-width="5" stroke-miterlimit="10" stroke-linejoin="bevel"/>
<path d="M161.262 499.977L137.016 486.816L175.952 481.284L200.078 494.537L161.262 499.977Z" fill="#9856F2"/>
<path d="M179.296 500.161C177.663 500.622 167.304 504.489 165.536 504.489L163.314 502.612C162.767 503.108 161.51 501.124 161.255 503.674L161.184 541.776L199.999 536.329L200.063 500.161H179.296Z" fill="#9856F2" stroke="black" stroke-width="5" stroke-miterlimit="10" stroke-linejoin="round"/>
<path d="M206.405 506.133L165.317 512.366L161.469 499.913L200.079 494.537L206.405 506.133Z" fill="#26BDCF"/>
<path d="M153.75 511.572L128.219 497.774L137.037 486.816L161.468 499.913L153.75 511.572Z" fill="#26BDCF"/>
<path d="M131.812 480.795L168.243 474.562L175.847 481.32L137.095 486.894L131.812 480.795Z" fill="#26BDCF"/>
<path d="M175.846 481.32L200.078 494.537L211.055 491.406L188.718 479.202L175.846 481.32Z" fill="#26BDCF"/>
<path d="M606.596 593.945H606.297C609.691 598.003 612.155 602.855 613.433 608.161H652.533C653.789 602.969 656.189 598.223 659.469 594.221C667.592 586.989 672.718 576.484 672.725 564.768C672.739 542.987 655.039 525.314 633.206 525.307C611.367 525.3 593.652 542.959 593.652 564.74C593.652 576.307 598.644 586.727 606.596 593.945Z" fill="#9856F2"/>
<path d="M606.106 564.492C605.041 564.492 604.146 563.67 604.089 562.587C603.628 554.745 605.744 548.009 610.195 543.15C614.668 538.263 621.172 535.557 629.003 535.316C630.132 535.288 631.062 536.152 631.091 537.271C631.119 538.383 630.246 539.318 629.131 539.346C622.415 539.559 616.912 541.818 613.185 545.877C609.485 549.922 607.739 555.624 608.129 562.36C608.2 563.465 607.341 564.428 606.219 564.492C606.184 564.492 606.148 564.492 606.106 564.492Z" fill="white"/>
<path d="M620.895 624.417L624.338 630.381L642.031 630.388L645.496 624.417H620.895Z" fill="black"/>
<path d="M615.947 608.614H650.446" stroke="black" stroke-width="5" stroke-miterlimit="10"/>
<path d="M615.947 619.601H650.446" stroke="black" stroke-width="5" stroke-miterlimit="10"/>
<path fill-rule="evenodd" clip-rule="evenodd" d="M514.012 109.253H535.241L524.392 136.553L514.012 109.253Z" fill="#9856F2" stroke="black" stroke-width="4" stroke-miterlimit="10" stroke-linecap="round" stroke-linejoin="bevel"/>
<path fill-rule="evenodd" clip-rule="evenodd" d="M534.765 108.977H513.543L524.392 96.2626L534.765 108.977Z" fill="#9856F2" stroke="black" stroke-width="4" stroke-miterlimit="10" stroke-linecap="round" stroke-linejoin="bevel"/>
<path fill-rule="evenodd" clip-rule="evenodd" d="M513.543 108.977H492.307L503.155 96.2626L513.543 108.977Z" fill="#9856F2" stroke="black" stroke-width="4" stroke-miterlimit="10" stroke-linecap="round" stroke-linejoin="bevel"/>
<path fill-rule="evenodd" clip-rule="evenodd" d="M555.995 108.977H534.766L545.622 96.2626L555.995 108.977Z" fill="#9856F2" stroke="black" stroke-width="4" stroke-miterlimit="10" stroke-linecap="round" stroke-linejoin="bevel"/>
<path fill-rule="evenodd" clip-rule="evenodd" d="M503.154 96.2626H524.39L513.542 108.977L503.154 96.2626Z" fill="#9856F2" stroke="black" stroke-width="4" stroke-miterlimit="10" stroke-linecap="round" stroke-linejoin="bevel"/>
<path fill-rule="evenodd" clip-rule="evenodd" d="M524.391 96.2626H545.62L534.764 108.977L524.391 96.2626Z" fill="#9856F2" stroke="black" stroke-width="4" stroke-miterlimit="10" stroke-linecap="round" stroke-linejoin="bevel"/>
<path fill-rule="evenodd" clip-rule="evenodd" d="M492.783 109.253H514.012L524.392 136.553L492.783 109.253Z" fill="#9856F2" stroke="black" stroke-width="4" stroke-miterlimit="10" stroke-linecap="round" stroke-linejoin="bevel"/>
<path fill-rule="evenodd" clip-rule="evenodd" d="M555.995 109.253H534.766L524.414 136.531L555.995 109.253Z" fill="#9856F2" stroke="black" stroke-width="4" stroke-miterlimit="10" stroke-linecap="round" stroke-linejoin="bevel"/>
<mask id="mask0_2449_1503" style="mask-type:luminance" maskUnits="userSpaceOnUse" x="683" y="435" width="23" height="81">
<path d="M683.063 435.859C683.034 436.248 683.027 451.421 683.027 451.818V500.388C683.027 508.647 688.061 515.334 694.26 515.334H694.437C700.635 515.334 705.669 508.64 705.669 500.388V437.028C705.669 436.631 705.655 436.248 705.634 435.859H683.063Z" fill="white"/>
</mask>
<g mask="url(#mask0_2449_1503)">
<path d="M731.968 483.7L668.004 442.723L671.341 433.507L735.305 474.484L731.968 483.7Z" fill="#9856F2"/>
<path d="M724.909 503.193L660.945 462.216L664.282 453L728.246 493.978L724.909 503.193Z" fill="#9856F2"/>
<path d="M717.86 522.679L653.889 481.702L657.226 472.494L721.197 513.471L717.86 522.679Z" fill="#9856F2"/>
</g>
<path d="M694.351 416.946C670.872 416.946 651.766 397.885 651.766 374.46C651.766 351.036 670.872 331.975 694.351 331.975C717.831 331.975 736.937 351.036 736.937 374.46C736.937 397.885 717.831 416.946 694.351 416.946ZM694.351 338.158C674.287 338.158 657.964 354.443 657.964 374.46C657.964 394.478 674.287 410.77 694.351 410.77C714.416 410.77 730.739 394.478 730.739 374.46C730.739 354.436 714.416 338.158 694.351 338.158Z" fill="black"/>
<path d="M698.221 414.467H690.475V435.767H698.221V414.467Z" fill="black"/>
<path d="M694.437 518.422H694.259C686.357 518.422 679.932 510.333 679.932 500.388V451.818C679.932 451.662 679.939 436.227 679.974 435.682L680.145 432.771H708.566L708.736 435.682C708.758 436.128 708.779 436.574 708.779 437.028V500.388C708.772 510.333 702.339 518.422 694.437 518.422ZM686.144 438.954C686.137 443.296 686.123 451.01 686.123 451.818V500.388C686.123 506.813 689.85 512.246 694.259 512.246H694.437C698.846 512.246 702.574 506.813 702.574 500.388V438.954H686.144Z" fill="black"/>
<path d="M723.462 374.461C723.462 390.497 710.427 403.502 694.352 403.502C678.278 403.502 665.242 390.497 665.242 374.461C665.242 358.417 678.278 345.419 694.352 345.419C710.427 345.419 723.462 358.417 723.462 374.461Z" fill="#9856F2"/>
<path d="M671.028 381.777C669.806 381.777 668.784 380.828 668.713 379.596C668.188 370.593 670.609 362.879 675.728 357.297C680.861 351.695 688.316 348.585 697.291 348.309C698.59 348.287 699.648 349.272 699.683 350.554C699.726 351.829 698.718 352.906 697.433 352.941C689.736 353.182 683.417 355.767 679.15 360.428C674.897 365.068 672.902 371.606 673.349 379.334C673.427 380.609 672.448 381.707 671.17 381.777C671.12 381.777 671.077 381.777 671.028 381.777Z" fill="white"/>
</g>
<defs>
<filter id="filter0_f_2449_1503" x="409.039" y="358.872" width="230.176" height="81.4054" filterUnits="userSpaceOnUse" color-interpolation-filters="sRGB">
<feFlood flood-opacity="0" result="BackgroundImageFix"/>
<feBlend mode="normal" in="SourceGraphic" in2="BackgroundImageFix" result="shape"/>
<feGaussianBlur stdDeviation="5" result="effect1_foregroundBlur_2449_1503"/>
</filter>
<clipPath id="clip0_2449_1503">
<rect width="852" height="748" fill="white"/>
</clipPath>
</defs>
</svg>
