<svg width="579" height="484" viewBox="0 0 579 484" fill="none" xmlns="http://www.w3.org/2000/svg">
<g filter="url(#filter0_d_2083_3574)">
<rect x="40" y="40" width="499" height="404" rx="15" fill="url(#paint0_linear_2083_3574)"/>
</g>
<rect x="54" y="51" width="471" height="382" rx="15" fill="white"/>
<path d="M92.16 128V124.67H97.65C98.63 124.67 99.39 124.37 99.93 123.77C100.49 123.17 100.77 122.46 100.77 121.64C100.77 121.08 100.65 120.57 100.41 120.11C100.17 119.65 99.81 119.29 99.33 119.03C98.87 118.75 98.31 118.61 97.65 118.61H92.16V115.31H97.2C98.04 115.31 98.71 115.1 99.21 114.68C99.73 114.26 99.99 113.63 99.99 112.79C99.99 111.93 99.73 111.29 99.21 110.87C98.71 110.45 98.04 110.24 97.2 110.24H92.16V106.91H97.68C99.08 106.91 100.25 107.17 101.19 107.69C102.15 108.19 102.87 108.86 103.35 109.7C103.83 110.52 104.07 111.42 104.07 112.4C104.07 113.6 103.7 114.64 102.96 115.52C102.24 116.38 101.18 117.02 99.78 117.44L99.96 116.12C101.52 116.56 102.72 117.29 103.56 118.31C104.42 119.31 104.85 120.52 104.85 121.94C104.85 123.06 104.57 124.08 104.01 125C103.47 125.9 102.67 126.63 101.61 127.19C100.57 127.73 99.3 128 97.8 128H92.16ZM89.16 128V106.91H93.21V128H89.16ZM113.846 128.3C112.566 128.3 111.426 128.03 110.426 127.49C109.446 126.95 108.676 126.2 108.116 125.24C107.556 124.28 107.276 123.17 107.276 121.91V113.51H111.236V121.82C111.236 122.42 111.336 122.94 111.536 123.38C111.736 123.8 112.036 124.12 112.436 124.34C112.836 124.56 113.306 124.67 113.846 124.67C114.666 124.67 115.306 124.42 115.766 123.92C116.226 123.42 116.456 122.72 116.456 121.82V113.51H120.386V121.91C120.386 123.19 120.106 124.31 119.546 125.27C119.006 126.23 118.236 126.98 117.236 127.52C116.256 128.04 115.126 128.3 113.846 128.3ZM123.515 128V106.31H127.445V128H123.515ZM140.168 128L134.558 120.53L140.138 113.51H144.668L138.128 121.43L138.278 119.51L144.968 128H140.168ZM130.928 128V106.31H134.858V128H130.928ZM155.846 128V124.37H161.216C162.576 124.37 163.766 124.09 164.786 123.53C165.806 122.95 166.596 122.14 167.156 121.1C167.736 120.06 168.026 118.83 168.026 117.41C168.026 116.03 167.736 114.83 167.156 113.81C166.576 112.77 165.776 111.97 164.756 111.41C163.736 110.83 162.556 110.54 161.216 110.54H155.756V106.91H161.276C162.836 106.91 164.276 107.17 165.596 107.69C166.936 108.21 168.096 108.95 169.076 109.91C170.076 110.85 170.846 111.96 171.386 113.24C171.946 114.52 172.226 115.92 172.226 117.44C172.226 118.96 171.946 120.37 171.386 121.67C170.846 122.95 170.086 124.07 169.106 125.03C168.126 125.97 166.966 126.7 165.626 127.22C164.306 127.74 162.876 128 161.336 128H155.846ZM153.056 128V106.91H157.136V128H153.056ZM181.859 128.3C180.399 128.3 179.079 127.97 177.899 127.31C176.739 126.63 175.809 125.72 175.109 124.58C174.429 123.42 174.089 122.13 174.089 120.71C174.089 119.29 174.429 118.02 175.109 116.9C175.789 115.76 176.719 114.86 177.899 114.2C179.079 113.52 180.389 113.18 181.829 113.18C183.309 113.18 184.629 113.52 185.789 114.2C186.969 114.86 187.899 115.76 188.579 116.9C189.259 118.02 189.599 119.29 189.599 120.71C189.599 122.13 189.259 123.42 188.579 124.58C187.899 125.72 186.969 126.63 185.789 127.31C184.629 127.97 183.319 128.3 181.859 128.3ZM181.829 124.64C182.569 124.64 183.219 124.48 183.779 124.16C184.359 123.82 184.799 123.36 185.099 122.78C185.419 122.18 185.579 121.5 185.579 120.74C185.579 119.98 185.419 119.31 185.099 118.73C184.779 118.15 184.339 117.7 183.779 117.38C183.219 117.04 182.569 116.87 181.829 116.87C181.109 116.87 180.469 117.04 179.909 117.38C179.349 117.7 178.909 118.15 178.589 118.73C178.269 119.31 178.109 119.98 178.109 120.74C178.109 121.5 178.269 122.18 178.589 122.78C178.909 123.36 179.349 123.82 179.909 124.16C180.469 124.48 181.109 124.64 181.829 124.64ZM192.129 128V113.51H196.059V128H192.129ZM201.579 128V119.45C201.579 118.61 201.309 117.96 200.769 117.5C200.249 117.02 199.599 116.78 198.819 116.78C198.299 116.78 197.829 116.89 197.409 117.11C196.989 117.31 196.659 117.61 196.419 118.01C196.179 118.41 196.059 118.89 196.059 119.45L194.529 118.7C194.529 117.58 194.769 116.61 195.249 115.79C195.749 114.97 196.419 114.34 197.259 113.9C198.099 113.44 199.049 113.21 200.109 113.21C201.109 113.21 202.019 113.44 202.839 113.9C203.659 114.34 204.309 114.97 204.789 115.79C205.269 116.59 205.509 117.56 205.509 118.7V128H201.579ZM211.029 128V119.45C211.029 118.61 210.759 117.96 210.219 117.5C209.699 117.02 209.049 116.78 208.269 116.78C207.769 116.78 207.299 116.89 206.859 117.11C206.439 117.31 206.109 117.61 205.869 118.01C205.629 118.41 205.509 118.89 205.509 119.45L203.259 118.91C203.339 117.75 203.649 116.75 204.189 115.91C204.729 115.05 205.439 114.39 206.319 113.93C207.199 113.45 208.179 113.21 209.259 113.21C210.339 113.21 211.309 113.44 212.169 113.9C213.029 114.34 213.709 114.98 214.209 115.82C214.709 116.66 214.959 117.66 214.959 118.82V128H211.029ZM224.204 128.3C222.884 128.3 221.694 127.97 220.634 127.31C219.574 126.65 218.744 125.75 218.144 124.61C217.544 123.47 217.244 122.19 217.244 120.77C217.244 119.33 217.544 118.04 218.144 116.9C218.744 115.76 219.574 114.86 220.634 114.2C221.694 113.54 222.884 113.21 224.204 113.21C225.244 113.21 226.174 113.42 226.994 113.84C227.814 114.26 228.464 114.85 228.944 115.61C229.444 116.35 229.714 117.19 229.754 118.13V123.35C229.714 124.31 229.444 125.16 228.944 125.9C228.464 126.64 227.814 127.23 226.994 127.67C226.174 128.09 225.244 128.3 224.204 128.3ZM224.924 124.67C226.024 124.67 226.914 124.31 227.594 123.59C228.274 122.85 228.614 121.9 228.614 120.74C228.614 119.98 228.454 119.31 228.134 118.73C227.834 118.13 227.404 117.67 226.844 117.35C226.304 117.01 225.664 116.84 224.924 116.84C224.204 116.84 223.564 117.01 223.004 117.35C222.464 117.67 222.034 118.13 221.714 118.73C221.414 119.31 221.264 119.98 221.264 120.74C221.264 121.52 221.414 122.21 221.714 122.81C222.034 123.39 222.464 123.85 223.004 124.19C223.564 124.51 224.204 124.67 224.924 124.67ZM228.404 128V124.1L229.034 120.56L228.404 117.08V113.51H232.304V128H228.404ZM235.781 128V113.51H239.741V128H235.781ZM237.761 111.17C237.121 111.17 236.591 110.96 236.171 110.54C235.751 110.1 235.541 109.56 235.541 108.92C235.541 108.3 235.751 107.77 236.171 107.33C236.591 106.89 237.121 106.67 237.761 106.67C238.421 106.67 238.951 106.89 239.351 107.33C239.771 107.77 239.981 108.3 239.981 108.92C239.981 109.56 239.771 110.1 239.351 110.54C238.951 110.96 238.421 111.17 237.761 111.17ZM252.972 128V119.69C252.972 118.83 252.702 118.13 252.162 117.59C251.622 117.05 250.922 116.78 250.062 116.78C249.502 116.78 249.002 116.9 248.562 117.14C248.122 117.38 247.772 117.72 247.512 118.16C247.272 118.6 247.152 119.11 247.152 119.69L245.622 118.91C245.622 117.77 245.862 116.78 246.342 115.94C246.842 115.08 247.522 114.41 248.382 113.93C249.262 113.45 250.252 113.21 251.352 113.21C252.412 113.21 253.362 113.48 254.202 114.02C255.042 114.54 255.702 115.23 256.182 116.09C256.662 116.93 256.902 117.84 256.902 118.82V128H252.972ZM243.222 128V113.51H247.152V128H243.222ZM272.468 128.3C270.768 128.3 269.308 128.01 268.088 127.43C266.888 126.85 265.798 125.98 264.818 124.82L267.518 122.12C268.138 122.94 268.858 123.58 269.678 124.04C270.498 124.48 271.498 124.7 272.678 124.7C273.738 124.7 274.578 124.49 275.198 124.07C275.838 123.65 276.158 123.07 276.158 122.33C276.158 121.69 275.978 121.17 275.618 120.77C275.258 120.37 274.778 120.03 274.178 119.75C273.598 119.47 272.948 119.22 272.228 119C271.528 118.76 270.818 118.49 270.098 118.19C269.398 117.89 268.748 117.52 268.147 117.08C267.568 116.62 267.098 116.04 266.738 115.34C266.378 114.62 266.198 113.72 266.198 112.64C266.198 111.36 266.508 110.27 267.128 109.37C267.748 108.47 268.598 107.78 269.678 107.3C270.758 106.82 271.978 106.58 273.338 106.58C274.778 106.58 276.078 106.85 277.238 107.39C278.398 107.93 279.348 108.63 280.088 109.49L277.388 112.19C276.768 111.51 276.128 111.01 275.468 110.69C274.828 110.37 274.098 110.21 273.278 110.21C272.338 110.21 271.598 110.39 271.058 110.75C270.518 111.11 270.248 111.63 270.248 112.31C270.248 112.89 270.428 113.36 270.788 113.72C271.148 114.08 271.618 114.39 272.198 114.65C272.798 114.91 273.448 115.16 274.148 115.4C274.868 115.64 275.578 115.91 276.278 116.21C276.998 116.51 277.648 116.9 278.228 117.38C278.828 117.86 279.308 118.48 279.668 119.24C280.028 119.98 280.208 120.9 280.208 122C280.208 123.96 279.518 125.5 278.138 126.62C276.758 127.74 274.868 128.3 272.468 128.3ZM289.82 128.3C288.3 128.3 286.95 127.98 285.77 127.34C284.59 126.68 283.65 125.78 282.95 124.64C282.27 123.5 281.93 122.2 281.93 120.74C281.93 119.3 282.26 118.02 282.92 116.9C283.6 115.76 284.52 114.86 285.68 114.2C286.84 113.52 288.13 113.18 289.55 113.18C290.95 113.18 292.18 113.5 293.24 114.14C294.32 114.76 295.16 115.62 295.76 116.72C296.38 117.8 296.69 119.03 296.69 120.41C296.69 120.67 296.67 120.94 296.63 121.22C296.61 121.48 296.56 121.78 296.48 122.12L284.3 122.15V119.21L294.65 119.18L293.06 120.41C293.02 119.55 292.86 118.83 292.58 118.25C292.32 117.67 291.93 117.23 291.41 116.93C290.91 116.61 290.29 116.45 289.55 116.45C288.77 116.45 288.09 116.63 287.51 116.99C286.93 117.33 286.48 117.82 286.16 118.46C285.86 119.08 285.71 119.82 285.71 120.68C285.71 121.56 285.87 122.33 286.19 122.99C286.53 123.63 287.01 124.13 287.63 124.49C288.25 124.83 288.97 125 289.79 125C290.53 125 291.2 124.88 291.8 124.64C292.4 124.38 292.92 124 293.36 123.5L295.67 125.81C294.97 126.63 294.11 127.25 293.09 127.67C292.09 128.09 291 128.3 289.82 128.3ZM305.181 128.3C303.861 128.3 302.671 127.97 301.611 127.31C300.551 126.65 299.721 125.75 299.121 124.61C298.521 123.47 298.221 122.19 298.221 120.77C298.221 119.33 298.521 118.04 299.121 116.9C299.721 115.76 300.551 114.86 301.611 114.2C302.671 113.54 303.861 113.21 305.181 113.21C306.221 113.21 307.151 113.42 307.971 113.84C308.791 114.26 309.441 114.85 309.921 115.61C310.421 116.35 310.691 117.19 310.731 118.13V123.35C310.691 124.31 310.421 125.16 309.921 125.9C309.441 126.64 308.791 127.23 307.971 127.67C307.151 128.09 306.221 128.3 305.181 128.3ZM305.901 124.67C307.001 124.67 307.891 124.31 308.571 123.59C309.251 122.85 309.591 121.9 309.591 120.74C309.591 119.98 309.431 119.31 309.111 118.73C308.811 118.13 308.381 117.67 307.821 117.35C307.281 117.01 306.641 116.84 305.901 116.84C305.181 116.84 304.541 117.01 303.981 117.35C303.441 117.67 303.011 118.13 302.691 118.73C302.391 119.31 302.241 119.98 302.241 120.74C302.241 121.52 302.391 122.21 302.691 122.81C303.011 123.39 303.441 123.85 303.981 124.19C304.541 124.51 305.181 124.67 305.901 124.67ZM309.381 128V124.1L310.011 120.56L309.381 117.08V113.51H313.281V128H309.381ZM316.758 128V113.51H320.688V128H316.758ZM320.688 119.99L319.158 118.97C319.338 117.19 319.858 115.79 320.718 114.77C321.578 113.73 322.818 113.21 324.438 113.21C325.138 113.21 325.768 113.33 326.328 113.57C326.888 113.79 327.398 114.16 327.858 114.68L325.398 117.5C325.178 117.26 324.908 117.08 324.588 116.96C324.288 116.84 323.938 116.78 323.538 116.78C322.698 116.78 322.008 117.05 321.468 117.59C320.948 118.11 320.688 118.91 320.688 119.99ZM335.668 128.3C334.188 128.3 332.858 127.97 331.678 127.31C330.498 126.65 329.568 125.75 328.888 124.61C328.208 123.47 327.868 122.19 327.868 120.77C327.868 119.33 328.208 118.04 328.888 116.9C329.568 115.76 330.498 114.86 331.678 114.2C332.878 113.52 334.208 113.18 335.668 113.18C336.808 113.18 337.858 113.39 338.818 113.81C339.778 114.23 340.608 114.83 341.308 115.61L338.788 118.16C338.408 117.74 337.948 117.42 337.408 117.2C336.888 116.98 336.308 116.87 335.668 116.87C334.948 116.87 334.298 117.04 333.718 117.38C333.158 117.7 332.708 118.15 332.368 118.73C332.048 119.29 331.888 119.96 331.888 120.74C331.888 121.5 332.048 122.18 332.368 122.78C332.708 123.36 333.158 123.82 333.718 124.16C334.298 124.48 334.948 124.64 335.668 124.64C336.328 124.64 336.918 124.53 337.438 124.31C337.978 124.07 338.438 123.73 338.818 123.29L341.368 125.84C340.628 126.64 339.778 127.25 338.818 127.67C337.858 128.09 336.808 128.3 335.668 128.3ZM353.344 128V119.69C353.344 118.83 353.074 118.13 352.534 117.59C351.994 117.05 351.294 116.78 350.434 116.78C349.874 116.78 349.374 116.9 348.934 117.14C348.494 117.38 348.144 117.72 347.884 118.16C347.644 118.6 347.524 119.11 347.524 119.69L345.994 118.91C345.994 117.77 346.234 116.78 346.714 115.94C347.194 115.08 347.854 114.41 348.694 113.93C349.554 113.45 350.534 113.21 351.634 113.21C352.734 113.21 353.704 113.45 354.544 113.93C355.404 114.41 356.074 115.07 356.554 115.91C357.034 116.75 357.274 117.72 357.274 118.82V128H353.344ZM343.594 128V106.31H347.524V128H343.594Z" fill="black"/>
<rect x="87.5" y="154.5" width="404" height="162" rx="5.5" stroke="#9856F2"/>
<path d="M116.72 183.2C115.773 183.2 114.92 182.987 114.16 182.56C113.4 182.12 112.8 181.527 112.36 180.78C111.92 180.033 111.7 179.187 111.7 178.24C111.7 177.307 111.913 176.467 112.34 175.72C112.78 174.973 113.367 174.387 114.1 173.96C114.847 173.52 115.68 173.3 116.6 173.3C117.48 173.3 118.253 173.5 118.92 173.9C119.6 174.3 120.127 174.853 120.5 175.56C120.887 176.267 121.08 177.067 121.08 177.96C121.08 178.093 121.073 178.24 121.06 178.4C121.047 178.547 121.02 178.72 120.98 178.92H112.96V177.42H120.02L119.36 178C119.36 177.36 119.247 176.82 119.02 176.38C118.793 175.927 118.473 175.58 118.06 175.34C117.647 175.087 117.147 174.96 116.56 174.96C115.947 174.96 115.407 175.093 114.94 175.36C114.473 175.627 114.113 176 113.86 176.48C113.607 176.96 113.48 177.527 113.48 178.18C113.48 178.847 113.613 179.433 113.88 179.94C114.147 180.433 114.527 180.82 115.02 181.1C115.513 181.367 116.08 181.5 116.72 181.5C117.253 181.5 117.74 181.407 118.18 181.22C118.633 181.033 119.02 180.753 119.34 180.38L120.5 181.56C120.047 182.093 119.487 182.5 118.82 182.78C118.167 183.06 117.467 183.2 116.72 183.2ZM128.99 183L126.03 178.84L125.69 178.52L121.95 173.5H124.13L126.83 177.2L127.17 177.48L131.17 183H128.99ZM121.77 183L125.69 177.72L126.71 179.04L123.89 183H121.77ZM127.31 178.5L126.27 177.22L128.89 173.5H130.99L127.31 178.5ZM136.935 183.2C135.988 183.2 135.135 182.987 134.375 182.56C133.615 182.12 133.015 181.527 132.575 180.78C132.135 180.033 131.915 179.187 131.915 178.24C131.915 177.307 132.128 176.467 132.555 175.72C132.995 174.973 133.582 174.387 134.315 173.96C135.062 173.52 135.895 173.3 136.815 173.3C137.695 173.3 138.468 173.5 139.135 173.9C139.815 174.3 140.342 174.853 140.715 175.56C141.102 176.267 141.295 177.067 141.295 177.96C141.295 178.093 141.288 178.24 141.275 178.4C141.262 178.547 141.235 178.72 141.195 178.92H133.175V177.42H140.235L139.575 178C139.575 177.36 139.462 176.82 139.235 176.38C139.008 175.927 138.688 175.58 138.275 175.34C137.862 175.087 137.362 174.96 136.775 174.96C136.162 174.96 135.622 175.093 135.155 175.36C134.688 175.627 134.328 176 134.075 176.48C133.822 176.96 133.695 177.527 133.695 178.18C133.695 178.847 133.828 179.433 134.095 179.94C134.362 180.433 134.742 180.82 135.235 181.1C135.728 181.367 136.295 181.5 136.935 181.5C137.468 181.5 137.955 181.407 138.395 181.22C138.848 181.033 139.235 180.753 139.555 180.38L140.715 181.56C140.262 182.093 139.702 182.5 139.035 182.78C138.382 183.06 137.682 183.2 136.935 183.2ZM143.257 183V168.72H145.058V183H143.257ZM147.691 183V168.72H149.491V183H147.691ZM152.145 183V173.5H153.945V183H152.145ZM153.045 171.6C152.711 171.6 152.438 171.493 152.225 171.28C152.011 171.053 151.905 170.773 151.905 170.44C151.905 170.12 152.011 169.853 152.225 169.64C152.438 169.413 152.711 169.3 153.045 169.3C153.378 169.3 153.651 169.413 153.865 169.64C154.078 169.853 154.185 170.12 154.185 170.44C154.185 170.773 154.078 171.053 153.865 171.28C153.651 171.493 153.378 171.6 153.045 171.6ZM160.417 183.2C159.644 183.2 158.944 183.027 158.317 182.68C157.704 182.32 157.224 181.827 156.877 181.2C156.531 180.573 156.357 179.847 156.357 179.02V173.5H158.157V178.94C158.157 179.46 158.244 179.913 158.417 180.3C158.604 180.673 158.871 180.96 159.217 181.16C159.564 181.36 159.971 181.46 160.437 181.46C161.144 181.46 161.697 181.24 162.097 180.8C162.497 180.347 162.697 179.727 162.697 178.94V173.5H164.497V179.02C164.497 179.847 164.324 180.573 163.977 181.2C163.631 181.827 163.151 182.32 162.537 182.68C161.937 183.027 161.231 183.2 160.417 183.2ZM169.93 183.2C169.397 183.2 168.89 183.133 168.41 183C167.943 182.853 167.51 182.653 167.11 182.4C166.71 182.133 166.363 181.82 166.07 181.46L167.23 180.3C167.577 180.727 167.977 181.047 168.43 181.26C168.883 181.46 169.39 181.56 169.95 181.56C170.51 181.56 170.943 181.467 171.25 181.28C171.557 181.08 171.71 180.807 171.71 180.46C171.71 180.113 171.583 179.847 171.33 179.66C171.09 179.46 170.777 179.3 170.39 179.18C170.003 179.047 169.59 178.92 169.15 178.8C168.723 178.667 168.317 178.5 167.93 178.3C167.543 178.1 167.223 177.827 166.97 177.48C166.73 177.133 166.61 176.673 166.61 176.1C166.61 175.527 166.75 175.033 167.03 174.62C167.31 174.193 167.697 173.867 168.19 173.64C168.697 173.413 169.303 173.3 170.01 173.3C170.757 173.3 171.417 173.433 171.99 173.7C172.577 173.953 173.057 174.34 173.43 174.86L172.27 176.02C172.003 175.673 171.67 175.407 171.27 175.22C170.883 175.033 170.443 174.94 169.95 174.94C169.43 174.94 169.03 175.033 168.75 175.22C168.483 175.393 168.35 175.64 168.35 175.96C168.35 176.28 168.47 176.527 168.71 176.7C168.95 176.873 169.263 177.02 169.65 177.14C170.05 177.26 170.463 177.387 170.89 177.52C171.317 177.64 171.723 177.807 172.11 178.02C172.497 178.233 172.81 178.52 173.05 178.88C173.303 179.24 173.43 179.713 173.43 180.3C173.43 181.193 173.11 181.9 172.47 182.42C171.843 182.94 170.997 183.2 169.93 183.2ZM177.025 183.2C176.652 183.2 176.338 183.073 176.085 182.82C175.845 182.553 175.725 182.24 175.725 181.88C175.725 181.507 175.845 181.2 176.085 180.96C176.338 180.707 176.652 180.58 177.025 180.58C177.398 180.58 177.705 180.707 177.945 180.96C178.198 181.2 178.325 181.507 178.325 181.88C178.325 182.24 178.198 182.553 177.945 182.82C177.705 183.073 177.398 183.2 177.025 183.2ZM185.195 183.2C184.262 183.2 183.415 182.98 182.655 182.54C181.908 182.1 181.315 181.507 180.875 180.76C180.448 180 180.235 179.16 180.235 178.24C180.235 177.307 180.448 176.467 180.875 175.72C181.315 174.973 181.908 174.387 182.655 173.96C183.415 173.52 184.262 173.3 185.195 173.3C185.928 173.3 186.608 173.44 187.235 173.72C187.862 173.987 188.402 174.38 188.855 174.9L187.655 176.1C187.362 175.753 187.002 175.493 186.575 175.32C186.162 175.133 185.702 175.04 185.195 175.04C184.595 175.04 184.062 175.18 183.595 175.46C183.128 175.727 182.762 176.1 182.495 176.58C182.228 177.06 182.095 177.613 182.095 178.24C182.095 178.867 182.228 179.42 182.495 179.9C182.762 180.38 183.128 180.76 183.595 181.04C184.062 181.32 184.595 181.46 185.195 181.46C185.702 181.46 186.162 181.373 186.575 181.2C187.002 181.013 187.368 180.747 187.675 180.4L188.855 181.6C188.415 182.107 187.875 182.5 187.235 182.78C186.608 183.06 185.928 183.2 185.195 183.2ZM194.785 183.2C193.852 183.2 193.012 182.98 192.265 182.54C191.518 182.1 190.925 181.507 190.485 180.76C190.045 180 189.825 179.153 189.825 178.22C189.825 177.3 190.045 176.473 190.485 175.74C190.925 174.993 191.518 174.4 192.265 173.96C193.012 173.52 193.852 173.3 194.785 173.3C195.705 173.3 196.538 173.52 197.285 173.96C198.045 174.387 198.645 174.973 199.085 175.72C199.525 176.467 199.745 177.3 199.745 178.22C199.745 179.153 199.525 180 199.085 180.76C198.645 181.507 198.045 182.1 197.285 182.54C196.538 182.98 195.705 183.2 194.785 183.2ZM194.785 181.46C195.385 181.46 195.918 181.32 196.385 181.04C196.852 180.76 197.218 180.38 197.485 179.9C197.752 179.407 197.885 178.847 197.885 178.22C197.885 177.607 197.745 177.06 197.465 176.58C197.198 176.1 196.832 175.727 196.365 175.46C195.912 175.18 195.385 175.04 194.785 175.04C194.185 175.04 193.652 175.18 193.185 175.46C192.718 175.727 192.352 176.1 192.085 176.58C191.818 177.06 191.685 177.607 191.685 178.22C191.685 178.847 191.818 179.407 192.085 179.9C192.352 180.38 192.718 180.76 193.185 181.04C193.652 181.32 194.185 181.46 194.785 181.46ZM201.773 183V173.5H203.573V183H201.773ZM208.193 183V177.26C208.193 176.553 207.973 176 207.533 175.6C207.106 175.187 206.566 174.98 205.913 174.98C205.473 174.98 205.08 175.073 204.733 175.26C204.386 175.447 204.106 175.707 203.893 176.04C203.68 176.373 203.573 176.773 203.573 177.24L202.833 176.88C202.833 176.16 202.986 175.533 203.293 175C203.613 174.467 204.046 174.053 204.593 173.76C205.14 173.453 205.753 173.3 206.433 173.3C207.1 173.3 207.7 173.447 208.233 173.74C208.78 174.033 209.206 174.447 209.513 174.98C209.833 175.513 209.993 176.147 209.993 176.88V183H208.193ZM214.613 183V177.26C214.613 176.553 214.393 176 213.953 175.6C213.526 175.187 212.993 174.98 212.353 174.98C211.913 174.98 211.513 175.073 211.153 175.26C210.806 175.447 210.526 175.707 210.313 176.04C210.1 176.373 209.993 176.773 209.993 177.24L208.973 176.88C209.013 176.147 209.206 175.52 209.553 175C209.913 174.467 210.373 174.053 210.933 173.76C211.493 173.453 212.106 173.3 212.773 173.3C213.466 173.3 214.086 173.447 214.633 173.74C215.18 174.033 215.613 174.447 215.933 174.98C216.266 175.513 216.433 176.153 216.433 176.9V183H214.613ZM115.34 208.2C114.807 208.2 114.3 208.133 113.82 208C113.353 207.853 112.92 207.653 112.52 207.4C112.12 207.133 111.773 206.82 111.48 206.46L112.64 205.3C112.987 205.727 113.387 206.047 113.84 206.26C114.293 206.46 114.8 206.56 115.36 206.56C115.92 206.56 116.353 206.467 116.66 206.28C116.967 206.08 117.12 205.807 117.12 205.46C117.12 205.113 116.993 204.847 116.74 204.66C116.5 204.46 116.187 204.3 115.8 204.18C115.413 204.047 115 203.92 114.56 203.8C114.133 203.667 113.727 203.5 113.34 203.3C112.953 203.1 112.633 202.827 112.38 202.48C112.14 202.133 112.02 201.673 112.02 201.1C112.02 200.527 112.16 200.033 112.44 199.62C112.72 199.193 113.107 198.867 113.6 198.64C114.107 198.413 114.713 198.3 115.42 198.3C116.167 198.3 116.827 198.433 117.4 198.7C117.987 198.953 118.467 199.34 118.84 199.86L117.68 201.02C117.413 200.673 117.08 200.407 116.68 200.22C116.293 200.033 115.853 199.94 115.36 199.94C114.84 199.94 114.44 200.033 114.16 200.22C113.893 200.393 113.76 200.64 113.76 200.96C113.76 201.28 113.88 201.527 114.12 201.7C114.36 201.873 114.673 202.02 115.06 202.14C115.46 202.26 115.873 202.387 116.3 202.52C116.727 202.64 117.133 202.807 117.52 203.02C117.907 203.233 118.22 203.52 118.46 203.88C118.713 204.24 118.84 204.713 118.84 205.3C118.84 206.193 118.52 206.9 117.88 207.42C117.253 207.94 116.407 208.2 115.34 208.2ZM124.675 208.2C123.902 208.2 123.202 208.027 122.575 207.68C121.962 207.32 121.482 206.827 121.135 206.2C120.788 205.573 120.615 204.847 120.615 204.02V198.5H122.415V203.94C122.415 204.46 122.502 204.913 122.675 205.3C122.862 205.673 123.128 205.96 123.475 206.16C123.822 206.36 124.228 206.46 124.695 206.46C125.402 206.46 125.955 206.24 126.355 205.8C126.755 205.347 126.955 204.727 126.955 203.94V198.5H128.755V204.02C128.755 204.847 128.582 205.573 128.235 206.2C127.888 206.827 127.408 207.32 126.795 207.68C126.195 208.027 125.488 208.2 124.675 208.2ZM131.168 208V198.5H132.968V208H131.168ZM137.588 208V202.26C137.588 201.553 137.368 201 136.928 200.6C136.501 200.187 135.961 199.98 135.308 199.98C134.868 199.98 134.474 200.073 134.128 200.26C133.781 200.447 133.501 200.707 133.288 201.04C133.074 201.373 132.968 201.773 132.968 202.24L132.228 201.88C132.228 201.16 132.381 200.533 132.688 200C133.008 199.467 133.441 199.053 133.988 198.76C134.534 198.453 135.148 198.3 135.828 198.3C136.494 198.3 137.094 198.447 137.628 198.74C138.174 199.033 138.601 199.447 138.908 199.98C139.228 200.513 139.388 201.147 139.388 201.88V208H137.588ZM144.008 208V202.26C144.008 201.553 143.788 201 143.348 200.6C142.921 200.187 142.388 199.98 141.748 199.98C141.308 199.98 140.908 200.073 140.548 200.26C140.201 200.447 139.921 200.707 139.708 201.04C139.494 201.373 139.388 201.773 139.388 202.24L138.368 201.88C138.408 201.147 138.601 200.52 138.948 200C139.308 199.467 139.768 199.053 140.328 198.76C140.888 198.453 141.501 198.3 142.168 198.3C142.861 198.3 143.481 198.447 144.028 198.74C144.574 199.033 145.008 199.447 145.328 199.98C145.661 200.513 145.828 201.153 145.828 201.9V208H144.008ZM148.277 208V198.5H150.077V208H148.277ZM154.697 208V202.26C154.697 201.553 154.477 201 154.037 200.6C153.61 200.187 153.07 199.98 152.417 199.98C151.977 199.98 151.584 200.073 151.237 200.26C150.89 200.447 150.61 200.707 150.397 201.04C150.184 201.373 150.077 201.773 150.077 202.24L149.337 201.88C149.337 201.16 149.49 200.533 149.797 200C150.117 199.467 150.55 199.053 151.097 198.76C151.644 198.453 152.257 198.3 152.937 198.3C153.604 198.3 154.204 198.447 154.737 198.74C155.284 199.033 155.71 199.447 156.017 199.98C156.337 200.513 156.497 201.147 156.497 201.88V208H154.697ZM161.117 208V202.26C161.117 201.553 160.897 201 160.457 200.6C160.03 200.187 159.497 199.98 158.857 199.98C158.417 199.98 158.017 200.073 157.657 200.26C157.31 200.447 157.03 200.707 156.817 201.04C156.604 201.373 156.497 201.773 156.497 202.24L155.477 201.88C155.517 201.147 155.71 200.52 156.057 200C156.417 199.467 156.877 199.053 157.437 198.76C157.997 198.453 158.61 198.3 159.277 198.3C159.97 198.3 160.59 198.447 161.137 198.74C161.684 199.033 162.117 199.447 162.437 199.98C162.77 200.513 162.937 201.153 162.937 201.9V208H161.117ZM165.406 208V198.5H167.206V208H165.406ZM166.306 196.6C165.973 196.6 165.7 196.493 165.486 196.28C165.273 196.053 165.166 195.773 165.166 195.44C165.166 195.12 165.273 194.853 165.486 194.64C165.7 194.413 165.973 194.3 166.306 194.3C166.64 194.3 166.913 194.413 167.126 194.64C167.34 194.853 167.446 195.12 167.446 195.44C167.446 195.773 167.34 196.053 167.126 196.28C166.913 196.493 166.64 196.6 166.306 196.6ZM171.319 208V194.52H173.119V208H171.319ZM168.979 200.14V198.5H175.459V200.14H168.979ZM176.832 203.76V202.06H183.412V203.76H176.832ZM189.07 208.2C188.537 208.2 188.03 208.133 187.55 208C187.084 207.853 186.65 207.653 186.25 207.4C185.85 207.133 185.504 206.82 185.21 206.46L186.37 205.3C186.717 205.727 187.117 206.047 187.57 206.26C188.024 206.46 188.53 206.56 189.09 206.56C189.65 206.56 190.084 206.467 190.39 206.28C190.697 206.08 190.85 205.807 190.85 205.46C190.85 205.113 190.724 204.847 190.47 204.66C190.23 204.46 189.917 204.3 189.53 204.18C189.144 204.047 188.73 203.92 188.29 203.8C187.864 203.667 187.457 203.5 187.07 203.3C186.684 203.1 186.364 202.827 186.11 202.48C185.87 202.133 185.75 201.673 185.75 201.1C185.75 200.527 185.89 200.033 186.17 199.62C186.45 199.193 186.837 198.867 187.33 198.64C187.837 198.413 188.444 198.3 189.15 198.3C189.897 198.3 190.557 198.433 191.13 198.7C191.717 198.953 192.197 199.34 192.57 199.86L191.41 201.02C191.144 200.673 190.81 200.407 190.41 200.22C190.024 200.033 189.584 199.94 189.09 199.94C188.57 199.94 188.17 200.033 187.89 200.22C187.624 200.393 187.49 200.64 187.49 200.96C187.49 201.28 187.61 201.527 187.85 201.7C188.09 201.873 188.404 202.02 188.79 202.14C189.19 202.26 189.604 202.387 190.03 202.52C190.457 202.64 190.864 202.807 191.25 203.02C191.637 203.233 191.95 203.52 192.19 203.88C192.444 204.24 192.57 204.713 192.57 205.3C192.57 206.193 192.25 206.9 191.61 207.42C190.984 207.94 190.137 208.2 189.07 208.2ZM198.926 208.2C197.992 208.2 197.152 207.98 196.406 207.54C195.659 207.1 195.066 206.507 194.626 205.76C194.186 205 193.966 204.153 193.966 203.22C193.966 202.3 194.186 201.473 194.626 200.74C195.066 199.993 195.659 199.4 196.406 198.96C197.152 198.52 197.992 198.3 198.926 198.3C199.846 198.3 200.679 198.52 201.426 198.96C202.186 199.387 202.786 199.973 203.226 200.72C203.666 201.467 203.886 202.3 203.886 203.22C203.886 204.153 203.666 205 203.226 205.76C202.786 206.507 202.186 207.1 201.426 207.54C200.679 207.98 199.846 208.2 198.926 208.2ZM198.926 206.46C199.526 206.46 200.059 206.32 200.526 206.04C200.992 205.76 201.359 205.38 201.626 204.9C201.892 204.407 202.026 203.847 202.026 203.22C202.026 202.607 201.886 202.06 201.606 201.58C201.339 201.1 200.972 200.727 200.506 200.46C200.052 200.18 199.526 200.04 198.926 200.04C198.326 200.04 197.792 200.18 197.326 200.46C196.859 200.727 196.492 201.1 196.226 201.58C195.959 202.06 195.826 202.607 195.826 203.22C195.826 203.847 195.959 204.407 196.226 204.9C196.492 205.38 196.859 205.76 197.326 206.04C197.792 206.32 198.326 206.46 198.926 206.46ZM205.914 208V193.72H207.714V208H205.914ZM214.167 208.2C213.394 208.2 212.694 208.027 212.067 207.68C211.454 207.32 210.974 206.827 210.627 206.2C210.281 205.573 210.107 204.847 210.107 204.02V198.5H211.907V203.94C211.907 204.46 211.994 204.913 212.167 205.3C212.354 205.673 212.621 205.96 212.967 206.16C213.314 206.36 213.721 206.46 214.187 206.46C214.894 206.46 215.447 206.24 215.847 205.8C216.247 205.347 216.447 204.727 216.447 203.94V198.5H218.247V204.02C218.247 204.847 218.074 205.573 217.727 206.2C217.381 206.827 216.901 207.32 216.287 207.68C215.687 208.027 214.981 208.2 214.167 208.2ZM222.12 208V194.52H223.92V208H222.12ZM219.78 200.14V198.5H226.26V200.14H219.78ZM228.043 208V198.5H229.843V208H228.043ZM228.943 196.6C228.61 196.6 228.336 196.493 228.123 196.28C227.91 196.053 227.803 195.773 227.803 195.44C227.803 195.12 227.91 194.853 228.123 194.64C228.336 194.413 228.61 194.3 228.943 194.3C229.276 194.3 229.55 194.413 229.763 194.64C229.976 194.853 230.083 195.12 230.083 195.44C230.083 195.773 229.976 196.053 229.763 196.28C229.55 196.493 229.276 196.6 228.943 196.6ZM236.836 208.2C235.902 208.2 235.062 207.98 234.316 207.54C233.569 207.1 232.976 206.507 232.536 205.76C232.096 205 231.876 204.153 231.876 203.22C231.876 202.3 232.096 201.473 232.536 200.74C232.976 199.993 233.569 199.4 234.316 198.96C235.062 198.52 235.902 198.3 236.836 198.3C237.756 198.3 238.589 198.52 239.336 198.96C240.096 199.387 240.696 199.973 241.136 200.72C241.576 201.467 241.796 202.3 241.796 203.22C241.796 204.153 241.576 205 241.136 205.76C240.696 206.507 240.096 207.1 239.336 207.54C238.589 207.98 237.756 208.2 236.836 208.2ZM236.836 206.46C237.436 206.46 237.969 206.32 238.436 206.04C238.902 205.76 239.269 205.38 239.536 204.9C239.802 204.407 239.936 203.847 239.936 203.22C239.936 202.607 239.796 202.06 239.516 201.58C239.249 201.1 238.882 200.727 238.416 200.46C237.962 200.18 237.436 200.04 236.836 200.04C236.236 200.04 235.702 200.18 235.236 200.46C234.769 200.727 234.402 201.1 234.136 201.58C233.869 202.06 233.736 202.607 233.736 203.22C233.736 203.847 233.869 204.407 234.136 204.9C234.402 205.38 234.769 205.76 235.236 206.04C235.702 206.32 236.236 206.46 236.836 206.46ZM250.544 208V202.46C250.544 201.74 250.317 201.147 249.864 200.68C249.411 200.213 248.824 199.98 248.104 199.98C247.624 199.98 247.197 200.087 246.824 200.3C246.451 200.513 246.157 200.807 245.944 201.18C245.731 201.553 245.624 201.98 245.624 202.46L244.884 202.04C244.884 201.32 245.044 200.68 245.364 200.12C245.684 199.56 246.131 199.12 246.704 198.8C247.277 198.467 247.924 198.3 248.644 198.3C249.364 198.3 249.997 198.48 250.544 198.84C251.104 199.2 251.544 199.673 251.864 200.26C252.184 200.833 252.344 201.447 252.344 202.1V208H250.544ZM243.824 208V198.5H245.624V208H243.824ZM257.801 208.2C257.268 208.2 256.761 208.133 256.281 208C255.814 207.853 255.381 207.653 254.981 207.4C254.581 207.133 254.234 206.82 253.941 206.46L255.101 205.3C255.448 205.727 255.848 206.047 256.301 206.26C256.754 206.46 257.261 206.56 257.821 206.56C258.381 206.56 258.814 206.467 259.121 206.28C259.428 206.08 259.581 205.807 259.581 205.46C259.581 205.113 259.454 204.847 259.201 204.66C258.961 204.46 258.648 204.3 258.261 204.18C257.874 204.047 257.461 203.92 257.021 203.8C256.594 203.667 256.188 203.5 255.801 203.3C255.414 203.1 255.094 202.827 254.841 202.48C254.601 202.133 254.481 201.673 254.481 201.1C254.481 200.527 254.621 200.033 254.901 199.62C255.181 199.193 255.568 198.867 256.061 198.64C256.568 198.413 257.174 198.3 257.881 198.3C258.628 198.3 259.288 198.433 259.861 198.7C260.448 198.953 260.928 199.34 261.301 199.86L260.141 201.02C259.874 200.673 259.541 200.407 259.141 200.22C258.754 200.033 258.314 199.94 257.821 199.94C257.301 199.94 256.901 200.033 256.621 200.22C256.354 200.393 256.221 200.64 256.221 200.96C256.221 201.28 256.341 201.527 256.581 201.7C256.821 201.873 257.134 202.02 257.521 202.14C257.921 202.26 258.334 202.387 258.761 202.52C259.188 202.64 259.594 202.807 259.981 203.02C260.368 203.233 260.681 203.52 260.921 203.88C261.174 204.24 261.301 204.713 261.301 205.3C261.301 206.193 260.981 206.9 260.341 207.42C259.714 207.94 258.868 208.2 257.801 208.2ZM264.896 208.2C264.523 208.2 264.209 208.073 263.956 207.82C263.716 207.553 263.596 207.24 263.596 206.88C263.596 206.507 263.716 206.2 263.956 205.96C264.209 205.707 264.523 205.58 264.896 205.58C265.269 205.58 265.576 205.707 265.816 205.96C266.069 206.2 266.196 206.507 266.196 206.88C266.196 207.24 266.069 207.553 265.816 207.82C265.576 208.073 265.269 208.2 264.896 208.2ZM273.066 208.2C272.133 208.2 271.293 207.98 270.546 207.54C269.8 207.1 269.206 206.507 268.766 205.76C268.326 205 268.106 204.153 268.106 203.22C268.106 202.3 268.326 201.473 268.766 200.74C269.206 199.993 269.8 199.4 270.546 198.96C271.293 198.52 272.133 198.3 273.066 198.3C273.986 198.3 274.82 198.52 275.566 198.96C276.326 199.387 276.926 199.973 277.366 200.72C277.806 201.467 278.026 202.3 278.026 203.22C278.026 204.153 277.806 205 277.366 205.76C276.926 206.507 276.326 207.1 275.566 207.54C274.82 207.98 273.986 208.2 273.066 208.2ZM273.066 206.46C273.666 206.46 274.2 206.32 274.666 206.04C275.133 205.76 275.5 205.38 275.766 204.9C276.033 204.407 276.166 203.847 276.166 203.22C276.166 202.607 276.026 202.06 275.746 201.58C275.48 201.1 275.113 200.727 274.646 200.46C274.193 200.18 273.666 200.04 273.066 200.04C272.466 200.04 271.933 200.18 271.466 200.46C271 200.727 270.633 201.1 270.366 201.58C270.1 202.06 269.966 202.607 269.966 203.22C269.966 203.847 270.1 204.407 270.366 204.9C270.633 205.38 271 205.76 271.466 206.04C271.933 206.32 272.466 206.46 273.066 206.46ZM280.074 208V198.5H281.874V208H280.074ZM280.974 196.6C280.641 196.6 280.368 196.493 280.154 196.28C279.941 196.053 279.834 195.773 279.834 195.44C279.834 195.12 279.941 194.853 280.154 194.64C280.368 194.413 280.641 194.3 280.974 194.3C281.308 194.3 281.581 194.413 281.794 194.64C282.008 194.853 282.114 195.12 282.114 195.44C282.114 195.773 282.008 196.053 281.794 196.28C281.581 196.493 281.308 196.6 280.974 196.6ZM115.04 233L111.28 223.5H113.16L115.88 230.9H115.28L117.98 223.5H119.02L121.72 230.9H121.12L123.84 223.5H125.72L121.98 233H120.92L118.18 225.82H118.84L116.08 233H115.04ZM127.184 233V223.5H128.984V233H127.184ZM128.084 221.6C127.75 221.6 127.477 221.493 127.264 221.28C127.05 221.053 126.944 220.773 126.944 220.44C126.944 220.12 127.05 219.853 127.264 219.64C127.477 219.413 127.75 219.3 128.084 219.3C128.417 219.3 128.69 219.413 128.904 219.64C129.117 219.853 129.224 220.12 129.224 220.44C129.224 220.773 129.117 221.053 128.904 221.28C128.69 221.493 128.417 221.6 128.084 221.6ZM131.636 233V218.72H133.436V233H131.636ZM140.41 233.2C139.477 233.2 138.63 232.98 137.87 232.54C137.123 232.1 136.53 231.507 136.09 230.76C135.663 230 135.45 229.16 135.45 228.24C135.45 227.307 135.663 226.467 136.09 225.72C136.53 224.973 137.123 224.387 137.87 223.96C138.63 223.52 139.477 223.3 140.41 223.3C141.143 223.3 141.823 223.44 142.45 223.72C143.077 223.987 143.617 224.38 144.07 224.9L142.87 226.1C142.577 225.753 142.217 225.493 141.79 225.32C141.377 225.133 140.917 225.04 140.41 225.04C139.81 225.04 139.277 225.18 138.81 225.46C138.343 225.727 137.977 226.1 137.71 226.58C137.443 227.06 137.31 227.613 137.31 228.24C137.31 228.867 137.443 229.42 137.71 229.9C137.977 230.38 138.343 230.76 138.81 231.04C139.277 231.32 139.81 231.46 140.41 231.46C140.917 231.46 141.377 231.373 141.79 231.2C142.217 231.013 142.583 230.747 142.89 230.4L144.07 231.6C143.63 232.107 143.09 232.5 142.45 232.78C141.823 233.06 141.143 233.2 140.41 233.2ZM150 233.2C149.067 233.2 148.227 232.98 147.48 232.54C146.733 232.1 146.14 231.507 145.7 230.76C145.26 230 145.04 229.153 145.04 228.22C145.04 227.3 145.26 226.473 145.7 225.74C146.14 224.993 146.733 224.4 147.48 223.96C148.227 223.52 149.067 223.3 150 223.3C150.92 223.3 151.753 223.52 152.5 223.96C153.26 224.387 153.86 224.973 154.3 225.72C154.74 226.467 154.96 227.3 154.96 228.22C154.96 229.153 154.74 230 154.3 230.76C153.86 231.507 153.26 232.1 152.5 232.54C151.753 232.98 150.92 233.2 150 233.2ZM150 231.46C150.6 231.46 151.133 231.32 151.6 231.04C152.067 230.76 152.433 230.38 152.7 229.9C152.967 229.407 153.1 228.847 153.1 228.22C153.1 227.607 152.96 227.06 152.68 226.58C152.413 226.1 152.047 225.727 151.58 225.46C151.127 225.18 150.6 225.04 150 225.04C149.4 225.04 148.867 225.18 148.4 225.46C147.933 225.727 147.567 226.1 147.3 226.58C147.033 227.06 146.9 227.607 146.9 228.22C146.9 228.847 147.033 229.407 147.3 229.9C147.567 230.38 147.933 230.76 148.4 231.04C148.867 231.32 149.4 231.46 150 231.46ZM157.3 228.76V227.06H163.88V228.76H157.3ZM171.519 233.2C170.799 233.2 170.146 233.053 169.559 232.76C168.986 232.453 168.526 232.033 168.179 231.5C167.833 230.967 167.639 230.36 167.599 229.68V226.82C167.639 226.127 167.833 225.52 168.179 225C168.539 224.467 169.006 224.053 169.579 223.76C170.166 223.453 170.813 223.3 171.519 223.3C172.386 223.3 173.166 223.52 173.859 223.96C174.566 224.4 175.119 224.993 175.519 225.74C175.919 226.487 176.119 227.327 176.119 228.26C176.119 229.193 175.919 230.033 175.519 230.78C175.119 231.527 174.566 232.12 173.859 232.56C173.166 232.987 172.386 233.2 171.519 233.2ZM166.519 233V218.72H168.319V225.82L167.979 228.12L168.319 230.44V233H166.519ZM171.219 231.5C171.819 231.5 172.346 231.36 172.799 231.08C173.253 230.8 173.613 230.42 173.879 229.94C174.146 229.447 174.279 228.88 174.279 228.24C174.279 227.613 174.146 227.053 173.879 226.56C173.613 226.067 173.253 225.687 172.799 225.42C172.346 225.14 171.826 225 171.239 225C170.639 225 170.113 225.14 169.659 225.42C169.206 225.687 168.853 226.067 168.599 226.56C168.346 227.053 168.219 227.62 168.219 228.26C168.219 228.887 168.339 229.447 168.579 229.94C168.833 230.42 169.186 230.8 169.639 231.08C170.106 231.36 170.633 231.5 171.219 231.5ZM182.2 233.2C181.333 233.2 180.547 232.987 179.84 232.56C179.133 232.12 178.573 231.527 178.16 230.78C177.76 230.033 177.56 229.193 177.56 228.26C177.56 227.327 177.76 226.487 178.16 225.74C178.573 224.993 179.127 224.4 179.82 223.96C180.527 223.52 181.32 223.3 182.2 223.3C182.92 223.3 183.56 223.453 184.12 223.76C184.693 224.053 185.153 224.467 185.5 225C185.847 225.52 186.04 226.127 186.08 226.82V229.68C186.04 230.36 185.847 230.967 185.5 231.5C185.167 232.033 184.713 232.453 184.14 232.76C183.58 233.053 182.933 233.2 182.2 233.2ZM182.5 231.5C183.393 231.5 184.113 231.2 184.66 230.6C185.207 229.987 185.48 229.207 185.48 228.26C185.48 227.607 185.353 227.04 185.1 226.56C184.86 226.067 184.513 225.687 184.06 225.42C183.607 225.14 183.08 225 182.48 225C181.88 225 181.347 225.14 180.88 225.42C180.427 225.7 180.067 226.087 179.8 226.58C179.547 227.06 179.42 227.613 179.42 228.24C179.42 228.88 179.547 229.447 179.8 229.94C180.067 230.42 180.433 230.8 180.9 231.08C181.367 231.36 181.9 231.5 182.5 231.5ZM185.36 233V230.44L185.7 228.12L185.36 225.82V223.5H187.18V233H185.36ZM196.52 233V227.46C196.52 226.74 196.294 226.147 195.84 225.68C195.387 225.213 194.8 224.98 194.08 224.98C193.6 224.98 193.174 225.087 192.8 225.3C192.427 225.513 192.134 225.807 191.92 226.18C191.707 226.553 191.6 226.98 191.6 227.46L190.86 227.04C190.86 226.32 191.02 225.68 191.34 225.12C191.66 224.56 192.107 224.12 192.68 223.8C193.254 223.467 193.9 223.3 194.62 223.3C195.34 223.3 195.974 223.48 196.52 223.84C197.08 224.2 197.52 224.673 197.84 225.26C198.16 225.833 198.32 226.447 198.32 227.1V233H196.52ZM189.8 233V223.5H191.6V233H189.8ZM206.838 233L202.398 228.14L206.798 223.5H208.978L204.078 228.62L204.158 227.58L209.158 233H206.838ZM200.757 233V218.72H202.558V233H200.757ZM210.387 233V223.5H212.187V233H210.387ZM211.287 221.6C210.954 221.6 210.68 221.493 210.467 221.28C210.254 221.053 210.147 220.773 210.147 220.44C210.147 220.12 210.254 219.853 210.467 219.64C210.68 219.413 210.954 219.3 211.287 219.3C211.62 219.3 211.894 219.413 212.107 219.64C212.32 219.853 212.427 220.12 212.427 220.44C212.427 220.773 212.32 221.053 212.107 221.28C211.894 221.493 211.62 221.6 211.287 221.6ZM221.56 233V227.46C221.56 226.74 221.333 226.147 220.88 225.68C220.426 225.213 219.84 224.98 219.12 224.98C218.64 224.98 218.213 225.087 217.84 225.3C217.466 225.513 217.173 225.807 216.96 226.18C216.746 226.553 216.64 226.98 216.64 227.46L215.9 227.04C215.9 226.32 216.06 225.68 216.38 225.12C216.7 224.56 217.146 224.12 217.72 223.8C218.293 223.467 218.94 223.3 219.66 223.3C220.38 223.3 221.013 223.48 221.56 223.84C222.12 224.2 222.56 224.673 222.88 225.26C223.2 225.833 223.36 226.447 223.36 227.1V233H221.56ZM214.84 233V223.5H216.64V233H214.84ZM229.737 237.18C228.763 237.18 227.897 237 227.137 236.64C226.39 236.28 225.79 235.773 225.337 235.12L226.497 233.94C226.883 234.433 227.343 234.807 227.877 235.06C228.41 235.327 229.043 235.46 229.777 235.46C230.75 235.46 231.517 235.2 232.077 234.68C232.65 234.173 232.937 233.487 232.937 232.62V230.26L233.257 228.12L232.937 226V223.5H234.737V232.62C234.737 233.527 234.523 234.32 234.097 235C233.683 235.68 233.097 236.213 232.337 236.6C231.59 236.987 230.723 237.18 229.737 237.18ZM229.737 232.84C228.87 232.84 228.09 232.633 227.397 232.22C226.717 231.807 226.177 231.24 225.777 230.52C225.377 229.787 225.177 228.967 225.177 228.06C225.177 227.153 225.377 226.347 225.777 225.64C226.177 224.92 226.717 224.353 227.397 223.94C228.09 223.513 228.87 223.3 229.737 223.3C230.483 223.3 231.143 223.447 231.717 223.74C232.29 224.033 232.743 224.447 233.077 224.98C233.423 225.5 233.61 226.113 233.637 226.82V229.34C233.597 230.033 233.403 230.647 233.057 231.18C232.723 231.7 232.27 232.107 231.697 232.4C231.123 232.693 230.47 232.84 229.737 232.84ZM230.097 231.14C230.683 231.14 231.197 231.013 231.637 230.76C232.09 230.507 232.437 230.153 232.677 229.7C232.917 229.233 233.037 228.693 233.037 228.08C233.037 227.467 232.91 226.933 232.657 226.48C232.417 226.013 232.077 225.653 231.637 225.4C231.197 225.133 230.677 225 230.077 225C229.477 225 228.95 225.133 228.497 225.4C228.043 225.653 227.683 226.013 227.417 226.48C227.163 226.933 227.037 227.46 227.037 228.06C227.037 228.66 227.163 229.193 227.417 229.66C227.683 230.127 228.043 230.493 228.497 230.76C228.963 231.013 229.497 231.14 230.097 231.14ZM238.959 233.2C238.585 233.2 238.272 233.073 238.019 232.82C237.779 232.553 237.659 232.24 237.659 231.88C237.659 231.507 237.779 231.2 238.019 230.96C238.272 230.707 238.585 230.58 238.959 230.58C239.332 230.58 239.639 230.707 239.879 230.96C240.132 231.2 240.259 231.507 240.259 231.88C240.259 232.24 240.132 232.553 239.879 232.82C239.639 233.073 239.332 233.2 238.959 233.2ZM247.129 233.2C246.195 233.2 245.349 232.98 244.589 232.54C243.842 232.1 243.249 231.507 242.809 230.76C242.382 230 242.169 229.16 242.169 228.24C242.169 227.307 242.382 226.467 242.809 225.72C243.249 224.973 243.842 224.387 244.589 223.96C245.349 223.52 246.195 223.3 247.129 223.3C247.862 223.3 248.542 223.44 249.169 223.72C249.795 223.987 250.335 224.38 250.789 224.9L249.589 226.1C249.295 225.753 248.935 225.493 248.509 225.32C248.095 225.133 247.635 225.04 247.129 225.04C246.529 225.04 245.995 225.18 245.529 225.46C245.062 225.727 244.695 226.1 244.429 226.58C244.162 227.06 244.029 227.613 244.029 228.24C244.029 228.867 244.162 229.42 244.429 229.9C244.695 230.38 245.062 230.76 245.529 231.04C245.995 231.32 246.529 231.46 247.129 231.46C247.635 231.46 248.095 231.373 248.509 231.2C248.935 231.013 249.302 230.747 249.609 230.4L250.789 231.6C250.349 232.107 249.809 232.5 249.169 232.78C248.542 233.06 247.862 233.2 247.129 233.2ZM256.719 233.2C255.785 233.2 254.945 232.98 254.199 232.54C253.452 232.1 252.859 231.507 252.419 230.76C251.979 230 251.759 229.153 251.759 228.22C251.759 227.3 251.979 226.473 252.419 225.74C252.859 224.993 253.452 224.4 254.199 223.96C254.945 223.52 255.785 223.3 256.719 223.3C257.639 223.3 258.472 223.52 259.219 223.96C259.979 224.387 260.579 224.973 261.019 225.72C261.459 226.467 261.679 227.3 261.679 228.22C261.679 229.153 261.459 230 261.019 230.76C260.579 231.507 259.979 232.1 259.219 232.54C258.472 232.98 257.639 233.2 256.719 233.2ZM256.719 231.46C257.319 231.46 257.852 231.32 258.319 231.04C258.785 230.76 259.152 230.38 259.419 229.9C259.685 229.407 259.819 228.847 259.819 228.22C259.819 227.607 259.679 227.06 259.399 226.58C259.132 226.1 258.765 225.727 258.299 225.46C257.845 225.18 257.319 225.04 256.719 225.04C256.119 225.04 255.585 225.18 255.119 225.46C254.652 225.727 254.285 226.1 254.019 226.58C253.752 227.06 253.619 227.607 253.619 228.22C253.619 228.847 253.752 229.407 254.019 229.9C254.285 230.38 254.652 230.76 255.119 231.04C255.585 231.32 256.119 231.46 256.719 231.46ZM263.707 233V223.5H265.507V233H263.707ZM270.127 233V227.26C270.127 226.553 269.907 226 269.467 225.6C269.04 225.187 268.5 224.98 267.847 224.98C267.407 224.98 267.013 225.073 266.667 225.26C266.32 225.447 266.04 225.707 265.827 226.04C265.613 226.373 265.507 226.773 265.507 227.24L264.767 226.88C264.767 226.16 264.92 225.533 265.227 225C265.547 224.467 265.98 224.053 266.527 223.76C267.073 223.453 267.687 223.3 268.367 223.3C269.033 223.3 269.633 223.447 270.167 223.74C270.713 224.033 271.14 224.447 271.447 224.98C271.767 225.513 271.927 226.147 271.927 226.88V233H270.127ZM276.547 233V227.26C276.547 226.553 276.327 226 275.887 225.6C275.46 225.187 274.927 224.98 274.287 224.98C273.847 224.98 273.447 225.073 273.087 225.26C272.74 225.447 272.46 225.707 272.247 226.04C272.033 226.373 271.927 226.773 271.927 227.24L270.907 226.88C270.947 226.147 271.14 225.52 271.487 225C271.847 224.467 272.307 224.053 272.867 223.76C273.427 223.453 274.04 223.3 274.707 223.3C275.4 223.3 276.02 223.447 276.567 223.74C277.113 224.033 277.547 224.447 277.867 224.98C278.2 225.513 278.367 226.153 278.367 226.9V233H276.547ZM119.04 258V252.46C119.04 251.74 118.813 251.147 118.36 250.68C117.907 250.213 117.32 249.98 116.6 249.98C116.12 249.98 115.693 250.087 115.32 250.3C114.947 250.513 114.653 250.807 114.44 251.18C114.227 251.553 114.12 251.98 114.12 252.46L113.38 252.04C113.38 251.32 113.54 250.68 113.86 250.12C114.18 249.56 114.627 249.12 115.2 248.8C115.773 248.467 116.42 248.3 117.14 248.3C117.86 248.3 118.493 248.46 119.04 248.78C119.6 249.1 120.04 249.547 120.36 250.12C120.68 250.693 120.84 251.353 120.84 252.1V258H119.04ZM112.32 258V243.72H114.12V258H112.32ZM126.397 258.08L122.277 248.5H124.277L127.337 256H126.697L129.917 248.5H131.917L127.477 258.08H126.397ZM123.677 261.98L126.477 256.24L127.477 258.08L125.677 261.98H123.677ZM134.854 258V244.52H136.654V258H134.854ZM132.514 250.14V248.5H138.994V250.14H132.514ZM144.865 258.2C143.918 258.2 143.065 257.987 142.305 257.56C141.545 257.12 140.945 256.527 140.505 255.78C140.065 255.033 139.845 254.187 139.845 253.24C139.845 252.307 140.058 251.467 140.485 250.72C140.925 249.973 141.511 249.387 142.245 248.96C142.991 248.52 143.825 248.3 144.745 248.3C145.625 248.3 146.398 248.5 147.065 248.9C147.745 249.3 148.271 249.853 148.645 250.56C149.031 251.267 149.225 252.067 149.225 252.96C149.225 253.093 149.218 253.24 149.205 253.4C149.191 253.547 149.165 253.72 149.125 253.92H141.105V252.42H148.165L147.505 253C147.505 252.36 147.391 251.82 147.165 251.38C146.938 250.927 146.618 250.58 146.205 250.34C145.791 250.087 145.291 249.96 144.705 249.96C144.091 249.96 143.551 250.093 143.085 250.36C142.618 250.627 142.258 251 142.005 251.48C141.751 251.96 141.625 252.527 141.625 253.18C141.625 253.847 141.758 254.433 142.025 254.94C142.291 255.433 142.671 255.82 143.165 256.1C143.658 256.367 144.225 256.5 144.865 256.5C145.398 256.5 145.885 256.407 146.325 256.22C146.778 256.033 147.165 255.753 147.485 255.38L148.645 256.56C148.191 257.093 147.631 257.5 146.965 257.78C146.311 258.06 145.611 258.2 144.865 258.2ZM155.227 258.2C154.361 258.2 153.574 257.987 152.867 257.56C152.161 257.12 151.601 256.527 151.187 255.78C150.787 255.033 150.587 254.193 150.587 253.26C150.587 252.327 150.787 251.487 151.187 250.74C151.601 249.993 152.154 249.4 152.847 248.96C153.554 248.52 154.347 248.3 155.227 248.3C155.947 248.3 156.587 248.453 157.147 248.76C157.721 249.053 158.181 249.467 158.527 250C158.874 250.52 159.067 251.127 159.107 251.82V254.68C159.067 255.36 158.874 255.967 158.527 256.5C158.194 257.033 157.741 257.453 157.167 257.76C156.607 258.053 155.961 258.2 155.227 258.2ZM155.527 256.5C156.421 256.5 157.141 256.2 157.687 255.6C158.234 254.987 158.507 254.207 158.507 253.26C158.507 252.607 158.381 252.04 158.127 251.56C157.887 251.067 157.541 250.687 157.087 250.42C156.634 250.14 156.107 250 155.507 250C154.907 250 154.374 250.14 153.907 250.42C153.454 250.7 153.094 251.087 152.827 251.58C152.574 252.06 152.447 252.613 152.447 253.24C152.447 253.88 152.574 254.447 152.827 254.94C153.094 255.42 153.461 255.8 153.927 256.08C154.394 256.36 154.927 256.5 155.527 256.5ZM158.387 258V255.44L158.727 253.12L158.387 250.82V248.5H160.207V258H158.387ZM167.168 258.2C166.234 258.2 165.388 257.98 164.628 257.54C163.881 257.1 163.288 256.507 162.848 255.76C162.421 255 162.208 254.16 162.208 253.24C162.208 252.307 162.421 251.467 162.848 250.72C163.288 249.973 163.881 249.387 164.628 248.96C165.388 248.52 166.234 248.3 167.168 248.3C167.901 248.3 168.581 248.44 169.208 248.72C169.834 248.987 170.374 249.38 170.828 249.9L169.628 251.1C169.334 250.753 168.974 250.493 168.548 250.32C168.134 250.133 167.674 250.04 167.168 250.04C166.568 250.04 166.034 250.18 165.568 250.46C165.101 250.727 164.734 251.1 164.468 251.58C164.201 252.06 164.068 252.613 164.068 253.24C164.068 253.867 164.201 254.42 164.468 254.9C164.734 255.38 165.101 255.76 165.568 256.04C166.034 256.32 166.568 256.46 167.168 256.46C167.674 256.46 168.134 256.373 168.548 256.2C168.974 256.013 169.341 255.747 169.648 255.4L170.828 256.6C170.388 257.107 169.848 257.5 169.208 257.78C168.581 258.06 167.901 258.2 167.168 258.2ZM179.333 258V252.46C179.333 251.74 179.106 251.147 178.653 250.68C178.2 250.213 177.613 249.98 176.893 249.98C176.413 249.98 175.986 250.087 175.613 250.3C175.24 250.513 174.946 250.807 174.733 251.18C174.52 251.553 174.413 251.98 174.413 252.46L173.673 252.04C173.673 251.32 173.833 250.68 174.153 250.12C174.473 249.56 174.92 249.12 175.493 248.8C176.066 248.467 176.713 248.3 177.433 248.3C178.153 248.3 178.786 248.46 179.333 248.78C179.893 249.1 180.333 249.547 180.653 250.12C180.973 250.693 181.133 251.353 181.133 252.1V258H179.333ZM172.613 258V243.72H174.413V258H172.613ZM185.15 258.2C184.777 258.2 184.463 258.073 184.21 257.82C183.97 257.553 183.85 257.24 183.85 256.88C183.85 256.507 183.97 256.2 184.21 255.96C184.463 255.707 184.777 255.58 185.15 255.58C185.523 255.58 185.83 255.707 186.07 255.96C186.323 256.2 186.45 256.507 186.45 256.88C186.45 257.24 186.323 257.553 186.07 257.82C185.83 258.073 185.523 258.2 185.15 258.2ZM193.32 258.2C192.387 258.2 191.547 257.98 190.8 257.54C190.053 257.1 189.46 256.507 189.02 255.76C188.58 255 188.36 254.153 188.36 253.22C188.36 252.3 188.58 251.473 189.02 250.74C189.46 249.993 190.053 249.4 190.8 248.96C191.547 248.52 192.387 248.3 193.32 248.3C194.24 248.3 195.073 248.52 195.82 248.96C196.58 249.387 197.18 249.973 197.62 250.72C198.06 251.467 198.28 252.3 198.28 253.22C198.28 254.153 198.06 255 197.62 255.76C197.18 256.507 196.58 257.1 195.82 257.54C195.073 257.98 194.24 258.2 193.32 258.2ZM193.32 256.46C193.92 256.46 194.453 256.32 194.92 256.04C195.387 255.76 195.753 255.38 196.02 254.9C196.287 254.407 196.42 253.847 196.42 253.22C196.42 252.607 196.28 252.06 196 251.58C195.733 251.1 195.367 250.727 194.9 250.46C194.447 250.18 193.92 250.04 193.32 250.04C192.72 250.04 192.187 250.18 191.72 250.46C191.253 250.727 190.887 251.1 190.62 251.58C190.353 252.06 190.22 252.607 190.22 253.22C190.22 253.847 190.353 254.407 190.62 254.9C190.887 255.38 191.253 255.76 191.72 256.04C192.187 256.32 192.72 256.46 193.32 256.46ZM200.308 258V248.5H202.108V258H200.308ZM202.108 252.58L201.428 252.28C201.428 251.067 201.708 250.1 202.268 249.38C202.828 248.66 203.635 248.3 204.688 248.3C205.168 248.3 205.602 248.387 205.988 248.56C206.375 248.72 206.735 248.993 207.068 249.38L205.888 250.6C205.688 250.387 205.468 250.233 205.228 250.14C204.988 250.047 204.708 250 204.388 250C203.722 250 203.175 250.213 202.748 250.64C202.322 251.067 202.108 251.713 202.108 252.58ZM211.963 262.18C210.99 262.18 210.123 262 209.363 261.64C208.616 261.28 208.016 260.773 207.563 260.12L208.723 258.94C209.11 259.433 209.57 259.807 210.103 260.06C210.636 260.327 211.27 260.46 212.003 260.46C212.976 260.46 213.743 260.2 214.303 259.68C214.876 259.173 215.163 258.487 215.163 257.62V255.26L215.483 253.12L215.163 251V248.5H216.963V257.62C216.963 258.527 216.75 259.32 216.323 260C215.91 260.68 215.323 261.213 214.563 261.6C213.816 261.987 212.95 262.18 211.963 262.18ZM211.963 257.84C211.096 257.84 210.316 257.633 209.623 257.22C208.943 256.807 208.403 256.24 208.003 255.52C207.603 254.787 207.403 253.967 207.403 253.06C207.403 252.153 207.603 251.347 208.003 250.64C208.403 249.92 208.943 249.353 209.623 248.94C210.316 248.513 211.096 248.3 211.963 248.3C212.71 248.3 213.37 248.447 213.943 248.74C214.516 249.033 214.97 249.447 215.303 249.98C215.65 250.5 215.836 251.113 215.863 251.82V254.34C215.823 255.033 215.63 255.647 215.283 256.18C214.95 256.7 214.496 257.107 213.923 257.4C213.35 257.693 212.696 257.84 211.963 257.84ZM212.323 256.14C212.91 256.14 213.423 256.013 213.863 255.76C214.316 255.507 214.663 255.153 214.903 254.7C215.143 254.233 215.263 253.693 215.263 253.08C215.263 252.467 215.136 251.933 214.883 251.48C214.643 251.013 214.303 250.653 213.863 250.4C213.423 250.133 212.903 250 212.303 250C211.703 250 211.176 250.133 210.723 250.4C210.27 250.653 209.91 251.013 209.643 251.48C209.39 251.933 209.263 252.46 209.263 253.06C209.263 253.66 209.39 254.193 209.643 254.66C209.91 255.127 210.27 255.493 210.723 255.76C211.19 256.013 211.723 256.14 212.323 256.14Z" fill="black"/>
<rect x="87" y="329" width="158" height="44" rx="8" fill="#9856F2"/>
<path d="M107.52 361.2C106.387 361.2 105.413 361.007 104.6 360.62C103.8 360.233 103.073 359.653 102.42 358.88L104.22 357.08C104.633 357.627 105.113 358.053 105.66 358.36C106.207 358.653 106.873 358.8 107.66 358.8C108.367 358.8 108.927 358.66 109.34 358.38C109.767 358.1 109.98 357.713 109.98 357.22C109.98 356.793 109.86 356.447 109.62 356.18C109.38 355.913 109.06 355.687 108.66 355.5C108.273 355.313 107.84 355.147 107.36 355C106.893 354.84 106.42 354.66 105.94 354.46C105.473 354.26 105.04 354.013 104.64 353.72C104.253 353.413 103.94 353.027 103.7 352.56C103.46 352.08 103.34 351.48 103.34 350.76C103.34 349.907 103.547 349.18 103.96 348.58C104.373 347.98 104.94 347.52 105.66 347.2C106.38 346.88 107.193 346.72 108.1 346.72C109.06 346.72 109.927 346.9 110.7 347.26C111.473 347.62 112.107 348.087 112.6 348.66L110.8 350.46C110.387 350.007 109.96 349.673 109.52 349.46C109.093 349.247 108.607 349.14 108.06 349.14C107.433 349.14 106.94 349.26 106.58 349.5C106.22 349.74 106.04 350.087 106.04 350.54C106.04 350.927 106.16 351.24 106.4 351.48C106.64 351.72 106.953 351.927 107.34 352.1C107.74 352.273 108.173 352.44 108.64 352.6C109.12 352.76 109.593 352.94 110.06 353.14C110.54 353.34 110.973 353.6 111.36 353.92C111.76 354.24 112.08 354.653 112.32 355.16C112.56 355.653 112.68 356.267 112.68 357C112.68 358.307 112.22 359.333 111.3 360.08C110.38 360.827 109.12 361.2 107.52 361.2ZM115.967 361V347.32H118.587V361H115.967ZM113.707 353.64V351.34H120.847V353.64H113.707ZM126.126 361.2C125.246 361.2 124.452 360.98 123.746 360.54C123.039 360.1 122.486 359.5 122.086 358.74C121.686 357.98 121.486 357.127 121.486 356.18C121.486 355.22 121.686 354.36 122.086 353.6C122.486 352.84 123.039 352.24 123.746 351.8C124.452 351.36 125.246 351.14 126.126 351.14C126.819 351.14 127.439 351.28 127.986 351.56C128.532 351.84 128.966 352.233 129.286 352.74C129.619 353.233 129.799 353.793 129.826 354.42V357.9C129.799 358.54 129.619 359.107 129.286 359.6C128.966 360.093 128.532 360.487 127.986 360.78C127.439 361.06 126.819 361.2 126.126 361.2ZM126.606 358.78C127.339 358.78 127.932 358.54 128.386 358.06C128.839 357.567 129.066 356.933 129.066 356.16C129.066 355.653 128.959 355.207 128.746 354.82C128.546 354.42 128.259 354.113 127.886 353.9C127.526 353.673 127.099 353.56 126.606 353.56C126.126 353.56 125.699 353.673 125.326 353.9C124.966 354.113 124.679 354.42 124.466 354.82C124.266 355.207 124.166 355.653 124.166 356.16C124.166 356.68 124.266 357.14 124.466 357.54C124.679 357.927 124.966 358.233 125.326 358.46C125.699 358.673 126.126 358.78 126.606 358.78ZM128.926 361V358.4L129.346 356.04L128.926 353.72V351.34H131.526V361H128.926ZM133.844 361V351.34H136.464V361H133.844ZM136.464 355.66L135.444 354.98C135.564 353.793 135.91 352.86 136.484 352.18C137.057 351.487 137.884 351.14 138.964 351.14C139.43 351.14 139.85 351.22 140.224 351.38C140.597 351.527 140.937 351.773 141.244 352.12L139.604 354C139.457 353.84 139.277 353.72 139.064 353.64C138.864 353.56 138.63 353.52 138.364 353.52C137.804 353.52 137.344 353.7 136.984 354.06C136.637 354.407 136.464 354.94 136.464 355.66ZM143.643 361V347.32H146.263V361H143.643ZM141.383 353.64V351.34H148.523V353.64H141.383ZM158.262 361.2C157.129 361.2 156.156 361.007 155.342 360.62C154.542 360.233 153.816 359.653 153.162 358.88L154.962 357.08C155.376 357.627 155.856 358.053 156.402 358.36C156.949 358.653 157.616 358.8 158.402 358.8C159.109 358.8 159.669 358.66 160.082 358.38C160.509 358.1 160.722 357.713 160.722 357.22C160.722 356.793 160.602 356.447 160.362 356.18C160.122 355.913 159.802 355.687 159.402 355.5C159.016 355.313 158.582 355.147 158.102 355C157.636 354.84 157.162 354.66 156.682 354.46C156.216 354.26 155.782 354.013 155.382 353.72C154.996 353.413 154.682 353.027 154.442 352.56C154.202 352.08 154.082 351.48 154.082 350.76C154.082 349.907 154.289 349.18 154.702 348.58C155.116 347.98 155.682 347.52 156.402 347.2C157.122 346.88 157.936 346.72 158.842 346.72C159.802 346.72 160.669 346.9 161.442 347.26C162.216 347.62 162.849 348.087 163.342 348.66L161.542 350.46C161.129 350.007 160.702 349.673 160.262 349.46C159.836 349.247 159.349 349.14 158.802 349.14C158.176 349.14 157.682 349.26 157.322 349.5C156.962 349.74 156.782 350.087 156.782 350.54C156.782 350.927 156.902 351.24 157.142 351.48C157.382 351.72 157.696 351.927 158.082 352.1C158.482 352.273 158.916 352.44 159.382 352.6C159.862 352.76 160.336 352.94 160.802 353.14C161.282 353.34 161.716 353.6 162.102 353.92C162.502 354.24 162.822 354.653 163.062 355.16C163.302 355.653 163.422 356.267 163.422 357C163.422 358.307 162.962 359.333 162.042 360.08C161.122 360.827 159.862 361.2 158.262 361.2ZM169.831 361.2C168.817 361.2 167.917 360.987 167.131 360.56C166.344 360.12 165.717 359.52 165.251 358.76C164.797 358 164.571 357.133 164.571 356.16C164.571 355.2 164.791 354.347 165.231 353.6C165.684 352.84 166.297 352.24 167.071 351.8C167.844 351.347 168.704 351.12 169.651 351.12C170.584 351.12 171.404 351.333 172.111 351.76C172.831 352.173 173.391 352.747 173.791 353.48C174.204 354.2 174.411 355.02 174.411 355.94C174.411 356.113 174.397 356.293 174.371 356.48C174.357 356.653 174.324 356.853 174.271 357.08L166.151 357.1V355.14L173.051 355.12L171.991 355.94C171.964 355.367 171.857 354.887 171.671 354.5C171.497 354.113 171.237 353.82 170.891 353.62C170.557 353.407 170.144 353.3 169.651 353.3C169.131 353.3 168.677 353.42 168.291 353.66C167.904 353.887 167.604 354.213 167.391 354.64C167.191 355.053 167.091 355.547 167.091 356.12C167.091 356.707 167.197 357.22 167.411 357.66C167.637 358.087 167.957 358.42 168.371 358.66C168.784 358.887 169.264 359 169.811 359C170.304 359 170.751 358.92 171.151 358.76C171.551 358.587 171.897 358.333 172.191 358L173.731 359.54C173.264 360.087 172.691 360.5 172.011 360.78C171.344 361.06 170.617 361.2 169.831 361.2ZM180.071 361.2C179.191 361.2 178.398 360.98 177.691 360.54C176.984 360.1 176.431 359.5 176.031 358.74C175.631 357.98 175.431 357.127 175.431 356.18C175.431 355.22 175.631 354.36 176.031 353.6C176.431 352.84 176.984 352.24 177.691 351.8C178.398 351.36 179.191 351.14 180.071 351.14C180.764 351.14 181.384 351.28 181.931 351.56C182.478 351.84 182.911 352.233 183.231 352.74C183.564 353.233 183.744 353.793 183.771 354.42V357.9C183.744 358.54 183.564 359.107 183.231 359.6C182.911 360.093 182.478 360.487 181.931 360.78C181.384 361.06 180.764 361.2 180.071 361.2ZM180.551 358.78C181.284 358.78 181.878 358.54 182.331 358.06C182.784 357.567 183.011 356.933 183.011 356.16C183.011 355.653 182.904 355.207 182.691 354.82C182.491 354.42 182.204 354.113 181.831 353.9C181.471 353.673 181.044 353.56 180.551 353.56C180.071 353.56 179.644 353.673 179.271 353.9C178.911 354.113 178.624 354.42 178.411 354.82C178.211 355.207 178.111 355.653 178.111 356.16C178.111 356.68 178.211 357.14 178.411 357.54C178.624 357.927 178.911 358.233 179.271 358.46C179.644 358.673 180.071 358.78 180.551 358.78ZM182.871 361V358.4L183.291 356.04L182.871 353.72V351.34H185.471V361H182.871ZM187.789 361V351.34H190.409V361H187.789ZM190.409 355.66L189.389 354.98C189.509 353.793 189.856 352.86 190.429 352.18C191.002 351.487 191.829 351.14 192.909 351.14C193.376 351.14 193.796 351.22 194.169 351.38C194.542 351.527 194.882 351.773 195.189 352.12L193.549 354C193.402 353.84 193.222 353.72 193.009 353.64C192.809 353.56 192.576 353.52 192.309 353.52C191.749 353.52 191.289 353.7 190.929 354.06C190.582 354.407 190.409 354.94 190.409 355.66ZM200.396 361.2C199.409 361.2 198.522 360.98 197.736 360.54C196.949 360.1 196.329 359.5 195.876 358.74C195.422 357.98 195.196 357.127 195.196 356.18C195.196 355.22 195.422 354.36 195.876 353.6C196.329 352.84 196.949 352.24 197.736 351.8C198.536 351.347 199.422 351.12 200.396 351.12C201.156 351.12 201.856 351.26 202.496 351.54C203.136 351.82 203.689 352.22 204.156 352.74L202.476 354.44C202.222 354.16 201.916 353.947 201.556 353.8C201.209 353.653 200.822 353.58 200.396 353.58C199.916 353.58 199.482 353.693 199.096 353.92C198.722 354.133 198.422 354.433 198.196 354.82C197.982 355.193 197.876 355.64 197.876 356.16C197.876 356.667 197.982 357.12 198.196 357.52C198.422 357.907 198.722 358.213 199.096 358.44C199.482 358.653 199.916 358.76 200.396 358.76C200.836 358.76 201.229 358.687 201.576 358.54C201.936 358.38 202.242 358.153 202.496 357.86L204.196 359.56C203.702 360.093 203.136 360.5 202.496 360.78C201.856 361.06 201.156 361.2 200.396 361.2ZM212.18 361V355.46C212.18 354.887 212 354.42 211.64 354.06C211.28 353.7 210.813 353.52 210.24 353.52C209.866 353.52 209.533 353.6 209.24 353.76C208.946 353.92 208.713 354.147 208.54 354.44C208.38 354.733 208.3 355.073 208.3 355.46L207.28 354.94C207.28 354.18 207.44 353.52 207.76 352.96C208.08 352.387 208.52 351.94 209.08 351.62C209.653 351.3 210.306 351.14 211.04 351.14C211.773 351.14 212.42 351.3 212.98 351.62C213.553 351.94 214 352.38 214.32 352.94C214.64 353.5 214.8 354.147 214.8 354.88V361H212.18ZM205.68 361V346.54H208.3V361H205.68Z" fill="white"/>
<path d="M93.631 417.19C92.5797 417.19 91.6423 416.962 90.819 416.506C90.0083 416.037 89.3687 415.398 88.9 414.587C88.4313 413.776 88.197 412.858 88.197 411.832V403.643H90.781V411.908C90.781 412.503 90.9013 413.016 91.142 413.447C91.3953 413.878 91.7373 414.213 92.168 414.454C92.6113 414.682 93.099 414.796 93.631 414.796C94.1757 414.796 94.657 414.682 95.075 414.454C95.493 414.213 95.8223 413.878 96.063 413.447C96.3163 413.016 96.443 412.51 96.443 411.927V403.643H99.046V411.851C99.046 412.877 98.8117 413.795 98.343 414.606C97.8743 415.404 97.2347 416.037 96.424 416.506C95.626 416.962 94.695 417.19 93.631 417.19ZM106.423 417.19C105.765 417.19 105.169 417.057 104.637 416.791C104.105 416.512 103.681 416.139 103.364 415.67C103.048 415.201 102.877 414.663 102.851 414.055V410.806C102.877 410.198 103.048 409.66 103.364 409.191C103.694 408.71 104.118 408.33 104.637 408.051C105.169 407.772 105.765 407.633 106.423 407.633C107.272 407.633 108.032 407.842 108.703 408.26C109.375 408.678 109.9 409.248 110.28 409.97C110.673 410.692 110.869 411.509 110.869 412.421C110.869 413.32 110.673 414.131 110.28 414.853C109.9 415.575 109.375 416.145 108.703 416.563C108.032 416.981 107.272 417.19 106.423 417.19ZM101.331 420.838V407.823H103.82V410.236L103.402 412.459L103.801 414.682V420.838H101.331ZM105.986 414.891C106.442 414.891 106.848 414.79 107.202 414.587C107.557 414.372 107.829 414.08 108.019 413.713C108.222 413.333 108.323 412.896 108.323 412.402C108.323 411.921 108.222 411.496 108.019 411.129C107.829 410.749 107.557 410.458 107.202 410.255C106.848 410.04 106.442 409.932 105.986 409.932C105.543 409.932 105.144 410.04 104.789 410.255C104.435 410.458 104.156 410.749 103.953 411.129C103.763 411.496 103.668 411.921 103.668 412.402C103.668 412.896 103.763 413.333 103.953 413.713C104.156 414.08 104.428 414.372 104.77 414.587C105.125 414.79 105.53 414.891 105.986 414.891ZM112.501 417V403.263H114.99V417H112.501ZM121.509 417.19C120.584 417.19 119.748 416.981 119.001 416.563C118.266 416.132 117.677 415.556 117.234 414.834C116.803 414.099 116.588 413.282 116.588 412.383C116.588 411.484 116.803 410.679 117.234 409.97C117.664 409.248 118.253 408.678 119.001 408.26C119.748 407.829 120.578 407.614 121.49 407.614C122.427 407.614 123.263 407.829 123.998 408.26C124.745 408.678 125.334 409.248 125.765 409.97C126.195 410.679 126.411 411.484 126.411 412.383C126.411 413.282 126.195 414.099 125.765 414.834C125.334 415.556 124.745 416.132 123.998 416.563C123.263 416.981 122.433 417.19 121.509 417.19ZM121.49 414.872C121.958 414.872 122.37 414.771 122.725 414.568C123.092 414.353 123.371 414.061 123.561 413.694C123.763 413.314 123.865 412.883 123.865 412.402C123.865 411.921 123.763 411.496 123.561 411.129C123.358 410.762 123.079 410.477 122.725 410.274C122.37 410.059 121.958 409.951 121.49 409.951C121.034 409.951 120.628 410.059 120.274 410.274C119.919 410.477 119.64 410.762 119.438 411.129C119.235 411.496 119.134 411.921 119.134 412.402C119.134 412.883 119.235 413.314 119.438 413.694C119.64 414.061 119.919 414.353 120.274 414.568C120.628 414.771 121.034 414.872 121.49 414.872ZM131.851 417.19C131.015 417.19 130.261 416.981 129.59 416.563C128.919 416.145 128.393 415.575 128.013 414.853C127.633 414.131 127.443 413.32 127.443 412.421C127.443 411.509 127.633 410.692 128.013 409.97C128.393 409.248 128.919 408.678 129.59 408.26C130.261 407.842 131.015 407.633 131.851 407.633C132.51 407.633 133.099 407.766 133.618 408.032C134.137 408.298 134.549 408.672 134.853 409.153C135.17 409.622 135.341 410.154 135.366 410.749V414.055C135.341 414.663 135.17 415.201 134.853 415.67C134.549 416.139 134.137 416.512 133.618 416.791C133.099 417.057 132.51 417.19 131.851 417.19ZM132.307 414.891C133.004 414.891 133.567 414.663 133.998 414.207C134.429 413.738 134.644 413.137 134.644 412.402C134.644 411.921 134.543 411.496 134.34 411.129C134.15 410.749 133.878 410.458 133.523 410.255C133.181 410.04 132.776 409.932 132.307 409.932C131.851 409.932 131.446 410.04 131.091 410.255C130.749 410.458 130.477 410.749 130.274 411.129C130.084 411.496 129.989 411.921 129.989 412.402C129.989 412.896 130.084 413.333 130.274 413.713C130.477 414.08 130.749 414.372 131.091 414.587C131.446 414.79 131.851 414.891 132.307 414.891ZM134.511 417V414.53L134.91 412.288L134.511 410.084V407.823H136.981V417H134.511ZM143.059 417.19C142.21 417.19 141.45 416.981 140.779 416.563C140.108 416.145 139.576 415.575 139.183 414.853C138.803 414.131 138.613 413.32 138.613 412.421C138.613 411.509 138.803 410.692 139.183 409.97C139.576 409.248 140.101 408.678 140.76 408.26C141.431 407.842 142.198 407.633 143.059 407.633C143.718 407.633 144.307 407.766 144.826 408.032C145.358 408.298 145.782 408.672 146.099 409.153C146.428 409.622 146.606 410.154 146.631 410.749V414.017C146.606 414.612 146.435 415.151 146.118 415.632C145.801 416.113 145.377 416.493 144.845 416.772C144.313 417.051 143.718 417.19 143.059 417.19ZM143.477 414.891C143.946 414.891 144.351 414.79 144.693 414.587C145.048 414.372 145.32 414.08 145.51 413.713C145.713 413.333 145.814 412.896 145.814 412.402C145.814 411.921 145.713 411.496 145.51 411.129C145.32 410.749 145.048 410.458 144.693 410.255C144.351 410.04 143.952 409.932 143.496 409.932C143.027 409.932 142.616 410.04 142.261 410.255C141.919 410.47 141.647 410.762 141.444 411.129C141.254 411.496 141.159 411.921 141.159 412.402C141.159 412.896 141.254 413.333 141.444 413.713C141.647 414.08 141.925 414.372 142.28 414.587C142.635 414.79 143.034 414.891 143.477 414.891ZM148.151 417H145.681V414.53L146.08 412.288L145.662 410.084V403.263H148.151V417ZM160.524 417.19C159.549 417.19 158.643 417.019 157.807 416.677C156.971 416.322 156.236 415.835 155.603 415.214C154.982 414.581 154.501 413.846 154.159 413.01C153.83 412.174 153.665 411.275 153.665 410.312C153.665 409.349 153.83 408.45 154.159 407.614C154.501 406.778 154.982 406.05 155.603 405.429C156.236 404.808 156.965 404.321 157.788 403.966C158.624 403.611 159.536 403.434 160.524 403.434C161.588 403.434 162.525 403.611 163.336 403.966C164.147 404.308 164.862 404.783 165.483 405.391L163.735 407.139C163.368 406.734 162.918 406.417 162.386 406.189C161.854 405.961 161.233 405.847 160.524 405.847C159.903 405.847 159.333 405.955 158.814 406.17C158.307 406.373 157.864 406.677 157.484 407.082C157.104 407.475 156.813 407.95 156.61 408.507C156.407 409.052 156.306 409.653 156.306 410.312C156.306 410.983 156.407 411.591 156.61 412.136C156.813 412.681 157.104 413.156 157.484 413.561C157.864 413.954 158.307 414.258 158.814 414.473C159.333 414.688 159.903 414.796 160.524 414.796C161.271 414.796 161.911 414.682 162.443 414.454C162.988 414.226 163.444 413.903 163.811 413.485L165.559 415.233C164.938 415.854 164.216 416.335 163.393 416.677C162.57 417.019 161.613 417.19 160.524 417.19ZM171.009 417.19C169.932 417.19 169.007 417.006 168.235 416.639C167.475 416.272 166.784 415.721 166.164 414.986L167.874 413.276C168.266 413.795 168.722 414.201 169.242 414.492C169.761 414.771 170.394 414.91 171.142 414.91C171.813 414.91 172.345 414.777 172.738 414.511C173.143 414.245 173.346 413.878 173.346 413.409C173.346 413.004 173.232 412.674 173.004 412.421C172.776 412.168 172.472 411.952 172.092 411.775C171.724 411.598 171.313 411.439 170.857 411.3C170.413 411.148 169.964 410.977 169.508 410.787C169.064 410.597 168.653 410.363 168.273 410.084C167.905 409.793 167.608 409.425 167.38 408.982C167.152 408.526 167.038 407.956 167.038 407.272C167.038 406.461 167.234 405.771 167.627 405.201C168.019 404.631 168.558 404.194 169.242 403.89C169.926 403.586 170.698 403.434 171.56 403.434C172.472 403.434 173.295 403.605 174.03 403.947C174.764 404.289 175.366 404.732 175.835 405.277L174.125 406.987C173.732 406.556 173.327 406.24 172.909 406.037C172.503 405.834 172.041 405.733 171.522 405.733C170.926 405.733 170.458 405.847 170.116 406.075C169.774 406.303 169.603 406.632 169.603 407.063C169.603 407.43 169.717 407.728 169.945 407.956C170.173 408.184 170.47 408.38 170.838 408.545C171.218 408.71 171.629 408.868 172.073 409.02C172.529 409.172 172.978 409.343 173.422 409.533C173.878 409.723 174.289 409.97 174.657 410.274C175.037 410.578 175.341 410.971 175.569 411.452C175.797 411.921 175.911 412.503 175.911 413.2C175.911 414.441 175.474 415.417 174.6 416.126C173.726 416.835 172.529 417.19 171.009 417.19ZM181.947 417L176.684 403.643H179.477L183.543 414.454H182.46L186.564 403.643H189.319L183.999 417H181.947Z" fill="#9856F2"/>
<path d="M434.368 417V403.643H436.952V417H434.368ZM436.268 417V414.72H443.659V417H436.268ZM436.268 411.281V409.077H442.994V411.281H436.268ZM436.268 405.923V403.643H443.564V405.923H436.268ZM451.27 417L448.857 413.276L448.344 412.896L444.772 407.823H447.717L449.94 411.186L450.415 411.547L454.196 417H451.27ZM444.582 417L448.325 411.756L449.75 413.447L447.394 417H444.582ZM450.51 412.877L449.047 411.205L451.232 407.823H454.025L450.51 412.877ZM460.569 417.19C459.91 417.19 459.315 417.057 458.783 416.791C458.251 416.512 457.827 416.139 457.51 415.67C457.193 415.201 457.022 414.663 456.997 414.055V410.806C457.022 410.198 457.193 409.66 457.51 409.191C457.839 408.71 458.264 408.33 458.783 408.051C459.315 407.772 459.91 407.633 460.569 407.633C461.418 407.633 462.178 407.842 462.849 408.26C463.52 408.678 464.046 409.248 464.426 409.97C464.819 410.692 465.015 411.509 465.015 412.421C465.015 413.32 464.819 414.131 464.426 414.853C464.046 415.575 463.52 416.145 462.849 416.563C462.178 416.981 461.418 417.19 460.569 417.19ZM455.477 420.838V407.823H457.966V410.236L457.548 412.459L457.947 414.682V420.838H455.477ZM460.132 414.891C460.588 414.891 460.993 414.79 461.348 414.587C461.703 414.372 461.975 414.08 462.165 413.713C462.368 413.333 462.469 412.896 462.469 412.402C462.469 411.921 462.368 411.496 462.165 411.129C461.975 410.749 461.703 410.458 461.348 410.255C460.993 410.04 460.588 409.932 460.132 409.932C459.689 409.932 459.29 410.04 458.935 410.255C458.58 410.458 458.302 410.749 458.099 411.129C457.909 411.496 457.814 411.921 457.814 412.402C457.814 412.896 457.909 413.333 458.099 413.713C458.302 414.08 458.574 414.372 458.916 414.587C459.271 414.79 459.676 414.891 460.132 414.891ZM470.96 417.19C470.035 417.19 469.199 416.981 468.452 416.563C467.717 416.132 467.128 415.556 466.685 414.834C466.254 414.099 466.039 413.282 466.039 412.383C466.039 411.484 466.254 410.679 466.685 409.97C467.116 409.248 467.705 408.678 468.452 408.26C469.199 407.829 470.029 407.614 470.941 407.614C471.878 407.614 472.714 407.829 473.449 408.26C474.196 408.678 474.785 409.248 475.216 409.97C475.647 410.679 475.862 411.484 475.862 412.383C475.862 413.282 475.647 414.099 475.216 414.834C474.785 415.556 474.196 416.132 473.449 416.563C472.714 416.981 471.885 417.19 470.96 417.19ZM470.941 414.872C471.41 414.872 471.821 414.771 472.176 414.568C472.543 414.353 472.822 414.061 473.012 413.694C473.215 413.314 473.316 412.883 473.316 412.402C473.316 411.921 473.215 411.496 473.012 411.129C472.809 410.762 472.531 410.477 472.176 410.274C471.821 410.059 471.41 409.951 470.941 409.951C470.485 409.951 470.08 410.059 469.725 410.274C469.37 410.477 469.092 410.762 468.889 411.129C468.686 411.496 468.585 411.921 468.585 412.402C468.585 412.883 468.686 413.314 468.889 413.694C469.092 414.061 469.37 414.353 469.725 414.568C470.08 414.771 470.485 414.872 470.941 414.872ZM477.464 417V407.823H479.953V417H477.464ZM479.953 411.927L478.984 411.281C479.098 410.154 479.428 409.267 479.972 408.621C480.517 407.962 481.302 407.633 482.328 407.633C482.772 407.633 483.171 407.709 483.525 407.861C483.88 408 484.203 408.235 484.494 408.564L482.936 410.35C482.797 410.198 482.626 410.084 482.423 410.008C482.233 409.932 482.012 409.894 481.758 409.894C481.226 409.894 480.789 410.065 480.447 410.407C480.118 410.736 479.953 411.243 479.953 411.927ZM486.773 417V404.004H489.262V417H486.773ZM484.626 410.008V407.823H491.409V410.008H484.626Z" fill="#9856F2"/>
<defs>
<filter id="filter0_d_2083_3574" x="0" y="0" width="579" height="484" filterUnits="userSpaceOnUse" color-interpolation-filters="sRGB">
<feFlood flood-opacity="0" result="BackgroundImageFix"/>
<feColorMatrix in="SourceAlpha" type="matrix" values="0 0 0 0 0 0 0 0 0 0 0 0 0 0 0 0 0 0 127 0" result="hardAlpha"/>
<feOffset/>
<feGaussianBlur stdDeviation="20"/>
<feComposite in2="hardAlpha" operator="out"/>
<feColorMatrix type="matrix" values="0 0 0 0 0 0 0 0 0 0 0 0 0 0 0 0 0 0 0.15 0"/>
<feBlend mode="normal" in2="BackgroundImageFix" result="effect1_dropShadow_2083_3574"/>
<feBlend mode="normal" in="SourceGraphic" in2="effect1_dropShadow_2083_3574" result="shape"/>
</filter>
<linearGradient id="paint0_linear_2083_3574" x1="40" y1="242" x2="539" y2="242" gradientUnits="userSpaceOnUse">
<stop stop-color="#FBF8FE"/>
<stop offset="1" stop-color="#EAF2FB"/>
</linearGradient>
</defs>
</svg>
