<svg width="419" height="501" viewBox="0 0 419 501" fill="none" xmlns="http://www.w3.org/2000/svg">
<g filter="url(#filter0_d_1811_3586)">
<rect x="96" y="88" width="263" height="353" rx="7" fill="white"/>
<rect x="81" y="74" width="262" height="351" rx="7" fill="url(#paint0_linear_1811_3586)"/>
<rect x="60" y="60" width="263" height="350" rx="7" fill="white"/>
<rect x="81.5" y="158.5" width="224" height="188" rx="2.5" stroke="#9856F2"/>
<path d="M82 161C82 159.895 82.8954 159 84 159H302C303.105 159 304 159.895 304 161V190H82V161Z" fill="url(#paint1_linear_1811_3586)"/>
<line x1="141.5" y1="158" x2="141.5" y2="347" stroke="#9856F2"/>
<line x1="234.5" y1="158" x2="234.5" y2="347" stroke="#9856F2"/>
<line x1="81" y1="212.5" x2="306" y2="212.5" stroke="#9856F2"/>
<line x1="81" y1="234.5" x2="306" y2="234.5" stroke="#9856F2"/>
<line x1="81" y1="257.5" x2="306" y2="257.5" stroke="#9856F2"/>
<line x1="81" y1="278.5" x2="306" y2="278.5" stroke="#9856F2"/>
<line x1="81" y1="301.5" x2="306" y2="301.5" stroke="#9856F2"/>
<line x1="81" y1="323.5" x2="306" y2="323.5" stroke="#9856F2"/>
<rect x="214" y="83" width="92" height="11" rx="2" fill="url(#paint2_linear_1811_3586)"/>
<rect x="107" y="360" width="171" height="15" rx="2" fill="url(#paint3_linear_1811_3586)"/>
<rect x="141" y="380" width="103" height="15" rx="2" fill="url(#paint4_linear_1811_3586)"/>
<rect x="228" y="98" width="78" height="10" rx="2" fill="url(#paint5_linear_1811_3586)"/>
<rect x="96" y="199" width="28" height="7" rx="1" fill="url(#paint6_linear_1811_3586)"/>
<rect x="259" y="199" width="27" height="7" rx="1" fill="url(#paint7_linear_1811_3586)"/>
<rect x="151" y="199" width="71" height="7" rx="1" fill="url(#paint8_linear_1811_3586)"/>
<rect x="96" y="221" width="28" height="7" rx="1" fill="url(#paint9_linear_1811_3586)"/>
<rect x="259" y="221" width="19" height="7" rx="1" fill="url(#paint10_linear_1811_3586)"/>
<rect x="158" y="221" width="56" height="7" rx="1" fill="url(#paint11_linear_1811_3586)"/>
<rect x="96" y="243" width="28" height="6" rx="1" fill="url(#paint12_linear_1811_3586)"/>
<rect x="259" y="243" width="23" height="6" rx="1" fill="url(#paint13_linear_1811_3586)"/>
<rect x="154" y="243" width="65" height="6" rx="1" fill="url(#paint14_linear_1811_3586)"/>
<rect x="96" y="263" width="28" height="8" rx="1" fill="url(#paint15_linear_1811_3586)"/>
<rect x="259" y="263" width="16" height="8" rx="1" fill="url(#paint16_linear_1811_3586)"/>
<rect x="149" y="263" width="75" height="8" rx="1" fill="url(#paint17_linear_1811_3586)"/>
<rect x="96" y="285" width="28" height="7" rx="1" fill="url(#paint18_linear_1811_3586)"/>
<rect x="259" y="285" width="23" height="7" rx="1" fill="url(#paint19_linear_1811_3586)"/>
<rect x="166" y="285" width="41" height="7" rx="1" fill="url(#paint20_linear_1811_3586)"/>
<rect x="96" y="307" width="28" height="7" rx="1" fill="url(#paint21_linear_1811_3586)"/>
<rect x="259" y="307" width="10" height="7" rx="1" fill="url(#paint22_linear_1811_3586)"/>
<rect x="161" y="307" width="51" height="7" rx="1" fill="url(#paint23_linear_1811_3586)"/>
<rect x="96" y="331" width="28" height="8" rx="1" fill="url(#paint24_linear_1811_3586)"/>
<rect x="259" y="331" width="19" height="8" rx="1" fill="url(#paint25_linear_1811_3586)"/>
<rect x="168" y="331" width="37" height="8" rx="1" fill="url(#paint26_linear_1811_3586)"/>
<rect x="146" y="122" width="90" height="25" rx="3" fill="#9856F2"/>
<path fill-rule="evenodd" clip-rule="evenodd" d="M122.306 97.3819C121.232 96.7776 119.981 96.6008 118.798 96.6284L121.984 92.0791C122.279 91.6701 122.446 91.4123 122.447 91.2151L122.448 90.0376C122.447 89.8343 122.29 89.6912 122.093 89.6908L115.941 89.6916C115.751 89.6912 115.594 89.8305 115.593 90.0392V91.4119C115.595 91.6172 115.752 91.7575 115.949 91.7575L119.163 91.7579L115.471 97.0543C115.246 97.3942 115.242 97.7751 115.242 97.9977V99.3901C115.242 99.5918 115.466 99.8224 115.68 99.7081C117.774 98.5959 120.287 98.7041 122.18 99.6962C122.412 99.8174 122.633 99.5839 122.633 99.3824V97.9179C122.614 97.7199 122.549 97.5181 122.306 97.3819ZM100.904 89.5142C99.8038 89.5142 98.7729 90.0802 98.319 91.2929C97.7948 90.0801 97.061 89.5142 95.8904 89.5142C94.7375 89.5142 93.8814 90.0802 93.4272 91.2929H93.3922V90.039C93.3805 89.8638 93.2342 89.7256 93.0519 89.7164L91.309 89.7168C91.1093 89.7168 90.9476 89.8706 90.9476 90.0628L90.9464 99.6686C90.9608 99.8393 91.1031 99.9728 91.2812 99.9846H93.1528C93.3521 99.9846 93.5141 99.8304 93.5137 99.639L93.5145 94.5475C93.5145 93.4356 93.4619 91.8994 94.8074 91.8994C96.135 91.8994 95.9604 93.4762 95.9604 94.5475L95.9621 99.6393C95.9621 99.8237 96.1101 99.9723 96.298 99.9845H98.1675C98.3666 99.9845 98.5283 99.8303 98.5283 99.6389V94.5473C98.5283 94.0013 98.5107 93.1929 98.7031 92.7077C98.8953 92.2228 99.3671 91.9196 99.8213 91.9196C100.363 91.9196 100.782 92.1016 100.922 92.7484C101.009 93.1324 100.974 94.1429 100.974 94.5475L100.975 99.6393C100.975 99.8237 101.123 99.9723 101.311 99.9845H103.18C103.379 99.9845 103.541 99.8303 103.541 99.6389L103.543 93.5771C103.543 92.5458 103.665 91.3737 103.071 90.5655C102.547 89.8376 101.691 89.5142 100.904 89.5142ZM127.744 89.5142C125.036 89.5142 123.533 91.8389 123.533 94.8303C123.533 97.8021 125.019 100.187 127.744 100.187C130.364 100.187 132.024 97.8623 132.024 94.9315C132.024 91.8995 130.522 89.5142 127.744 89.5142ZM127.744 98.2061C126.277 98.2061 126.294 95.6997 126.294 94.5272C126.294 93.3548 126.381 91.4752 127.761 91.4752C128.355 91.4752 128.775 91.7381 128.984 92.4049C129.229 93.1729 129.264 94.1432 129.264 94.9519C129.264 96.1846 129.194 98.2061 127.744 98.2061ZM140.62 90.6466C140.096 89.8178 139.275 89.5143 138.436 89.5143C137.144 89.5143 136.41 90.1413 135.886 91.455H135.851V89.9859C135.816 89.8367 135.682 89.7247 135.518 89.7165L133.782 89.7169C133.594 89.7169 133.439 89.8551 133.423 90.0304L133.426 99.6395C133.426 99.824 133.574 99.9725 133.762 99.9848H135.626C135.826 99.9848 135.988 99.8305 135.991 99.6391V94.4665C135.991 93.8196 136.026 93.2334 136.288 92.6472C136.498 92.1826 136.916 91.8791 137.371 91.8791C138.664 91.8791 138.542 93.4152 138.542 94.4665V99.6824C138.562 99.8458 138.702 99.9736 138.875 99.9846H140.751C140.936 99.9846 141.089 99.8526 141.11 99.6824V93.6377C141.11 92.7078 141.11 91.4145 140.62 90.6466ZM113.315 96.4904V93.5745C113.315 92.3389 113.403 91.2039 112.492 90.3534C111.775 89.6647 110.584 89.4214 109.674 89.4214C107.893 89.4214 105.905 90.0864 105.488 92.2869C105.444 92.521 105.614 92.6438 105.768 92.6783L107.582 92.8748C107.751 92.8659 107.874 92.699 107.907 92.5307C108.063 91.7725 108.697 91.4065 109.411 91.4065C109.796 91.4065 110.234 91.5485 110.462 91.8929C110.724 92.2777 110.689 92.8046 110.689 93.2502V93.4932C109.604 93.6148 108.185 93.6958 107.17 94.1416C105.997 94.6481 105.174 95.6809 105.174 97.2006C105.174 99.1449 106.4 100.118 107.975 100.118C109.306 100.118 110.034 99.8037 111.061 98.7571C111.401 99.2489 111.512 99.4877 112.134 100.004C112.274 100.079 112.452 100.072 112.576 99.9606L112.58 99.9648C112.954 99.6321 113.633 99.0424 114.016 98.7217C114.168 98.5975 114.141 98.3949 114.022 98.2245C113.68 97.7518 113.315 97.3674 113.315 96.4904ZM110.339 97.3827C110.041 97.9099 109.569 98.2333 109.044 98.2333C108.326 98.2333 107.905 97.6862 107.905 96.8764C107.905 95.2827 109.335 94.9922 110.689 94.9922V95.3977C110.689 96.127 110.707 96.7342 110.339 97.3827ZM88.7806 96.4904V93.5745C88.7806 92.3389 88.8681 91.2039 87.9578 90.3534C87.2398 89.6647 86.0492 89.4214 85.1389 89.4214C83.3579 89.4214 81.3704 90.0864 80.9536 92.2869C80.9093 92.521 81.0796 92.6438 81.2329 92.6783L83.0468 92.8748C83.2165 92.8659 83.3396 92.699 83.3719 92.5307C83.5277 91.7725 84.1625 91.4065 84.8762 91.4065C85.2612 91.4065 85.699 91.5485 85.9268 91.8929C86.1892 92.2777 86.1543 92.8046 86.1543 93.2502V93.4932C85.0687 93.6148 83.6505 93.6958 82.6349 94.1416C81.462 94.6481 80.6392 95.6809 80.6392 97.2006C80.6392 99.1449 81.8645 100.118 83.4404 100.118C84.7709 100.118 85.4988 99.8037 86.5259 98.7571C86.8658 99.2489 86.9772 99.4877 87.5989 100.004C87.7384 100.079 87.917 100.072 88.041 99.9606L88.0454 99.9648C88.4189 99.6321 89.0986 99.0424 89.4806 98.7217C89.6329 98.5975 89.6061 98.3949 89.4868 98.2245C89.1449 97.7518 88.7806 97.3674 88.7806 96.4904ZM85.8042 97.3827C85.5066 97.9099 85.0337 98.2333 84.5086 98.2333C83.7911 98.2333 83.3708 97.6862 83.3708 96.8764C83.3708 95.2827 84.8006 94.9922 86.1545 94.9922V95.3977C86.1545 96.127 86.1719 96.7342 85.8042 97.3827Z" fill="#080404"/>
<path fill-rule="evenodd" clip-rule="evenodd" d="M117.644 102.851C113.705 104.522 109.424 105.33 105.53 105.33C99.7576 105.33 94.1685 103.746 89.649 101.116C89.2537 100.886 88.9601 101.293 89.2889 101.589C93.4783 105.372 99.0136 107.644 105.161 107.644C109.547 107.644 114.641 106.265 118.155 103.672C118.736 103.243 118.238 102.599 117.644 102.851ZM121.116 100.858C120.733 100.386 117.438 99.9776 115.427 101.39C115.117 101.608 115.171 101.907 115.513 101.866C116.646 101.731 119.167 101.427 119.617 102.003C120.067 102.578 119.117 104.95 118.693 106.009C118.565 106.329 118.84 106.459 119.13 106.216C121.015 104.639 121.502 101.336 121.116 100.858Z" fill="#F2941B"/>
<path d="M168.76 137.1C168.193 137.1 167.707 137.003 167.3 136.81C166.9 136.617 166.537 136.327 166.21 135.94L167.11 135.04C167.317 135.313 167.557 135.527 167.83 135.68C168.103 135.827 168.437 135.9 168.83 135.9C169.183 135.9 169.463 135.83 169.67 135.69C169.883 135.55 169.99 135.357 169.99 135.11C169.99 134.897 169.93 134.723 169.81 134.59C169.69 134.457 169.53 134.343 169.33 134.25C169.137 134.157 168.92 134.073 168.68 134C168.447 133.92 168.21 133.83 167.97 133.73C167.737 133.63 167.52 133.507 167.32 133.36C167.127 133.207 166.97 133.013 166.85 132.78C166.73 132.54 166.67 132.24 166.67 131.88C166.67 131.453 166.773 131.09 166.98 130.79C167.187 130.49 167.47 130.26 167.83 130.1C168.19 129.94 168.597 129.86 169.05 129.86C169.53 129.86 169.963 129.95 170.35 130.13C170.737 130.31 171.053 130.543 171.3 130.83L170.4 131.73C170.193 131.503 169.98 131.337 169.76 131.23C169.547 131.123 169.303 131.07 169.03 131.07C168.717 131.07 168.47 131.13 168.29 131.25C168.11 131.37 168.02 131.543 168.02 131.77C168.02 131.963 168.08 132.12 168.2 132.24C168.32 132.36 168.477 132.463 168.67 132.55C168.87 132.637 169.087 132.72 169.32 132.8C169.56 132.88 169.797 132.97 170.03 133.07C170.27 133.17 170.487 133.3 170.68 133.46C170.88 133.62 171.04 133.827 171.16 134.08C171.28 134.327 171.34 134.633 171.34 135C171.34 135.653 171.11 136.167 170.65 136.54C170.19 136.913 169.56 137.1 168.76 137.1ZM174.544 137.1C174.038 137.1 173.588 136.993 173.194 136.78C172.801 136.56 172.488 136.26 172.254 135.88C172.028 135.5 171.914 135.067 171.914 134.58C171.914 134.1 172.024 133.673 172.244 133.3C172.471 132.92 172.778 132.62 173.164 132.4C173.551 132.173 173.981 132.06 174.454 132.06C174.921 132.06 175.331 132.167 175.684 132.38C176.044 132.587 176.324 132.873 176.524 133.24C176.731 133.6 176.834 134.01 176.834 134.47C176.834 134.557 176.828 134.647 176.814 134.74C176.808 134.827 176.791 134.927 176.764 135.04L172.704 135.05V134.07L176.154 134.06L175.624 134.47C175.611 134.183 175.558 133.943 175.464 133.75C175.378 133.557 175.248 133.41 175.074 133.31C174.908 133.203 174.701 133.15 174.454 133.15C174.194 133.15 173.968 133.21 173.774 133.33C173.581 133.443 173.431 133.607 173.324 133.82C173.224 134.027 173.174 134.273 173.174 134.56C173.174 134.853 173.228 135.11 173.334 135.33C173.448 135.543 173.608 135.71 173.814 135.83C174.021 135.943 174.261 136 174.534 136C174.781 136 175.004 135.96 175.204 135.88C175.404 135.793 175.578 135.667 175.724 135.5L176.494 136.27C176.261 136.543 175.974 136.75 175.634 136.89C175.301 137.03 174.938 137.1 174.544 137.1ZM177.644 137V129.77H178.954V137H177.644ZM180.115 137V129.77H181.425V137H180.115ZM184.896 137.1C184.389 137.1 183.939 136.993 183.546 136.78C183.153 136.56 182.839 136.26 182.606 135.88C182.379 135.5 182.266 135.067 182.266 134.58C182.266 134.1 182.376 133.673 182.596 133.3C182.823 132.92 183.129 132.62 183.516 132.4C183.903 132.173 184.333 132.06 184.806 132.06C185.273 132.06 185.683 132.167 186.036 132.38C186.396 132.587 186.676 132.873 186.876 133.24C187.083 133.6 187.186 134.01 187.186 134.47C187.186 134.557 187.179 134.647 187.166 134.74C187.159 134.827 187.143 134.927 187.116 135.04L183.056 135.05V134.07L186.506 134.06L185.976 134.47C185.963 134.183 185.909 133.943 185.816 133.75C185.729 133.557 185.599 133.41 185.426 133.31C185.259 133.203 185.053 133.15 184.806 133.15C184.546 133.15 184.319 133.21 184.126 133.33C183.933 133.443 183.783 133.607 183.676 133.82C183.576 134.027 183.526 134.273 183.526 134.56C183.526 134.853 183.579 135.11 183.686 135.33C183.799 135.543 183.959 135.71 184.166 135.83C184.373 135.943 184.613 136 184.886 136C185.133 136 185.356 135.96 185.556 135.88C185.756 135.793 185.929 135.667 186.076 135.5L186.846 136.27C186.613 136.543 186.326 136.75 185.986 136.89C185.653 137.03 185.289 137.1 184.896 137.1ZM187.996 137V132.17H189.306V137H187.996ZM189.306 134.33L188.796 133.99C188.856 133.397 189.029 132.93 189.316 132.59C189.603 132.243 190.016 132.07 190.556 132.07C190.789 132.07 190.999 132.11 191.186 132.19C191.373 132.263 191.543 132.387 191.696 132.56L190.876 133.5C190.803 133.42 190.713 133.36 190.606 133.32C190.506 133.28 190.389 133.26 190.256 133.26C189.976 133.26 189.746 133.35 189.566 133.53C189.393 133.703 189.306 133.97 189.306 134.33ZM193.709 137.11C193.435 137.11 193.165 137.073 192.899 137C192.639 136.927 192.399 136.827 192.179 136.7C191.959 136.567 191.769 136.407 191.609 136.22L192.389 135.43C192.555 135.617 192.749 135.757 192.969 135.85C193.189 135.943 193.432 135.99 193.699 135.99C193.912 135.99 194.072 135.96 194.179 135.9C194.292 135.84 194.349 135.75 194.349 135.63C194.349 135.497 194.289 135.393 194.169 135.32C194.055 135.247 193.905 135.187 193.719 135.14C193.532 135.087 193.335 135.03 193.129 134.97C192.929 134.903 192.735 134.82 192.549 134.72C192.362 134.613 192.209 134.47 192.089 134.29C191.975 134.103 191.919 133.863 191.919 133.57C191.919 133.263 191.992 132.997 192.139 132.77C192.292 132.543 192.509 132.367 192.789 132.24C193.069 132.113 193.399 132.05 193.779 132.05C194.179 132.05 194.539 132.12 194.859 132.26C195.185 132.4 195.455 132.61 195.669 132.89L194.879 133.68C194.732 133.5 194.565 133.37 194.379 133.29C194.199 133.21 194.002 133.17 193.789 133.17C193.595 133.17 193.445 133.2 193.339 133.26C193.239 133.32 193.189 133.403 193.189 133.51C193.189 133.63 193.245 133.723 193.359 133.79C193.479 133.857 193.632 133.917 193.819 133.97C194.005 134.017 194.199 134.073 194.399 134.14C194.605 134.2 194.799 134.287 194.979 134.4C195.165 134.513 195.315 134.663 195.429 134.85C195.549 135.037 195.609 135.277 195.609 135.57C195.609 136.043 195.439 136.42 195.099 136.7C194.759 136.973 194.295 137.11 193.709 137.11ZM198.585 137V129.97H199.945V137H198.585ZM199.585 137V135.79H203.165V137H199.585ZM204.002 137V132.17H205.322V137H204.002ZM204.662 131.39C204.449 131.39 204.272 131.32 204.132 131.18C203.992 131.033 203.922 130.853 203.922 130.64C203.922 130.433 203.992 130.257 204.132 130.11C204.272 129.963 204.449 129.89 204.662 129.89C204.882 129.89 205.059 129.963 205.192 130.11C205.332 130.257 205.402 130.433 205.402 130.64C205.402 130.853 205.332 131.033 205.192 131.18C205.059 131.32 204.882 131.39 204.662 131.39ZM208.142 137.11C207.869 137.11 207.599 137.073 207.332 137C207.072 136.927 206.832 136.827 206.612 136.7C206.392 136.567 206.202 136.407 206.042 136.22L206.822 135.43C206.989 135.617 207.182 135.757 207.402 135.85C207.622 135.943 207.866 135.99 208.132 135.99C208.346 135.99 208.506 135.96 208.612 135.9C208.726 135.84 208.782 135.75 208.782 135.63C208.782 135.497 208.722 135.393 208.602 135.32C208.489 135.247 208.339 135.187 208.152 135.14C207.966 135.087 207.769 135.03 207.562 134.97C207.362 134.903 207.169 134.82 206.982 134.72C206.796 134.613 206.642 134.47 206.522 134.29C206.409 134.103 206.352 133.863 206.352 133.57C206.352 133.263 206.426 132.997 206.572 132.77C206.726 132.543 206.942 132.367 207.222 132.24C207.502 132.113 207.832 132.05 208.212 132.05C208.612 132.05 208.972 132.12 209.292 132.26C209.619 132.4 209.889 132.61 210.102 132.89L209.312 133.68C209.166 133.5 208.999 133.37 208.812 133.29C208.632 133.21 208.436 133.17 208.222 133.17C208.029 133.17 207.879 133.2 207.772 133.26C207.672 133.32 207.622 133.403 207.622 133.51C207.622 133.63 207.679 133.723 207.792 133.79C207.912 133.857 208.066 133.917 208.252 133.97C208.439 134.017 208.632 134.073 208.832 134.14C209.039 134.2 209.232 134.287 209.412 134.4C209.599 134.513 209.749 134.663 209.862 134.85C209.982 135.037 210.042 135.277 210.042 135.57C210.042 136.043 209.872 136.42 209.532 136.7C209.192 136.973 208.729 137.11 208.142 137.11ZM211.636 137V130.16H212.946V137H211.636ZM210.506 133.32V132.17H214.076V133.32H210.506Z" fill="url(#paint27_linear_1811_3586)"/>
<rect x="99" y="170" width="25" height="8" rx="1" fill="white"/>
<rect x="168" y="170" width="37" height="8" rx="1" fill="white"/>
<rect x="254" y="170" width="37" height="8" rx="1" fill="white"/>
</g>
<defs>
<filter id="filter0_d_1811_3586" x="0" y="0" width="419" height="501" filterUnits="userSpaceOnUse" color-interpolation-filters="sRGB">
<feFlood flood-opacity="0" result="BackgroundImageFix"/>
<feColorMatrix in="SourceAlpha" type="matrix" values="0 0 0 0 0 0 0 0 0 0 0 0 0 0 0 0 0 0 127 0" result="hardAlpha"/>
<feOffset/>
<feGaussianBlur stdDeviation="30"/>
<feComposite in2="hardAlpha" operator="out"/>
<feColorMatrix type="matrix" values="0 0 0 0 0 0 0 0 0 0 0 0 0 0 0 0 0 0 0.15 0"/>
<feBlend mode="normal" in2="BackgroundImageFix" result="effect1_dropShadow_1811_3586"/>
<feBlend mode="normal" in="SourceGraphic" in2="effect1_dropShadow_1811_3586" result="shape"/>
</filter>
<linearGradient id="paint0_linear_1811_3586" x1="81" y1="249.5" x2="343" y2="249.5" gradientUnits="userSpaceOnUse">
<stop stop-color="#F0E7F9"/>
<stop offset="1" stop-color="#EAF2FB"/>
</linearGradient>
<linearGradient id="paint1_linear_1811_3586" x1="82" y1="174.5" x2="304" y2="174.5" gradientUnits="userSpaceOnUse">
<stop stop-color="#F0E7F9"/>
<stop offset="1" stop-color="#EAF2FB"/>
</linearGradient>
<linearGradient id="paint2_linear_1811_3586" x1="214" y1="88.5" x2="306" y2="88.5" gradientUnits="userSpaceOnUse">
<stop stop-color="#FBF8FE"/>
<stop offset="1" stop-color="#EAF2FB"/>
</linearGradient>
<linearGradient id="paint3_linear_1811_3586" x1="107" y1="367.5" x2="278" y2="367.5" gradientUnits="userSpaceOnUse">
<stop stop-color="#F0E7F9"/>
<stop offset="1" stop-color="#EAF2FB"/>
</linearGradient>
<linearGradient id="paint4_linear_1811_3586" x1="141" y1="387.5" x2="244" y2="387.5" gradientUnits="userSpaceOnUse">
<stop stop-color="#F0E7F9"/>
<stop offset="1" stop-color="#EAF2FB"/>
</linearGradient>
<linearGradient id="paint5_linear_1811_3586" x1="228" y1="103" x2="306" y2="103" gradientUnits="userSpaceOnUse">
<stop stop-color="#F0E7F9"/>
<stop offset="1" stop-color="#EAF2FB"/>
</linearGradient>
<linearGradient id="paint6_linear_1811_3586" x1="96" y1="202.5" x2="124" y2="202.5" gradientUnits="userSpaceOnUse">
<stop stop-color="#F0E7F9"/>
<stop offset="1" stop-color="#EAF2FB"/>
</linearGradient>
<linearGradient id="paint7_linear_1811_3586" x1="259" y1="202.5" x2="286" y2="202.5" gradientUnits="userSpaceOnUse">
<stop stop-color="#F0E7F9"/>
<stop offset="1" stop-color="#EAF2FB"/>
</linearGradient>
<linearGradient id="paint8_linear_1811_3586" x1="151" y1="202.5" x2="222" y2="202.5" gradientUnits="userSpaceOnUse">
<stop stop-color="#F0E7F9"/>
<stop offset="1" stop-color="#EAF2FB"/>
</linearGradient>
<linearGradient id="paint9_linear_1811_3586" x1="96" y1="224.5" x2="124" y2="224.5" gradientUnits="userSpaceOnUse">
<stop stop-color="#F0E7F9"/>
<stop offset="1" stop-color="#EAF2FB"/>
</linearGradient>
<linearGradient id="paint10_linear_1811_3586" x1="259" y1="224.5" x2="278" y2="224.5" gradientUnits="userSpaceOnUse">
<stop stop-color="#F0E7F9"/>
<stop offset="1" stop-color="#EAF2FB"/>
</linearGradient>
<linearGradient id="paint11_linear_1811_3586" x1="158" y1="224.5" x2="214" y2="224.5" gradientUnits="userSpaceOnUse">
<stop stop-color="#F0E7F9"/>
<stop offset="1" stop-color="#EAF2FB"/>
</linearGradient>
<linearGradient id="paint12_linear_1811_3586" x1="96" y1="246" x2="124" y2="246" gradientUnits="userSpaceOnUse">
<stop stop-color="#F0E7F9"/>
<stop offset="1" stop-color="#EAF2FB"/>
</linearGradient>
<linearGradient id="paint13_linear_1811_3586" x1="259" y1="246" x2="282" y2="246" gradientUnits="userSpaceOnUse">
<stop stop-color="#F0E7F9"/>
<stop offset="1" stop-color="#EAF2FB"/>
</linearGradient>
<linearGradient id="paint14_linear_1811_3586" x1="154" y1="246" x2="219" y2="246" gradientUnits="userSpaceOnUse">
<stop stop-color="#F0E7F9"/>
<stop offset="1" stop-color="#EAF2FB"/>
</linearGradient>
<linearGradient id="paint15_linear_1811_3586" x1="96" y1="267" x2="124" y2="267" gradientUnits="userSpaceOnUse">
<stop stop-color="#F0E7F9"/>
<stop offset="1" stop-color="#EAF2FB"/>
</linearGradient>
<linearGradient id="paint16_linear_1811_3586" x1="259" y1="267" x2="275" y2="267" gradientUnits="userSpaceOnUse">
<stop stop-color="#F0E7F9"/>
<stop offset="1" stop-color="#EAF2FB"/>
</linearGradient>
<linearGradient id="paint17_linear_1811_3586" x1="149" y1="267" x2="224" y2="267" gradientUnits="userSpaceOnUse">
<stop stop-color="#F0E7F9"/>
<stop offset="1" stop-color="#EAF2FB"/>
</linearGradient>
<linearGradient id="paint18_linear_1811_3586" x1="96" y1="288.5" x2="124" y2="288.5" gradientUnits="userSpaceOnUse">
<stop stop-color="#F0E7F9"/>
<stop offset="1" stop-color="#EAF2FB"/>
</linearGradient>
<linearGradient id="paint19_linear_1811_3586" x1="259" y1="288.5" x2="282" y2="288.5" gradientUnits="userSpaceOnUse">
<stop stop-color="#F0E7F9"/>
<stop offset="1" stop-color="#EAF2FB"/>
</linearGradient>
<linearGradient id="paint20_linear_1811_3586" x1="166" y1="288.5" x2="207" y2="288.5" gradientUnits="userSpaceOnUse">
<stop stop-color="#F0E7F9"/>
<stop offset="1" stop-color="#EAF2FB"/>
</linearGradient>
<linearGradient id="paint21_linear_1811_3586" x1="96" y1="310.5" x2="124" y2="310.5" gradientUnits="userSpaceOnUse">
<stop stop-color="#F0E7F9"/>
<stop offset="1" stop-color="#EAF2FB"/>
</linearGradient>
<linearGradient id="paint22_linear_1811_3586" x1="259" y1="310.5" x2="269" y2="310.5" gradientUnits="userSpaceOnUse">
<stop stop-color="#F0E7F9"/>
<stop offset="1" stop-color="#EAF2FB"/>
</linearGradient>
<linearGradient id="paint23_linear_1811_3586" x1="161" y1="310.5" x2="212" y2="310.5" gradientUnits="userSpaceOnUse">
<stop stop-color="#F0E7F9"/>
<stop offset="1" stop-color="#EAF2FB"/>
</linearGradient>
<linearGradient id="paint24_linear_1811_3586" x1="96" y1="335" x2="124" y2="335" gradientUnits="userSpaceOnUse">
<stop stop-color="#F0E7F9"/>
<stop offset="1" stop-color="#EAF2FB"/>
</linearGradient>
<linearGradient id="paint25_linear_1811_3586" x1="259" y1="335" x2="278" y2="335" gradientUnits="userSpaceOnUse">
<stop stop-color="#F0E7F9"/>
<stop offset="1" stop-color="#EAF2FB"/>
</linearGradient>
<linearGradient id="paint26_linear_1811_3586" x1="168" y1="335" x2="205" y2="335" gradientUnits="userSpaceOnUse">
<stop stop-color="#F0E7F9"/>
<stop offset="1" stop-color="#EAF2FB"/>
</linearGradient>
<linearGradient id="paint27_linear_1811_3586" x1="166" y1="134.5" x2="217" y2="134.5" gradientUnits="userSpaceOnUse">
<stop stop-color="#FBF8FE"/>
<stop offset="1" stop-color="#EAF2FB"/>
</linearGradient>
</defs>
</svg>
